<svg width="196" height="149" viewBox="0 0 196 149" fill="none" xmlns="http://www.w3.org/2000/svg">
<g id="Group">
<g id="Group_2">
<g id="Group_3">
<path id="Vector" opacity="0.6" d="M90.4093 135.67L33.3121 111.237C29.2713 109.547 29.7984 106.428 34.3662 104.479L89.1795 81.085C93.923 79.1355 100.95 78.8756 104.991 80.5652L162.264 104.999C166.305 106.688 165.778 109.807 161.21 111.757L106.397 135.151C101.477 137.23 94.45 137.36 90.4093 135.67Z" fill="#0C0F38"/>
<path id="Vector_2" d="M97.2609 143.001C94.0986 143.001 91.112 142.481 88.8281 141.571L21.3655 112.849C19.0816 111.809 17.8518 110.509 17.8518 108.95C17.8518 107.13 19.6086 105.311 22.771 104.011L87.4226 76.4583C93.0445 73.9889 101.829 73.729 106.748 75.9384L174.035 104.661C176.319 105.7 177.548 107 177.548 108.56C177.548 110.379 175.792 112.199 172.629 113.498L108.153 141.051C104.991 142.351 100.95 143.001 97.2609 143.001ZM89.3551 140.661C93.9229 142.611 102.004 142.351 107.275 140.141L171.927 112.589C174.562 111.419 176.143 109.989 176.143 108.56C176.143 107.39 175.089 106.35 173.332 105.571L106.045 76.7182C101.477 74.7687 93.3959 75.0287 88.1253 77.2381L23.4737 104.791C20.8384 105.96 19.2573 107.39 19.2573 108.82C19.2573 109.989 20.3114 111.029 22.0682 111.809L89.3551 140.661Z" stroke="url(#paint0_linear_7_5182)" stroke-miterlimit="10"/>
<path id="Vector_3" d="M165.075 83.294H136.614L105.167 69.9076C101.126 68.2181 93.9228 68.348 89.355 70.4275L58.9617 83.424H30.501V97.4603C30.3253 98.63 31.2037 99.7996 33.1362 100.579L90.2335 125.013C94.2742 126.702 101.477 126.573 106.045 124.493L160.858 101.099C163.318 100.06 164.548 98.7599 164.723 97.4603V83.294H165.075Z" fill="url(#paint1_linear_7_5182)"/>
<path id="Vector_4" d="M161.034 100.059L106.221 123.453C101.477 125.403 94.45 125.663 90.4092 123.973L33.312 99.5396C31.8753 98.9599 31.0212 98.1646 30.7497 97.3141C30.7243 97.2345 30.6767 97.2415 30.6767 97.3251V97.3251C30.6767 97.3285 30.6765 97.3318 30.676 97.3352C30.5036 98.5032 31.3822 99.6707 33.312 100.449L90.4092 124.883C94.45 126.572 101.653 126.442 106.221 124.363L161.034 100.969C163.494 99.9295 164.723 98.6298 164.899 97.3302V96.4204C164.899 97.7201 163.494 99.0197 161.034 100.059Z" stroke="url(#paint2_linear_7_5182)" stroke-miterlimit="10"/>
<g id="Vector_5" filter="url(#filter0_d_7_5182)">
<path d="M32.2578 98.37V84.3338H60.5429L90.9362 71.3372C95.6797 69.3877 102.707 69.1278 106.748 70.8174L138.371 84.3338H164.899V83.424H136.614L105.167 69.9076C101.126 68.2181 93.9228 68.348 89.355 70.4275L58.9617 83.424H30.501V97.4603C30.3253 98.63 31.2037 99.7996 33.1362 100.579L33.4876 100.709C32.6092 100.06 32.2578 99.2798 32.2578 98.37Z" fill="url(#paint3_radial_7_5182)"/>
</g>
<g id="Vector_6" filter="url(#filter1_d_7_5182)">
<path d="M163.318 84.464V98.5002C163.318 99.28 162.791 99.9298 161.913 100.71C163.845 99.7999 164.723 98.6302 164.899 97.4605V83.5542C164.372 83.8141 163.845 84.0741 163.318 84.464Z" fill="url(#paint4_radial_7_5182)"/>
</g>
<g id="Vector_7" filter="url(#filter2_b_7_5182)">
<path d="M90.4093 110.847L33.3121 86.5431C29.2713 84.8536 29.7984 81.7344 34.3662 79.7849L89.1795 56.3912C93.923 54.4417 100.95 54.1818 104.991 55.8713L162.088 80.3048C166.129 81.9943 165.602 85.1135 161.034 87.063L106.221 110.457C101.477 112.406 94.45 112.666 90.4093 110.847Z" fill="url(#paint5_linear_7_5182)" fill-opacity="0.6"/>
</g>
<g id="Vector_8" filter="url(#filter3_d_7_5182)">
<path d="M162.575 80.0528L104.717 55.5607C102.581 54.6488 99.5543 54.2579 96.5279 54.3882C98.6641 54.5185 100.8 54.9093 102.403 55.5607L160.26 80.0528C164.355 81.7464 163.821 84.8731 159.192 86.8272L103.471 110.407C101.156 111.319 98.3081 111.971 95.4597 112.101C99.0202 112.231 102.759 111.71 105.607 110.407L161.15 86.9575C166.135 84.8731 166.669 81.8767 162.575 80.0528Z" fill="url(#paint6_radial_7_5182)"/>
</g>
<path id="Vector_9" d="M92.3418 103.829L49.8263 85.6334C46.8397 84.3337 47.1911 82.1243 50.7048 80.5647L91.6391 63.1494C95.1528 61.7197 100.423 61.4598 103.41 62.7595L145.925 80.9546C148.912 82.2543 148.561 84.4637 145.047 86.0233L104.113 103.569C100.599 104.998 95.3285 105.128 92.3418 103.829Z" fill="url(#paint7_linear_7_5182)"/>
<path id="Vector_10" d="M93.7472 98.24L63.0025 85.1135C60.8943 84.2037 61.07 82.5142 63.5295 81.4745L93.0444 68.8678C95.504 67.8281 99.369 67.6981 101.653 68.6079L132.573 81.6044C134.681 82.5142 134.506 84.2037 132.046 85.2435L102.531 97.8501C99.7204 99.0198 96.0311 99.1498 93.7472 98.24Z" fill="url(#paint8_radial_7_5182)"/>
<g id="Vector_11" filter="url(#filter4_d_7_5182)">
<path d="M92.8689 110.847L35.7716 86.5431C31.7309 84.8535 32.2579 81.7343 36.8257 79.7849L91.6391 56.3911C93.923 55.4813 96.5582 54.8315 99.3692 54.8315C95.8555 54.7015 91.9904 55.2214 89.0038 56.3911L34.1905 79.7849C29.447 81.7343 28.9199 84.8535 33.1364 86.5431L90.2336 110.977C92.3418 111.886 95.3284 112.276 98.3151 112.146C96.3825 111.886 94.45 111.496 92.8689 110.847Z" fill="url(#paint9_radial_7_5182)"/>
</g>
</g>
<path id="Vector_12" opacity="0.4" d="M17 0L20.4707 5.37449L73.0582 88.6864C73.0582 89.1186 73.408 89.4644 73.9912 89.7238L94.401 98.4551C95.8005 99.0603 98.3663 98.9738 100.116 98.2822L119.709 89.8967C120.525 89.5509 120.992 89.0322 121.109 88.6L166.24 0H17Z" fill="url(#paint10_linear_7_5182)"/>
</g>
</g>
<defs>
<filter id="filter0_d_7_5182" x="0.479004" y="44.7437" width="194.42" height="91.9657" filterUnits="userSpaceOnUse" color-interpolation-filters="sRGB">
<feFlood flood-opacity="0" result="BackgroundImageFix"/>
<feColorMatrix in="SourceAlpha" type="matrix" values="0 0 0 0 0 0 0 0 0 0 0 0 0 0 0 0 0 0 127 0" result="hardAlpha"/>
<feOffset dy="6"/>
<feGaussianBlur stdDeviation="15"/>
<feComposite in2="hardAlpha" operator="out"/>
<feColorMatrix type="matrix" values="0 0 0 0 0 0 0 0 0 0.220306 0 0 0 0 0.379167 0 0 0 1 0"/>
<feBlend mode="normal" in2="BackgroundImageFix" result="effect1_dropShadow_7_5182"/>
<feBlend mode="normal" in="SourceGraphic" in2="effect1_dropShadow_7_5182" result="shape"/>
</filter>
<filter id="filter1_d_7_5182" x="131.913" y="59.5542" width="62.9866" height="77.1554" filterUnits="userSpaceOnUse" color-interpolation-filters="sRGB">
<feFlood flood-opacity="0" result="BackgroundImageFix"/>
<feColorMatrix in="SourceAlpha" type="matrix" values="0 0 0 0 0 0 0 0 0 0 0 0 0 0 0 0 0 0 127 0" result="hardAlpha"/>
<feOffset dy="6"/>
<feGaussianBlur stdDeviation="15"/>
<feComposite in2="hardAlpha" operator="out"/>
<feColorMatrix type="matrix" values="0 0 0 0 0 0 0 0 0 0.220306 0 0 0 0 0.379167 0 0 0 1 0"/>
<feBlend mode="normal" in2="BackgroundImageFix" result="effect1_dropShadow_7_5182"/>
<feBlend mode="normal" in="SourceGraphic" in2="effect1_dropShadow_7_5182" result="shape"/>
</filter>
<filter id="filter2_b_7_5182" x="-69.4163" y="-45.249" width="334.233" height="257.325" filterUnits="userSpaceOnUse" color-interpolation-filters="sRGB">
<feFlood flood-opacity="0" result="BackgroundImageFix"/>
<feGaussianBlur in="BackgroundImageFix" stdDeviation="50"/>
<feComposite in2="SourceAlpha" operator="in" result="effect1_backgroundBlur_7_5182"/>
<feBlend mode="normal" in="SourceGraphic" in2="effect1_backgroundBlur_7_5182" result="shape"/>
</filter>
<filter id="filter3_d_7_5182" x="65.4597" y="30.3638" width="129.847" height="117.757" filterUnits="userSpaceOnUse" color-interpolation-filters="sRGB">
<feFlood flood-opacity="0" result="BackgroundImageFix"/>
<feColorMatrix in="SourceAlpha" type="matrix" values="0 0 0 0 0 0 0 0 0 0 0 0 0 0 0 0 0 0 127 0" result="hardAlpha"/>
<feOffset dy="6"/>
<feGaussianBlur stdDeviation="15"/>
<feComposite in2="hardAlpha" operator="out"/>
<feColorMatrix type="matrix" values="0 0 0 0 0 0 0 0 0 0.220306 0 0 0 0 0.379167 0 0 0 1 0"/>
<feBlend mode="normal" in2="BackgroundImageFix" result="effect1_dropShadow_7_5182"/>
<feBlend mode="normal" in="SourceGraphic" in2="effect1_dropShadow_7_5182" result="shape"/>
</filter>
<filter id="filter4_d_7_5182" x="0.277344" y="30.812" width="129.092" height="117.359" filterUnits="userSpaceOnUse" color-interpolation-filters="sRGB">
<feFlood flood-opacity="0" result="BackgroundImageFix"/>
<feColorMatrix in="SourceAlpha" type="matrix" values="0 0 0 0 0 0 0 0 0 0 0 0 0 0 0 0 0 0 127 0" result="hardAlpha"/>
<feOffset dy="6"/>
<feGaussianBlur stdDeviation="15"/>
<feComposite in2="hardAlpha" operator="out"/>
<feColorMatrix type="matrix" values="0 0 0 0 0 0 0 0 0 0.220306 0 0 0 0 0.379167 0 0 0 1 0"/>
<feBlend mode="normal" in2="BackgroundImageFix" result="effect1_dropShadow_7_5182"/>
<feBlend mode="normal" in="SourceGraphic" in2="effect1_dropShadow_7_5182" result="shape"/>
</filter>
<linearGradient id="paint0_linear_7_5182" x1="98.2088" y1="43.0631" x2="115.229" y2="151.458" gradientUnits="userSpaceOnUse">
<stop offset="0.303689" stop-color="#004DF4" stop-opacity="0"/>
<stop offset="0.422945" stop-color="#004DF4" stop-opacity="0.4"/>
<stop offset="0.499089" stop-color="#004DF4"/>
<stop offset="0.649516" stop-color="#26DDFF"/>
<stop offset="0.953267" stop-color="#26DDFF" stop-opacity="0"/>
</linearGradient>
<linearGradient id="paint1_linear_7_5182" x1="17.7809" y1="97.4318" x2="194.822" y2="70.0135" gradientUnits="userSpaceOnUse">
<stop offset="0.232734" stop-color="#0A205F"/>
<stop offset="0.644324" stop-color="#3168DA"/>
</linearGradient>
<linearGradient id="paint2_linear_7_5182" x1="98.2046" y1="82.8671" x2="102.053" y2="130.545" gradientUnits="userSpaceOnUse">
<stop offset="0.303689" stop-color="#004DF4" stop-opacity="0"/>
<stop offset="0.422945" stop-color="#004DF4" stop-opacity="0.4"/>
<stop offset="0.499089" stop-color="#004DF4"/>
<stop offset="0.649516" stop-color="#26DDFF"/>
<stop offset="0.953267" stop-color="#26DDFF" stop-opacity="0"/>
</linearGradient>
<radialGradient id="paint3_radial_7_5182" cx="0" cy="0" r="1" gradientUnits="userSpaceOnUse" gradientTransform="translate(107.29 84.9341) rotate(6.64815) scale(267.145 103.199)">
<stop stop-color="#00C3FD"/>
<stop offset="0.381991" stop-color="#0194FE"/>
<stop offset="1" stop-color="#0194FE"/>
</radialGradient>
<radialGradient id="paint4_radial_7_5182" cx="0" cy="0" r="1" gradientUnits="userSpaceOnUse" gradientTransform="translate(163.619 92.2433) rotate(70.4451) scale(17.6144 18.6634)">
<stop stop-color="#00C3FD"/>
<stop offset="0.381991" stop-color="#0194FE"/>
<stop offset="1" stop-color="#0194FE"/>
</radialGradient>
<linearGradient id="paint5_linear_7_5182" x1="-21.8921" y1="38.9309" x2="22.6555" y2="168.536" gradientUnits="userSpaceOnUse">
<stop stop-color="#010D14"/>
<stop offset="0.155482" stop-color="#070214"/>
<stop offset="0.772926" stop-color="#050F14"/>
</linearGradient>
<radialGradient id="paint6_radial_7_5182" cx="0" cy="0" r="1" gradientUnits="userSpaceOnUse" gradientTransform="translate(135.372 83.6171) rotate(22.0622) scale(148.774 173.979)">
<stop stop-color="#00C3FD"/>
<stop offset="0.381991" stop-color="#0194FE"/>
<stop offset="1" stop-color="#0194FE"/>
</radialGradient>
<linearGradient id="paint7_linear_7_5182" x1="38.3588" y1="83.3007" x2="170.089" y2="62.9379" gradientUnits="userSpaceOnUse">
<stop offset="0.232734" stop-color="#0A205F"/>
<stop offset="0.644324" stop-color="#3168DA"/>
</linearGradient>
<radialGradient id="paint8_radial_7_5182" cx="0" cy="0" r="1" gradientUnits="userSpaceOnUse" gradientTransform="translate(90 111.719) rotate(-100.421) scale(44.2295 63.6559)">
<stop offset="0.329113" stop-color="#04495F"/>
<stop offset="0.723628" stop-color="#45CB9C"/>
<stop offset="0.913706" stop-color="#3DEFA1"/>
<stop offset="1" stop-color="#3AFDA3"/>
</radialGradient>
<radialGradient id="paint9_radial_7_5182" cx="0" cy="0" r="1" gradientUnits="userSpaceOnUse" gradientTransform="translate(69.7584 83.8638) rotate(22.1413) scale(147.247 172.684)">
<stop stop-color="#00C3FD"/>
<stop offset="0.381991" stop-color="#0194FE"/>
<stop offset="1" stop-color="#0194FE"/>
</radialGradient>
<linearGradient id="paint10_linear_7_5182" x1="97.1722" y1="124.878" x2="100.451" y2="-37.7818" gradientUnits="userSpaceOnUse">
<stop stop-color="#2CBA92"/>
<stop offset="0.852811" stop-color="#13113D" stop-opacity="0"/>
</linearGradient>
</defs>
</svg>
