<svg width="166" height="161" viewBox="0 0 166 161" fill="none" xmlns="http://www.w3.org/2000/svg">
<g id="Group 159">
<g id="Group 6">
<path id="Vector" d="M83.9688 4.88257C128.672 4.88257 164.911 41.617 164.911 86.9311C164.911 114.976 151.031 139.734 129.853 154.532" stroke="url(#paint0_linear_7_6175)" stroke-width="2" stroke-miterlimit="10"/>
<path id="Vector_2" d="M133.851 154.817C133.851 151.922 131.574 149.647 128.675 149.647C125.776 149.647 123.498 151.922 123.498 154.817C123.498 157.713 125.776 159.988 128.675 159.988C131.574 160.195 133.851 157.713 133.851 154.817Z" stroke="url(#paint1_linear_7_6175)" stroke-width="2" stroke-miterlimit="10"/>
<path id="Vector_3" d="M43.0459 157.102C3.80825 134.448 -9.70614 84.3975 12.8606 45.3107C26.8271 21.1201 51.3405 6.79835 77.2979 4.76587" stroke="url(#paint2_linear_7_6175)" stroke-width="2" stroke-miterlimit="10"/>
<path id="Vector_4" d="M72.547 3.72366C71.0992 6.23123 71.9343 9.3403 74.4447 10.7897C76.9552 12.2392 80.0653 11.4078 81.513 8.90021C82.9608 6.39264 82.1258 3.28357 79.6153 1.83413C77.2082 0.205586 73.9947 1.21609 72.547 3.72366Z" stroke="url(#paint3_linear_7_6175)" stroke-width="2" stroke-miterlimit="10"/>
</g>
<g id="Group">
<path id="Vector_5" opacity="0.39" d="M83.9913 146.789C116.999 146.789 143.757 120.031 143.757 87.0235C143.757 54.0158 116.999 27.2578 83.9913 27.2578C50.9837 27.2578 24.2256 54.0158 24.2256 87.0235C24.2256 120.031 50.9837 146.789 83.9913 146.789Z" fill="url(#paint4_radial_7_6175)"/>
</g>
<g id="Group 152" filter="url(#filter0_d_7_6175)">
<g id="Layer_1-2_11_">
<path id="Vector_6" d="M72.9967 83.9278L84.5721 72.3523L96.1475 83.9278L102.918 77.1572L84.5721 58.8113L66.2262 77.2664L72.9967 83.9278ZM54.7599 88.7326L61.5305 81.9621L68.301 88.7326L61.5305 95.5032L54.7599 88.7326ZM72.9967 93.5375L84.5721 105.113L96.1475 93.5375L102.918 100.308L84.5721 118.654L66.2262 100.308L72.9967 93.5375ZM101.062 88.7326L107.832 81.9621L114.603 88.7326L107.832 95.5032L101.062 88.7326Z" fill="#DC72F1"/>
<path id="Vector_7" d="M91.4522 88.7328L84.5725 81.853L79.5492 86.8763L79.0032 87.4223L77.8019 88.6236L84.6817 95.5033L91.4522 88.7328Z" fill="#C96EDB"/>
</g>
<rect id="Rectangle 110" x="61.3975" y="81.8767" width="9.6715" height="9.6715" transform="rotate(45 61.3975 81.8767)" fill="#A75DA8"/>
<rect id="Rectangle 111" x="108.159" y="81.1057" width="10.2012" height="10.2012" transform="rotate(45 108.159 81.1057)" fill="#A75DA8"/>
<rect id="Rectangle 112" x="84.6436" y="81.5298" width="10.2012" height="10.2012" transform="rotate(45 84.6436 81.5298)" fill="#A75DA8"/>
</g>
</g>
<defs>
<filter id="filter0_d_7_6175" x="45.5587" y="53.8113" width="78.814" height="77.8428" filterUnits="userSpaceOnUse" color-interpolation-filters="sRGB">
<feFlood flood-opacity="0" result="BackgroundImageFix"/>
<feColorMatrix in="SourceAlpha" type="matrix" values="0 0 0 0 0 0 0 0 0 0 0 0 0 0 0 0 0 0 127 0" result="hardAlpha"/>
<feOffset dy="4"/>
<feGaussianBlur stdDeviation="4.5"/>
<feComposite in2="hardAlpha" operator="out"/>
<feColorMatrix type="matrix" values="0 0 0 0 0.895349 0 0 0 0 0.513733 0 0 0 0 0.970833 0 0 0 0.38 0"/>
<feBlend mode="normal" in2="BackgroundImageFix" result="effect1_dropShadow_7_6175"/>
<feBlend mode="normal" in="SourceGraphic" in2="effect1_dropShadow_7_6175" result="shape"/>
</filter>
<linearGradient id="paint0_linear_7_6175" x1="113.662" y1="-57.3564" x2="219.317" y2="109.181" gradientUnits="userSpaceOnUse">
<stop offset="0.303689" stop-color="#C76CD6" stop-opacity="0"/>
<stop offset="0.402016" stop-color="#EF97FD"/>
<stop offset="0.461183" stop-color="#C469D6"/>
<stop offset="0.575448" stop-color="#C56AD6"/>
<stop offset="0.953267" stop-color="#AC97FD" stop-opacity="0.01"/>
</linearGradient>
<linearGradient id="paint1_linear_7_6175" x1="125.224" y1="131.367" x2="142.016" y2="159.619" gradientUnits="userSpaceOnUse">
<stop offset="0.303689" stop-color="#C76CD6" stop-opacity="0"/>
<stop offset="0.402016" stop-color="#EF97FD"/>
<stop offset="0.461183" stop-color="#C469D6"/>
<stop offset="0.575448" stop-color="#C56AD6"/>
<stop offset="0.953267" stop-color="#AC97FD" stop-opacity="0.01"/>
</linearGradient>
<linearGradient id="paint2_linear_7_6175" x1="-14.0121" y1="195.741" x2="-20.7027" y2="-1.55714" gradientUnits="userSpaceOnUse">
<stop offset="0.303689" stop-color="#C76CD6" stop-opacity="0"/>
<stop offset="0.402016" stop-color="#EF97FD"/>
<stop offset="0.461183" stop-color="#C469D6"/>
<stop offset="0.575448" stop-color="#C56AD6"/>
<stop offset="0.953267" stop-color="#AC97FD" stop-opacity="0.01"/>
</linearGradient>
<linearGradient id="paint3_linear_7_6175" x1="68.2927" y1="28.3458" x2="67.8766" y2="-4.51763" gradientUnits="userSpaceOnUse">
<stop offset="0.303689" stop-color="#C76CD6" stop-opacity="0"/>
<stop offset="0.402016" stop-color="#EF97FD"/>
<stop offset="0.461183" stop-color="#C469D6"/>
<stop offset="0.575448" stop-color="#C56AD6"/>
<stop offset="0.953267" stop-color="#AC97FD" stop-opacity="0.01"/>
</linearGradient>
<radialGradient id="paint4_radial_7_6175" cx="0" cy="0" r="1" gradientUnits="userSpaceOnUse" gradientTransform="translate(84.0048 87.011) scale(74.2636)">
<stop stop-color="#11639D"/>
<stop offset="0.99" stop-color="white" stop-opacity="0"/>
</radialGradient>
</defs>
</svg>
