<svg width="1920" height="938" viewBox="0 0 1920 938" fill="none" xmlns="http://www.w3.org/2000/svg">
<g opacity="0.5">
<mask id="mask0_7_3734" style="mask-type:alpha" maskUnits="userSpaceOnUse" x="-367" y="0" width="2439" height="939">
<g opacity="0.2">
<g opacity="0.3">
<path opacity="0.3" d="M30.6374 565.839H-26.9111V937.61H30.6374V565.839Z" fill="url(#paint0_linear_7_3734)"/>
<path opacity="0.3" d="M115.822 364.366H58.2737V938H115.822V364.366Z" fill="url(#paint1_linear_7_3734)"/>
<path opacity="0.3" d="M200.682 264.604H143.133V937.61H200.682V264.604Z" fill="url(#paint2_linear_7_3734)"/>
<path opacity="0.3" d="M285.866 68.5869H228.318V938H285.866V68.5869Z" fill="url(#paint3_linear_7_3734)"/>
<path opacity="0.3" d="M370.726 153.93H313.178V937.61H370.726V153.93Z" fill="url(#paint4_linear_7_3734)"/>
<path opacity="0.3" d="M455.911 305.522H398.363V937.61H455.911V305.522Z" fill="url(#paint5_linear_7_3734)"/>
<path opacity="0.3" d="M540.771 492.187H483.223V937.61H540.771V492.187Z" fill="url(#paint6_linear_7_3734)"/>
<path opacity="0.3" d="M625.956 641.83H568.407V937.61H625.956V641.83Z" fill="url(#paint7_linear_7_3734)"/>
<path opacity="0.3" d="M711.14 461.79H653.592V937.61H711.14V461.79Z" fill="url(#paint8_linear_7_3734)"/>
<path opacity="0.3" d="M796 0H738.452V938H796V0Z" fill="url(#paint9_linear_7_3734)"/>
<path opacity="0.3" d="M881.185 108.336H823.636V937.61H881.185V108.336Z" fill="url(#paint10_linear_7_3734)"/>
<path opacity="0.3" d="M966.045 407.622H908.496V937.61H966.045V407.622Z" fill="url(#paint11_linear_7_3734)"/>
<path opacity="0.3" d="M1051.23 806.672H993.681V938H1051.23V806.672Z" fill="url(#paint12_linear_7_3734)"/>
<path opacity="0.3" d="M1136.09 672.616H1078.54V937.609H1136.09V672.616Z" fill="url(#paint13_linear_7_3734)"/>
<path opacity="0.3" d="M1221.27 430.614H1163.73V937.61H1221.27V430.614Z" fill="url(#paint14_linear_7_3734)"/>
<path opacity="0.3" d="M1306.13 132.107H1248.59V937.61H1306.13V132.107Z" fill="url(#paint15_linear_7_3734)"/>
<path opacity="0.3" d="M1391.32 383.851H1333.77V938H1391.32V383.851Z" fill="url(#paint16_linear_7_3734)"/>
<path opacity="0.3" d="M1476.18 479.326H1418.63V937.999H1476.18V479.326Z" fill="url(#paint17_linear_7_3734)"/>
<path opacity="0.3" d="M1561.36 325.397H1503.81V938H1561.36V325.397Z" fill="url(#paint18_linear_7_3734)"/>
<path opacity="0.3" d="M1646.22 591.949H1588.67V937.61H1646.22V591.949Z" fill="url(#paint19_linear_7_3734)"/>
<path opacity="0.3" d="M1731.41 734.188H1673.86V937.61H1731.41V734.188Z" fill="url(#paint20_linear_7_3734)"/>
<path opacity="0.3" d="M1816.27 453.217H1758.72V938H1816.27V453.217Z" fill="url(#paint21_linear_7_3734)"/>
<path opacity="0.3" d="M1901.45 162.504H1843.9V937.61H1901.45V162.504Z" fill="url(#paint22_linear_7_3734)"/>
</g>
<g opacity="0.8">
<path opacity="0.8" d="M25.7603 416.975H-9.02893V937.61H25.7603V416.975Z" fill="url(#paint23_linear_7_3734)"/>
<path opacity="0.8" d="M77.1314 612.213H42.3422V937.61H77.1314V612.213Z" fill="url(#paint24_linear_7_3734)"/>
<path opacity="0.8" d="M128.177 817.584H93.3877V937.61H128.177V817.584Z" fill="url(#paint25_linear_7_3734)"/>
<path opacity="0.8" d="M179.223 516.348H144.434V938H179.223V516.348Z" fill="url(#paint26_linear_7_3734)"/>
<path opacity="0.8" d="M230.594 693.66H195.805V937.61H230.594V693.66Z" fill="url(#paint27_linear_7_3734)"/>
<path opacity="0.8" d="M281.64 570.906H246.851V938H281.64V570.906Z" fill="url(#paint28_linear_7_3734)"/>
<path opacity="0.8" d="M332.686 715.093H297.896V938H332.686V715.093Z" fill="url(#paint29_linear_7_3734)"/>
<path opacity="0.8" d="M384.057 594.287H349.268V938H384.057V594.287Z" fill="url(#paint30_linear_7_3734)"/>
<path opacity="0.8" d="M435.103 534.664H400.313V938H435.103V534.664Z" fill="url(#paint31_linear_7_3734)"/>
<path opacity="0.8" d="M486.149 416.975H451.359V937.61H486.149V416.975Z" fill="url(#paint32_linear_7_3734)"/>
<path opacity="0.8" d="M537.194 468.026H502.405V937.61H537.194V468.026Z" fill="url(#paint33_linear_7_3734)"/>
<path opacity="0.8" d="M588.566 559.215H553.776V938H588.566V559.215Z" fill="url(#paint34_linear_7_3734)"/>
<path opacity="0.8" d="M639.611 670.668H604.822V937.61H639.611V670.668Z" fill="url(#paint35_linear_7_3734)"/>
<path opacity="0.8" d="M690.657 760.298H655.868V937.61H690.657V760.298Z" fill="url(#paint36_linear_7_3734)"/>
<path opacity="0.8" d="M742.028 652.742H707.239V938H742.028V652.742Z" fill="url(#paint37_linear_7_3734)"/>
<path opacity="0.8" d="M793.074 376.057H758.285V938H793.074V376.057Z" fill="url(#paint38_linear_7_3734)"/>
<path opacity="0.8" d="M844.12 440.747H809.33V937.611H844.12V440.747Z" fill="url(#paint39_linear_7_3734)"/>
<path opacity="0.8" d="M895.491 620.007H860.702V937.61H895.491V620.007Z" fill="url(#paint40_linear_7_3734)"/>
<path opacity="0.8" d="M946.537 859.281H911.747V938H946.537V859.281Z" fill="url(#paint41_linear_7_3734)"/>
<path opacity="0.8" d="M997.582 779.004H962.793V937.61H997.582V779.004Z" fill="url(#paint42_linear_7_3734)"/>
<path opacity="0.8" d="M1048.63 634.037H1013.84V938H1048.63V634.037Z" fill="url(#paint43_linear_7_3734)"/>
<path opacity="0.8" d="M1100 455.166H1065.21V937.61H1100V455.166Z" fill="url(#paint44_linear_7_3734)"/>
<path opacity="0.8" d="M1151.05 605.978H1116.26V938H1151.05V605.978Z" fill="url(#paint45_linear_7_3734)"/>
<path opacity="0.8" d="M1202.09 662.874H1167.3V937.61H1202.09V662.874Z" fill="url(#paint46_linear_7_3734)"/>
<path opacity="0.8" d="M1253.46 570.906H1218.67V938H1253.46V570.906Z" fill="url(#paint47_linear_7_3734)"/>
<path opacity="0.8" d="M1304.51 730.681H1269.72V938H1304.51V730.681Z" fill="url(#paint48_linear_7_3734)"/>
<path opacity="0.8" d="M1355.55 815.635H1320.76V937.61H1355.55V815.635Z" fill="url(#paint49_linear_7_3734)"/>
<path opacity="0.8" d="M1406.92 647.286H1372.14V937.61H1406.92V647.286Z" fill="url(#paint50_linear_7_3734)"/>
<path opacity="0.8" d="M1457.97 473.482H1423.18V938H1457.97V473.482Z" fill="url(#paint51_linear_7_3734)"/>
<path opacity="0.8" d="M1509.02 748.607H1474.23V938H1509.02V748.607Z" fill="url(#paint52_linear_7_3734)"/>
<path opacity="0.8" d="M1560.39 662.874H1525.6V937.61H1560.39V662.874Z" fill="url(#paint53_linear_7_3734)"/>
<path opacity="0.8" d="M1611.43 598.184H1576.64V938H1611.43V598.184Z" fill="url(#paint54_linear_7_3734)"/>
<path opacity="0.8" d="M1662.48 416.975H1627.69V937.61H1662.48V416.975Z" fill="url(#paint55_linear_7_3734)"/>
<path opacity="0.8" d="M1713.52 670.668H1678.74V937.61H1713.52V670.668Z" fill="url(#paint56_linear_7_3734)"/>
<path opacity="0.8" d="M1764.9 582.597H1730.11V938H1764.9V582.597Z" fill="url(#paint57_linear_7_3734)"/>
<path opacity="0.8" d="M1815.94 792.643H1781.15V937.61H1815.94V792.643Z" fill="url(#paint58_linear_7_3734)"/>
<path opacity="0.8" d="M1866.99 716.652H1832.2V937.61H1866.99V716.652Z" fill="url(#paint59_linear_7_3734)"/>
<path opacity="0.8" d="M1918.36 614.941H1883.57V937.61H1918.36V614.941Z" fill="url(#paint60_linear_7_3734)"/>
</g>
</g>
</mask>
<g mask="url(#mask0_7_3734)">
<rect x="3.82129" y="139" width="2245" height="1221" fill="url(#paint61_linear_7_3734)"/>
</g>
</g>
<defs>
<linearGradient id="paint0_linear_7_3734" x1="2.03088" y1="4.27774" x2="2.03088" y2="973.441" gradientUnits="userSpaceOnUse">
<stop stop-color="white"/>
<stop offset="1" stop-color="white" stop-opacity="0.2"/>
</linearGradient>
<linearGradient id="paint1_linear_7_3734" x1="87.0607" y1="4.27628" x2="87.0607" y2="973.443" gradientUnits="userSpaceOnUse">
<stop stop-color="white"/>
<stop offset="1" stop-color="white" stop-opacity="0.2"/>
</linearGradient>
<linearGradient id="paint2_linear_7_3734" x1="172.091" y1="4.2734" x2="172.091" y2="973.443" gradientUnits="userSpaceOnUse">
<stop stop-color="white"/>
<stop offset="1" stop-color="white" stop-opacity="0.2"/>
</linearGradient>
<linearGradient id="paint3_linear_7_3734" x1="257.12" y1="4.27489" x2="257.12" y2="973.441" gradientUnits="userSpaceOnUse">
<stop stop-color="white"/>
<stop offset="1" stop-color="white" stop-opacity="0.2"/>
</linearGradient>
<linearGradient id="paint4_linear_7_3734" x1="342.15" y1="4.27546" x2="342.15" y2="973.446" gradientUnits="userSpaceOnUse">
<stop stop-color="white"/>
<stop offset="1" stop-color="white" stop-opacity="0.2"/>
</linearGradient>
<linearGradient id="paint5_linear_7_3734" x1="427.18" y1="4.28301" x2="427.18" y2="973.443" gradientUnits="userSpaceOnUse">
<stop stop-color="white"/>
<stop offset="1" stop-color="white" stop-opacity="0.2"/>
</linearGradient>
<linearGradient id="paint6_linear_7_3734" x1="512.21" y1="4.27847" x2="512.21" y2="973.448" gradientUnits="userSpaceOnUse">
<stop stop-color="white"/>
<stop offset="1" stop-color="white" stop-opacity="0.2"/>
</linearGradient>
<linearGradient id="paint7_linear_7_3734" x1="597.237" y1="4.27716" x2="597.237" y2="973.45" gradientUnits="userSpaceOnUse">
<stop stop-color="white"/>
<stop offset="1" stop-color="white" stop-opacity="0.2"/>
</linearGradient>
<linearGradient id="paint8_linear_7_3734" x1="682.27" y1="4.28379" x2="682.27" y2="973.45" gradientUnits="userSpaceOnUse">
<stop stop-color="white"/>
<stop offset="1" stop-color="white" stop-opacity="0.2"/>
</linearGradient>
<linearGradient id="paint9_linear_7_3734" x1="767.3" y1="4.28238" x2="767.3" y2="973.449" gradientUnits="userSpaceOnUse">
<stop stop-color="white"/>
<stop offset="1" stop-color="white" stop-opacity="0.2"/>
</linearGradient>
<linearGradient id="paint10_linear_7_3734" x1="852.332" y1="4.28007" x2="852.332" y2="973.448" gradientUnits="userSpaceOnUse">
<stop stop-color="white"/>
<stop offset="1" stop-color="white" stop-opacity="0.2"/>
</linearGradient>
<linearGradient id="paint11_linear_7_3734" x1="937.359" y1="4.27944" x2="937.359" y2="973.449" gradientUnits="userSpaceOnUse">
<stop stop-color="white"/>
<stop offset="1" stop-color="white" stop-opacity="0.2"/>
</linearGradient>
<linearGradient id="paint12_linear_7_3734" x1="1022.39" y1="4.29767" x2="1022.39" y2="973.448" gradientUnits="userSpaceOnUse">
<stop stop-color="white"/>
<stop offset="1" stop-color="white" stop-opacity="0.2"/>
</linearGradient>
<linearGradient id="paint13_linear_7_3734" x1="1107.42" y1="4.28995" x2="1107.42" y2="973.448" gradientUnits="userSpaceOnUse">
<stop stop-color="white"/>
<stop offset="1" stop-color="white" stop-opacity="0.2"/>
</linearGradient>
<linearGradient id="paint14_linear_7_3734" x1="1192.45" y1="4.28384" x2="1192.45" y2="973.447" gradientUnits="userSpaceOnUse">
<stop stop-color="white"/>
<stop offset="1" stop-color="white" stop-opacity="0.2"/>
</linearGradient>
<linearGradient id="paint15_linear_7_3734" x1="1277.48" y1="4.27936" x2="1277.48" y2="973.453" gradientUnits="userSpaceOnUse">
<stop stop-color="white"/>
<stop offset="1" stop-color="white" stop-opacity="0.2"/>
</linearGradient>
<linearGradient id="paint16_linear_7_3734" x1="1362.51" y1="4.28191" x2="1362.51" y2="973.448" gradientUnits="userSpaceOnUse">
<stop stop-color="white"/>
<stop offset="1" stop-color="white" stop-opacity="0.2"/>
</linearGradient>
<linearGradient id="paint17_linear_7_3734" x1="1447.54" y1="4.28499" x2="1447.54" y2="973.449" gradientUnits="userSpaceOnUse">
<stop stop-color="white"/>
<stop offset="1" stop-color="white" stop-opacity="0.2"/>
</linearGradient>
<linearGradient id="paint18_linear_7_3734" x1="1532.56" y1="4.2789" x2="1532.56" y2="973.45" gradientUnits="userSpaceOnUse">
<stop stop-color="white"/>
<stop offset="1" stop-color="white" stop-opacity="0.2"/>
</linearGradient>
<linearGradient id="paint19_linear_7_3734" x1="1617.6" y1="4.28665" x2="1617.6" y2="973.448" gradientUnits="userSpaceOnUse">
<stop stop-color="white"/>
<stop offset="1" stop-color="white" stop-opacity="0.2"/>
</linearGradient>
<linearGradient id="paint20_linear_7_3734" x1="1702.63" y1="4.29298" x2="1702.63" y2="973.448" gradientUnits="userSpaceOnUse">
<stop stop-color="white"/>
<stop offset="1" stop-color="white" stop-opacity="0.2"/>
</linearGradient>
<linearGradient id="paint21_linear_7_3734" x1="1787.66" y1="4.2809" x2="1787.66" y2="973.484" gradientUnits="userSpaceOnUse">
<stop stop-color="white"/>
<stop offset="1" stop-color="white" stop-opacity="0.2"/>
</linearGradient>
<linearGradient id="paint22_linear_7_3734" x1="1872.69" y1="4.27905" x2="1872.69" y2="973.451" gradientUnits="userSpaceOnUse">
<stop stop-color="white"/>
<stop offset="1" stop-color="white" stop-opacity="0.2"/>
</linearGradient>
<linearGradient id="paint23_linear_7_3734" x1="8.43657" y1="378.558" x2="8.43657" y2="959.13" gradientUnits="userSpaceOnUse">
<stop stop-color="white"/>
<stop offset="1" stop-color="white" stop-opacity="0.2"/>
</linearGradient>
<linearGradient id="paint24_linear_7_3734" x1="59.5814" y1="378.558" x2="59.5814" y2="959.131" gradientUnits="userSpaceOnUse">
<stop stop-color="white"/>
<stop offset="1" stop-color="white" stop-opacity="0.2"/>
</linearGradient>
<linearGradient id="paint25_linear_7_3734" x1="110.726" y1="378.558" x2="110.726" y2="959.131" gradientUnits="userSpaceOnUse">
<stop stop-color="white"/>
<stop offset="1" stop-color="white" stop-opacity="0.2"/>
</linearGradient>
<linearGradient id="paint26_linear_7_3734" x1="161.872" y1="378.558" x2="161.872" y2="959.131" gradientUnits="userSpaceOnUse">
<stop stop-color="white"/>
<stop offset="1" stop-color="white" stop-opacity="0.2"/>
</linearGradient>
<linearGradient id="paint27_linear_7_3734" x1="213.017" y1="378.557" x2="213.017" y2="959.129" gradientUnits="userSpaceOnUse">
<stop stop-color="white"/>
<stop offset="1" stop-color="white" stop-opacity="0.2"/>
</linearGradient>
<linearGradient id="paint28_linear_7_3734" x1="264.161" y1="378.558" x2="264.161" y2="959.132" gradientUnits="userSpaceOnUse">
<stop stop-color="white"/>
<stop offset="1" stop-color="white" stop-opacity="0.2"/>
</linearGradient>
<linearGradient id="paint29_linear_7_3734" x1="315.308" y1="378.556" x2="315.308" y2="959.131" gradientUnits="userSpaceOnUse">
<stop stop-color="white"/>
<stop offset="1" stop-color="white" stop-opacity="0.2"/>
</linearGradient>
<linearGradient id="paint30_linear_7_3734" x1="366.452" y1="378.558" x2="366.452" y2="959.131" gradientUnits="userSpaceOnUse">
<stop stop-color="white"/>
<stop offset="1" stop-color="white" stop-opacity="0.2"/>
</linearGradient>
<linearGradient id="paint31_linear_7_3734" x1="417.598" y1="378.558" x2="417.598" y2="959.131" gradientUnits="userSpaceOnUse">
<stop stop-color="white"/>
<stop offset="1" stop-color="white" stop-opacity="0.2"/>
</linearGradient>
<linearGradient id="paint32_linear_7_3734" x1="468.743" y1="378.558" x2="468.743" y2="959.13" gradientUnits="userSpaceOnUse">
<stop stop-color="white"/>
<stop offset="1" stop-color="white" stop-opacity="0.2"/>
</linearGradient>
<linearGradient id="paint33_linear_7_3734" x1="519.886" y1="378.558" x2="519.886" y2="959.133" gradientUnits="userSpaceOnUse">
<stop stop-color="white"/>
<stop offset="1" stop-color="white" stop-opacity="0.2"/>
</linearGradient>
<linearGradient id="paint34_linear_7_3734" x1="571.032" y1="378.564" x2="571.032" y2="959.131" gradientUnits="userSpaceOnUse">
<stop stop-color="white"/>
<stop offset="1" stop-color="white" stop-opacity="0.2"/>
</linearGradient>
<linearGradient id="paint35_linear_7_3734" x1="622.177" y1="378.562" x2="622.177" y2="959.135" gradientUnits="userSpaceOnUse">
<stop stop-color="white"/>
<stop offset="1" stop-color="white" stop-opacity="0.2"/>
</linearGradient>
<linearGradient id="paint36_linear_7_3734" x1="673.322" y1="378.562" x2="673.322" y2="959.135" gradientUnits="userSpaceOnUse">
<stop stop-color="white"/>
<stop offset="1" stop-color="white" stop-opacity="0.2"/>
</linearGradient>
<linearGradient id="paint37_linear_7_3734" x1="724.467" y1="378.562" x2="724.467" y2="959.136" gradientUnits="userSpaceOnUse">
<stop stop-color="white"/>
<stop offset="1" stop-color="white" stop-opacity="0.2"/>
</linearGradient>
<linearGradient id="paint38_linear_7_3734" x1="775.612" y1="378.561" x2="775.612" y2="959.135" gradientUnits="userSpaceOnUse">
<stop stop-color="white"/>
<stop offset="1" stop-color="white" stop-opacity="0.2"/>
</linearGradient>
<linearGradient id="paint39_linear_7_3734" x1="826.757" y1="378.562" x2="826.757" y2="959.135" gradientUnits="userSpaceOnUse">
<stop stop-color="white"/>
<stop offset="1" stop-color="white" stop-opacity="0.2"/>
</linearGradient>
<linearGradient id="paint40_linear_7_3734" x1="877.902" y1="378.561" x2="877.902" y2="959.135" gradientUnits="userSpaceOnUse">
<stop stop-color="white"/>
<stop offset="1" stop-color="white" stop-opacity="0.2"/>
</linearGradient>
<linearGradient id="paint41_linear_7_3734" x1="929.047" y1="378.563" x2="929.047" y2="959.135" gradientUnits="userSpaceOnUse">
<stop stop-color="white"/>
<stop offset="1" stop-color="white" stop-opacity="0.2"/>
</linearGradient>
<linearGradient id="paint42_linear_7_3734" x1="980.192" y1="378.562" x2="980.192" y2="959.135" gradientUnits="userSpaceOnUse">
<stop stop-color="white"/>
<stop offset="1" stop-color="white" stop-opacity="0.2"/>
</linearGradient>
<linearGradient id="paint43_linear_7_3734" x1="1031.34" y1="378.561" x2="1031.34" y2="959.134" gradientUnits="userSpaceOnUse">
<stop stop-color="white"/>
<stop offset="1" stop-color="white" stop-opacity="0.2"/>
</linearGradient>
<linearGradient id="paint44_linear_7_3734" x1="1082.48" y1="378.562" x2="1082.48" y2="959.137" gradientUnits="userSpaceOnUse">
<stop stop-color="white"/>
<stop offset="1" stop-color="white" stop-opacity="0.2"/>
</linearGradient>
<linearGradient id="paint45_linear_7_3734" x1="1133.63" y1="378.561" x2="1133.63" y2="959.135" gradientUnits="userSpaceOnUse">
<stop stop-color="white"/>
<stop offset="1" stop-color="white" stop-opacity="0.2"/>
</linearGradient>
<linearGradient id="paint46_linear_7_3734" x1="1184.77" y1="378.563" x2="1184.77" y2="959.136" gradientUnits="userSpaceOnUse">
<stop stop-color="white"/>
<stop offset="1" stop-color="white" stop-opacity="0.2"/>
</linearGradient>
<linearGradient id="paint47_linear_7_3734" x1="1235.92" y1="378.562" x2="1235.92" y2="959.136" gradientUnits="userSpaceOnUse">
<stop stop-color="white"/>
<stop offset="1" stop-color="white" stop-opacity="0.2"/>
</linearGradient>
<linearGradient id="paint48_linear_7_3734" x1="1287.06" y1="378.562" x2="1287.06" y2="959.135" gradientUnits="userSpaceOnUse">
<stop stop-color="white"/>
<stop offset="1" stop-color="white" stop-opacity="0.2"/>
</linearGradient>
<linearGradient id="paint49_linear_7_3734" x1="1338.21" y1="378.562" x2="1338.21" y2="959.135" gradientUnits="userSpaceOnUse">
<stop stop-color="white"/>
<stop offset="1" stop-color="white" stop-opacity="0.2"/>
</linearGradient>
<linearGradient id="paint50_linear_7_3734" x1="1389.35" y1="378.562" x2="1389.35" y2="959.156" gradientUnits="userSpaceOnUse">
<stop stop-color="white"/>
<stop offset="1" stop-color="white" stop-opacity="0.2"/>
</linearGradient>
<linearGradient id="paint51_linear_7_3734" x1="1440.5" y1="378.562" x2="1440.5" y2="959.136" gradientUnits="userSpaceOnUse">
<stop stop-color="white"/>
<stop offset="1" stop-color="white" stop-opacity="0.2"/>
</linearGradient>
<linearGradient id="paint52_linear_7_3734" x1="1491.64" y1="378.561" x2="1491.64" y2="959.134" gradientUnits="userSpaceOnUse">
<stop stop-color="white"/>
<stop offset="1" stop-color="white" stop-opacity="0.2"/>
</linearGradient>
<linearGradient id="paint53_linear_7_3734" x1="1542.79" y1="378.563" x2="1542.79" y2="959.136" gradientUnits="userSpaceOnUse">
<stop stop-color="white"/>
<stop offset="1" stop-color="white" stop-opacity="0.2"/>
</linearGradient>
<linearGradient id="paint54_linear_7_3734" x1="1593.93" y1="378.562" x2="1593.93" y2="959.136" gradientUnits="userSpaceOnUse">
<stop stop-color="white"/>
<stop offset="1" stop-color="white" stop-opacity="0.2"/>
</linearGradient>
<linearGradient id="paint55_linear_7_3734" x1="1645.08" y1="378.562" x2="1645.08" y2="959.134" gradientUnits="userSpaceOnUse">
<stop stop-color="white"/>
<stop offset="1" stop-color="white" stop-opacity="0.2"/>
</linearGradient>
<linearGradient id="paint56_linear_7_3734" x1="1696.22" y1="378.562" x2="1696.22" y2="959.135" gradientUnits="userSpaceOnUse">
<stop stop-color="white"/>
<stop offset="1" stop-color="white" stop-opacity="0.2"/>
</linearGradient>
<linearGradient id="paint57_linear_7_3734" x1="1747.37" y1="378.562" x2="1747.37" y2="959.136" gradientUnits="userSpaceOnUse">
<stop stop-color="white"/>
<stop offset="1" stop-color="white" stop-opacity="0.2"/>
</linearGradient>
<linearGradient id="paint58_linear_7_3734" x1="1798.51" y1="378.562" x2="1798.51" y2="959.163" gradientUnits="userSpaceOnUse">
<stop stop-color="white"/>
<stop offset="1" stop-color="white" stop-opacity="0.2"/>
</linearGradient>
<linearGradient id="paint59_linear_7_3734" x1="1849.66" y1="378.562" x2="1849.66" y2="959.135" gradientUnits="userSpaceOnUse">
<stop stop-color="white"/>
<stop offset="1" stop-color="white" stop-opacity="0.2"/>
</linearGradient>
<linearGradient id="paint60_linear_7_3734" x1="1900.8" y1="378.562" x2="1900.8" y2="959.136" gradientUnits="userSpaceOnUse">
<stop stop-color="white"/>
<stop offset="1" stop-color="white" stop-opacity="0.2"/>
</linearGradient>
<linearGradient id="paint61_linear_7_3734" x1="2007.3" y1="186.428" x2="393.603" y2="734.014" gradientUnits="userSpaceOnUse">
<stop offset="0.162634" stop-color="#05253D"/>
<stop offset="0.275052" stop-color="#67BFFF"/>
<stop offset="0.438868" stop-color="#278BD3" stop-opacity="0.51"/>
<stop offset="0.585265" stop-color="#4085B7" stop-opacity="0.26"/>
<stop offset="1" stop-color="#787878" stop-opacity="0"/>
</linearGradient>
</defs>
</svg>
