<svg width="120" height="133" viewBox="0 0 120 133" fill="none" xmlns="http://www.w3.org/2000/svg">
<g id="Group 30">
<path id="Vector" d="M99.2718 68.7804C105.429 91.7612 91.5371 115.451 68.2423 121.693C53.8253 125.556 39.1857 121.83 28.6615 112.982" stroke="url(#paint0_linear_7_4385)" stroke-width="1.5" stroke-miterlimit="10"/>
<path id="Vector_2" d="M27.3651 113.1C28.8536 112.701 29.7094 111.217 29.3101 109.726C28.9108 108.236 27.4275 107.379 25.939 107.778C24.4505 108.176 23.5947 109.661 23.994 111.151C24.287 112.67 25.8766 113.499 27.3651 113.1Z" fill="#2C3D4C" stroke="url(#paint1_linear_7_4385)" stroke-miterlimit="10"/>
<path id="Vector_3" d="M13.3414 59.9536C19.5824 36.6621 43.4505 22.8205 66.6525 29.0374C81.012 32.885 91.751 43.514 96.3714 56.578" stroke="url(#paint2_linear_7_4385)" stroke-width="1.5" stroke-miterlimit="10"/>
<path id="Vector_4" d="M97.2526 51.9924C95.7641 51.5935 94.2808 52.4511 93.8815 53.9413C93.4822 55.4315 94.338 56.9158 95.8265 57.3146C97.315 57.7135 98.7982 56.856 99.1976 55.3657C99.7032 53.904 98.7411 52.3912 97.2526 51.9924Z" fill="#2C3D4C" stroke="url(#paint3_linear_7_4385)" stroke-miterlimit="10"/>
</g>
<defs>
<linearGradient id="paint0_linear_7_4385" x1="131.846" y1="62.6236" x2="75.3401" y2="148.413" gradientUnits="userSpaceOnUse">
<stop offset="0.303689" stop-color="#127056" stop-opacity="0"/>
<stop offset="0.529928" stop-color="#2EBB93" stop-opacity="0.62"/>
<stop offset="0.674376" stop-color="#31BD94"/>
<stop offset="0.89827" stop-color="#045A43"/>
</linearGradient>
<linearGradient id="paint1_linear_7_4385" x1="30.8884" y1="106.78" x2="24.3891" y2="112.365" gradientUnits="userSpaceOnUse">
<stop offset="0.303689" stop-color="#127056" stop-opacity="0"/>
<stop offset="0.529928" stop-color="#2EBB93" stop-opacity="0.62"/>
<stop offset="0.674376" stop-color="#31BD94"/>
<stop offset="0.89827" stop-color="#045A43"/>
</linearGradient>
<linearGradient id="paint2_linear_7_4385" x1="-17.8113" y1="49" x2="74.7484" y2="3.58809" gradientUnits="userSpaceOnUse">
<stop offset="0.303689" stop-color="#127056" stop-opacity="0"/>
<stop offset="0.529928" stop-color="#2EBB93" stop-opacity="0.62"/>
<stop offset="0.674376" stop-color="#31BD94"/>
<stop offset="0.89827" stop-color="#045A43"/>
</linearGradient>
<linearGradient id="paint3_linear_7_4385" x1="91.0416" y1="55.7036" x2="99.4627" y2="54.1164" gradientUnits="userSpaceOnUse">
<stop offset="0.303689" stop-color="#127056" stop-opacity="0"/>
<stop offset="0.529928" stop-color="#2EBB93" stop-opacity="0.62"/>
<stop offset="0.674376" stop-color="#31BD94"/>
<stop offset="0.89827" stop-color="#045A43"/>
</linearGradient>
</defs>
</svg>
