<svg width="198" height="130" viewBox="0 0 198 130" fill="none" xmlns="http://www.w3.org/2000/svg">
<path opacity="0.65" d="M64.5932 97.9594C92.69 95.9786 125.465 73.8446 137.798 48.5217C150.131 23.1987 137.352 4.27619 109.255 6.25698C81.1581 8.23776 48.3832 30.3718 36.0503 55.6947C23.7173 81.0176 36.4964 99.9402 64.5932 97.9594Z" fill="url(#paint0_radial_7_5516)"/>
<path d="M68.4821 89.9744C91.6858 88.3386 118.753 70.0592 128.938 49.1462C139.123 28.2333 128.57 12.6061 105.366 14.2419C82.1622 15.8778 55.0951 34.1572 44.9099 55.0701C34.7247 75.9831 45.2784 91.6102 68.4821 89.9744Z" fill="url(#paint1_radial_7_5516)"/>
<path d="M73.6861 81.8969C91.9968 80.606 113.356 66.1812 121.394 49.6783C129.431 33.1753 121.103 20.8435 102.792 22.1343C84.4814 23.4252 63.1221 37.85 55.0847 54.353C47.0473 70.8559 55.3754 83.1878 73.6861 81.8969Z" fill="url(#paint2_linear_7_5516)"/>
<path d="M70.9867 82.0871C89.2974 80.7962 110.657 66.3714 118.694 49.8685C126.732 33.3655 118.403 21.0336 100.093 22.3245C81.7821 23.6154 60.4227 38.0402 52.3853 54.5431C44.3478 71.0461 52.676 83.3779 70.9867 82.0871Z" fill="url(#paint3_linear_7_5516)"/>
<path d="M73.2957 77.3459C88.7012 76.2598 106.672 64.1237 113.434 50.2392C120.196 36.3546 113.189 25.9794 97.7837 27.0655C82.3783 28.1516 64.4078 40.2876 57.6457 54.1722C50.8835 68.0567 57.8903 78.4319 73.2957 77.3459Z" fill="url(#paint4_linear_7_5516)"/>
<path d="M96.5557 36.567L95.843 37.2623L82.3896 57.8361L82.5024 58.0582L97.5867 53.0455L96.5557 36.567Z" fill="white" fill-opacity="0.38"/>
<path d="M96.5557 36.5672L74.8005 51.7809L82.5024 58.0583L89.0323 48.0724L96.5557 36.5672Z" fill="white"/>
<path d="M81.3207 59.8655L81.0865 60.0012L76.2942 67.3299L76.21 67.6811L96.4101 54.8561L81.3207 59.8655Z" fill="#363636"/>
<path d="M76.21 67.6812L81.3207 59.8656L73.6169 53.5911L76.21 67.6812Z" fill="white"/>
<path d="M82.5018 58.0592L97.5861 53.0465L89.0317 48.0732L82.5018 58.0592Z" fill="#1D1D1D"/>
<path d="M74.8 51.7818L82.5019 58.0592L89.0318 48.0733L74.8 51.7818Z" fill="#363636"/>
<g filter="url(#filter0_d_7_5516)">
<path d="M127.845 68.0329L126.986 68.9932L111.443 96.735L111.609 97.0116L130.633 89.2082L127.845 68.0329Z" fill="white" fill-opacity="0.38"/>
<path d="M127.844 68.033L101.114 89.5915L111.609 97.0117L119.153 83.5466L127.844 68.033Z" fill="white"/>
<path d="M110.243 99.4485L109.953 99.6443L104.417 109.526L104.339 109.987L129.274 91.6489L110.243 99.4485Z" fill="#668FA1"/>
<path d="M104.339 109.987L110.243 99.4485L99.7462 92.0322L104.339 109.987Z" fill="white"/>
<path d="M111.608 97.0129L130.632 89.2095L119.152 83.5479L111.608 97.0129Z" fill="white"/>
<path d="M101.113 89.5928L111.608 97.013L119.152 83.5479L101.113 89.5928Z" fill="#658EA2"/>
</g>
<path d="M73.2957 77.3459C88.7012 76.2598 106.672 64.1237 113.434 50.2392C120.196 36.3546 113.189 25.9794 97.7837 27.0655C82.3783 28.1516 64.4078 40.2876 57.6457 54.1722C50.8835 68.0567 57.8903 78.4319 73.2957 77.3459Z" stroke="#363636" stroke-width="4" stroke-miterlimit="10"/>
<defs>
<filter id="filter0_d_7_5516" x="93.7462" y="66.033" width="42.8864" height="53.9541" filterUnits="userSpaceOnUse" color-interpolation-filters="sRGB">
<feFlood flood-opacity="0" result="BackgroundImageFix"/>
<feColorMatrix in="SourceAlpha" type="matrix" values="0 0 0 0 0 0 0 0 0 0 0 0 0 0 0 0 0 0 127 0" result="hardAlpha"/>
<feOffset dy="4"/>
<feGaussianBlur stdDeviation="3"/>
<feComposite in2="hardAlpha" operator="out"/>
<feColorMatrix type="matrix" values="0 0 0 0 1 0 0 0 0 1 0 0 0 0 1 0 0 0 0.37 0"/>
<feBlend mode="normal" in2="BackgroundImageFix" result="effect1_dropShadow_7_5516"/>
<feBlend mode="normal" in="SourceGraphic" in2="effect1_dropShadow_7_5516" result="shape"/>
</filter>
<radialGradient id="paint0_radial_7_5516" cx="0" cy="0" r="1" gradientUnits="userSpaceOnUse" gradientTransform="translate(86.9024 52.1005) rotate(-4.0326) scale(63.3716 54.8814)">
<stop/>
<stop offset="0.995" stop-opacity="0"/>
</radialGradient>
<radialGradient id="paint1_radial_7_5516" cx="0" cy="0" r="1" gradientUnits="userSpaceOnUse" gradientTransform="translate(86.9024 52.1005) rotate(-4.0326) scale(60.1213 52.0666)">
<stop/>
<stop offset="0.995" stop-color="#6D6D6D" stop-opacity="0"/>
</radialGradient>
<linearGradient id="paint2_linear_7_5516" x1="98.719" y1="51.2676" x2="144.862" y2="73.7406" gradientUnits="userSpaceOnUse">
<stop stop-color="#404040"/>
<stop offset="0.995" stop-color="#A3A3A3"/>
</linearGradient>
<linearGradient id="paint3_linear_7_5516" x1="99.4852" y1="72.8357" x2="70.5594" y2="30.004" gradientUnits="userSpaceOnUse">
<stop stop-color="#363636"/>
<stop offset="0.995" stop-color="#676767"/>
</linearGradient>
<linearGradient id="paint4_linear_7_5516" x1="75.4847" y1="40.8472" x2="97.3248" y2="70.3036" gradientUnits="userSpaceOnUse">
<stop stop-color="#747474"/>
<stop offset="0.995" stop-color="#606060"/>
</linearGradient>
</defs>
</svg>
