<svg width="212" height="134" viewBox="0 0 212 134" fill="none" xmlns="http://www.w3.org/2000/svg">
<path opacity="0.65" d="M65.7985 98.8539C93.8953 96.8732 126.67 74.7391 139.003 49.4162C151.336 24.0933 138.557 5.17073 110.46 7.15151C82.3634 9.13229 49.5886 31.2663 37.2556 56.5893C24.9226 81.9122 37.7017 100.835 65.7985 98.8539Z" fill="url(#paint0_radial_7_5547)"/>
<path d="M69.6874 90.8689C92.8912 89.2331 119.958 70.9537 130.143 50.0408C140.329 29.1278 129.775 13.5006 106.571 15.1365C83.3675 16.7723 56.3005 35.0517 46.1153 55.9646C35.9301 76.8776 46.4837 92.5048 69.6874 90.8689Z" fill="url(#paint1_radial_7_5547)"/>
<path d="M74.8914 82.7914C93.2021 81.5005 114.561 67.0758 122.599 50.5728C130.636 34.0698 122.308 21.738 103.997 23.0289C85.6867 24.3197 64.3274 38.7445 56.29 55.2475C48.2526 71.7505 56.5807 84.0823 74.8914 82.7914Z" fill="url(#paint2_linear_7_5547)"/>
<path d="M72.192 82.9816C90.5027 81.6907 111.862 67.266 119.899 50.763C127.937 34.26 119.609 21.9282 101.298 23.2191C82.9874 24.5099 61.628 38.9347 53.5906 55.4377C45.5532 71.9406 53.8813 84.2725 72.192 82.9816Z" fill="url(#paint3_linear_7_5547)"/>
<path d="M74.5011 78.2404C89.9065 77.1543 107.877 65.0183 114.639 51.1337C121.401 37.2492 114.394 26.874 98.989 27.96C83.5836 29.0461 65.6132 41.1822 58.851 55.0667C52.0888 68.9512 59.0956 79.3265 74.5011 78.2404Z" fill="url(#paint4_linear_7_5547)"/>
<g filter="url(#filter0_d_7_5547)">
<path d="M97.2365 49.96C96.8699 49.6445 96.158 49.5693 95.3381 49.7597L89.3655 51.4139L85.3778 52.4468L79.4844 54.1093C78.7436 54.308 78.0317 54.2329 77.5859 53.909L75.4003 51.8785C75.0336 51.563 75.0122 51.0069 75.433 50.4283L77.7708 47.2138C78.1449 46.6995 78.8353 46.2186 79.7019 45.9639L84.2722 44.7156C85.0129 44.5168 85.7248 44.5919 86.1706 44.9159L88.3562 46.9463C88.7229 47.2619 88.7443 47.8179 88.3235 48.3965L86.7805 50.5181L90.815 49.4209L92.4047 47.2351C92.7788 46.7207 92.8364 46.173 92.4374 45.7848L88.307 42.0955C87.9403 41.7799 87.2284 41.7048 86.4086 41.8952L77.678 44.2967C76.8582 44.487 76.1677 44.968 75.7937 45.4823L71.3985 51.5255C71.0245 52.0398 70.9668 52.5875 71.3659 52.9757L75.5754 56.6734C75.9421 56.989 76.654 57.0641 77.4738 56.8737L83.3205 55.2755L87.355 54.1783L93.2017 52.5801C93.9425 52.3814 94.6544 52.4565 95.1001 52.7804L97.3325 54.7466C97.6992 55.0622 97.7207 55.6182 97.2999 56.1968L94.962 59.4113C94.588 59.9256 93.8975 60.4065 93.0309 60.6612L88.5398 61.9179C87.7991 62.1166 87.0872 62.0415 86.6414 61.7176L84.409 59.7514C84.0423 59.4359 84.0209 58.8798 84.4417 58.3012L85.9379 56.2439L81.9034 57.3411L80.3605 59.4627C79.9864 59.977 79.9288 60.5247 80.3278 60.9129L84.5373 64.6106C84.904 64.9262 85.6159 65.0013 86.4357 64.8109L95.0404 62.4654C95.7812 62.2667 96.5507 61.7941 96.9715 61.2155L101.413 55.108C101.787 54.5936 101.845 54.0459 101.446 53.6577L97.2365 49.96Z" fill="white"/>
</g>
<g filter="url(#filter1_d_7_5547)">
<path d="M139.504 88.4975C138.985 88.0515 137.979 87.9453 136.82 88.2144L128.379 90.5524L122.742 92.0123L114.412 94.3621C113.366 94.643 112.359 94.5368 111.729 94.079L108.64 91.2092C108.122 90.7631 108.091 89.9772 108.686 89.1594L111.991 84.616C112.519 83.8891 113.495 83.2093 114.72 82.8494L121.18 81.0849C122.227 80.804 123.233 80.9102 123.863 81.3681L126.952 84.2379C127.47 84.6839 127.501 85.4699 126.906 86.2877L124.725 89.2863L130.427 87.7355L132.674 84.646C133.203 83.9191 133.284 83.1449 132.72 82.5962L126.882 77.3817C126.364 76.9356 125.358 76.8295 124.199 77.0986L111.859 80.4928C110.701 80.7619 109.725 81.4417 109.196 82.1686L102.984 90.7102C102.455 91.4371 102.374 92.2112 102.938 92.76L108.888 97.9863C109.406 98.4323 110.412 98.5385 111.571 98.2694L119.835 96.0105L125.537 94.4597L133.801 92.2008C134.848 91.9199 135.854 92.0261 136.484 92.4839L139.639 95.2629C140.158 95.7089 140.188 96.4948 139.593 97.3127L136.289 101.856C135.76 102.583 134.784 103.263 133.559 103.623L127.212 105.399C126.165 105.68 125.158 105.574 124.528 105.116L121.373 102.337C120.855 101.891 120.824 101.105 121.419 100.287L123.534 97.3793L117.832 98.9301L115.651 101.929C115.122 102.656 115.041 103.43 115.605 103.978L121.554 109.205C122.073 109.651 123.079 109.757 124.238 109.488L136.4 106.173C137.447 105.892 138.534 105.224 139.129 104.406L145.407 95.7737C145.936 95.0467 146.017 94.2726 145.453 93.7239L139.504 88.4975Z" fill="white"/>
</g>
<path d="M74.5011 78.2404C89.9065 77.1543 107.877 65.0183 114.639 51.1337C121.401 37.2492 114.394 26.874 98.989 27.96C83.5836 29.0461 65.6132 41.1822 58.851 55.0667C52.0888 68.9512 59.0956 79.3265 74.5011 78.2404Z" stroke="#C9ABEF" stroke-width="4" stroke-miterlimit="10"/>
<defs>
<filter id="filter0_d_7_5547" x="62.0913" y="36.7915" width="48.6293" height="41.123" filterUnits="userSpaceOnUse" color-interpolation-filters="sRGB">
<feFlood flood-opacity="0" result="BackgroundImageFix"/>
<feColorMatrix in="SourceAlpha" type="matrix" values="0 0 0 0 0 0 0 0 0 0 0 0 0 0 0 0 0 0 127 0" result="hardAlpha"/>
<feOffset dy="4"/>
<feGaussianBlur stdDeviation="4.5"/>
<feComposite in2="hardAlpha" operator="out"/>
<feColorMatrix type="matrix" values="0 0 0 0 1 0 0 0 0 1 0 0 0 0 1 0 0 0 1 0"/>
<feBlend mode="normal" in2="BackgroundImageFix" result="effect1_dropShadow_7_5547"/>
<feBlend mode="normal" in="SourceGraphic" in2="effect1_dropShadow_7_5547" result="shape"/>
</filter>
<filter id="filter1_d_7_5547" x="93.5497" y="71.9521" width="61.2918" height="50.6821" filterUnits="userSpaceOnUse" color-interpolation-filters="sRGB">
<feFlood flood-opacity="0" result="BackgroundImageFix"/>
<feColorMatrix in="SourceAlpha" type="matrix" values="0 0 0 0 0 0 0 0 0 0 0 0 0 0 0 0 0 0 127 0" result="hardAlpha"/>
<feOffset dy="4"/>
<feGaussianBlur stdDeviation="4.5"/>
<feComposite in2="hardAlpha" operator="out"/>
<feColorMatrix type="matrix" values="0 0 0 0 1 0 0 0 0 1 0 0 0 0 1 0 0 0 1 0"/>
<feBlend mode="normal" in2="BackgroundImageFix" result="effect1_dropShadow_7_5547"/>
<feBlend mode="normal" in="SourceGraphic" in2="effect1_dropShadow_7_5547" result="shape"/>
</filter>
<radialGradient id="paint0_radial_7_5547" cx="0" cy="0" r="1" gradientUnits="userSpaceOnUse" gradientTransform="translate(88.1077 52.995) rotate(-4.0326) scale(63.3716 54.8814)">
<stop stop-color="#8247E5"/>
<stop offset="0.995" stop-color="#8247E5" stop-opacity="0"/>
</radialGradient>
<radialGradient id="paint1_radial_7_5547" cx="0" cy="0" r="1" gradientUnits="userSpaceOnUse" gradientTransform="translate(88.1078 52.995) rotate(-4.0326) scale(60.1213 52.0666)">
<stop stop-color="#CF75D7"/>
<stop offset="0.995" stop-color="#CD73D7" stop-opacity="0"/>
</radialGradient>
<linearGradient id="paint2_linear_7_5547" x1="99.9243" y1="52.1621" x2="146.067" y2="74.6351" gradientUnits="userSpaceOnUse">
<stop stop-color="#9766E8"/>
<stop offset="0.995" stop-color="#AD50D0"/>
</linearGradient>
<linearGradient id="paint3_linear_7_5547" x1="100.691" y1="73.7302" x2="71.7647" y2="30.8986" gradientUnits="userSpaceOnUse">
<stop stop-color="#8247E5"/>
<stop offset="0.995" stop-color="#C4ACEE"/>
</linearGradient>
<linearGradient id="paint4_linear_7_5547" x1="76.69" y1="41.7417" x2="98.5301" y2="71.1981" gradientUnits="userSpaceOnUse">
<stop stop-color="#8247E5"/>
<stop offset="0.995" stop-color="#A987E0"/>
</linearGradient>
</defs>
</svg>
