<svg width="690" height="525" viewBox="0 0 690 525" fill="none" xmlns="http://www.w3.org/2000/svg">
<g opacity="0.47" filter="url(#filter0_f_337_18)">
<circle cx="339" cy="237" r="137" fill="url(#paint0_radial_337_18)"/>
</g>
<path d="M258.243 158.243C275.916 140.571 298.928 129.225 323.708 125.968L328.146 159.728C310.8 162.008 294.691 169.949 282.32 182.32L258.243 158.243Z" fill="url(#paint1_linear_337_18)"/>
<path d="M228.867 267.876C223.711 248.631 223.711 228.369 228.867 209.124C234.024 189.88 244.155 172.331 258.243 158.243L282.32 182.32C272.459 192.182 265.367 204.466 261.757 217.937C258.148 231.408 258.148 245.592 261.757 259.063L228.867 267.876Z" fill="url(#paint2_linear_337_18)"/>
<path d="M281.75 336.794C255.681 321.743 236.658 296.952 228.867 267.876L261.757 259.063C267.211 279.417 280.527 296.77 298.775 307.306L281.75 336.794Z" fill="url(#paint3_linear_337_18)"/>
<path d="M367.876 348.133C353.479 351.99 338.463 352.974 323.685 351.029C308.908 349.083 294.658 344.246 281.75 336.794L298.775 307.306C307.811 312.522 317.785 315.908 328.13 317.27C338.474 318.632 348.985 317.943 359.063 315.243L367.876 348.133Z" fill="url(#paint4_linear_337_18)"/>
<path d="M418.757 318.757C404.669 332.845 387.12 342.976 367.876 348.133L359.063 315.243C372.534 311.633 384.818 304.541 394.68 294.68L418.757 318.757Z" fill="url(#paint5_linear_337_18)"/>
<path d="M448.133 267.876C442.976 287.12 432.845 304.669 418.757 318.757L394.68 294.68C404.541 284.818 411.633 272.534 415.243 259.063L448.133 267.876Z" fill="url(#paint6_linear_337_18)"/>
<path d="M309.124 128.867C328.369 123.711 348.631 123.711 367.876 128.867C387.121 134.024 404.669 144.155 418.757 158.243C432.845 172.331 442.976 189.88 448.133 209.124C453.289 228.369 453.289 248.631 448.133 267.876L415.243 259.063C418.852 245.592 418.852 231.408 415.243 217.937C411.633 204.466 404.541 192.182 394.68 182.32C384.818 172.459 372.534 165.367 359.063 161.757C345.592 158.148 331.408 158.148 317.937 161.757L309.124 128.867Z" fill="url(#paint7_linear_337_18)"/>
<path opacity="0.32" d="M287.277 152.457C285.32 155.847 286.449 160.052 289.844 162.012C293.238 163.972 297.444 162.847 299.402 159.457C301.359 156.066 300.23 151.861 296.835 149.901C293.58 147.699 289.235 149.066 287.277 152.457Z" stroke="url(#paint8_linear_337_18)" stroke-width="0.5" stroke-miterlimit="10"/>
<path d="M291.383 154.801C290.683 156.012 291.087 157.514 292.299 158.214C293.511 158.914 295.013 158.512 295.713 157.301C296.412 156.09 296.009 154.589 294.796 153.889C293.634 153.102 292.082 153.59 291.383 154.801Z" fill="white"/>
<path d="M258 92.5L293.5 157" stroke="url(#paint9_linear_337_18)" stroke-miterlimit="10"/>
<path d="M207 345.922L261.715 296.66" stroke="url(#paint10_linear_337_18)" stroke-miterlimit="10"/>
<path opacity="0.32" d="M239.277 212.457C237.32 215.847 238.449 220.052 241.844 222.012C245.238 223.972 249.444 222.847 251.402 219.457C253.359 216.066 252.23 211.861 248.835 209.901C245.58 207.699 241.235 209.066 239.277 212.457Z" stroke="url(#paint11_linear_337_18)" stroke-width="0.5" stroke-miterlimit="10"/>
<path d="M243.383 214.801C242.683 216.012 243.087 217.514 244.299 218.214C245.511 218.914 247.013 218.512 247.713 217.301C248.412 216.09 248.009 214.589 246.796 213.889C245.634 213.102 244.082 213.59 243.383 214.801Z" fill="white"/>
<path d="M194 217H245.5" stroke="url(#paint12_linear_337_18)" stroke-miterlimit="10"/>
<path d="M259.009 296.471C258.747 295.097 259.621 293.812 260.996 293.549C262.371 293.286 263.658 294.158 263.92 295.532C264.183 296.905 263.309 298.191 261.934 298.454C260.578 298.815 259.272 297.844 259.009 296.471Z" fill="white"/>
<g filter="url(#filter1_d_337_18)">
<rect x="123" y="46" width="165" height="47" rx="23.5" fill="#102644"/>
<rect x="123.5" y="46.5" width="164" height="46" rx="23" stroke="url(#paint13_linear_337_18)"/>
</g>
<path d="M168.291 77V63.9091H170.663V75.0121H176.428V77H168.291ZM178.384 77V67.1818H180.698V77H178.384ZM179.548 65.7884C179.181 65.7884 178.866 65.6669 178.602 65.424C178.337 65.1768 178.205 64.8807 178.205 64.5355C178.205 64.1861 178.337 63.8899 178.602 63.647C178.866 63.3999 179.181 63.2763 179.548 63.2763C179.918 63.2763 180.234 63.3999 180.494 63.647C180.758 63.8899 180.89 64.1861 180.89 64.5355C180.89 64.8807 180.758 65.1768 180.494 65.424C180.234 65.6669 179.918 65.7884 179.548 65.7884ZM189.629 80.6818V75.4531H189.534C189.414 75.6918 189.242 75.9453 189.016 76.2138C188.79 76.478 188.492 76.7038 188.121 76.8913C187.75 77.0788 187.284 77.1726 186.721 77.1726C185.95 77.1726 185.259 76.9744 184.65 76.5781C184.041 76.1818 183.559 75.6065 183.205 74.8523C182.852 74.098 182.675 73.1818 182.675 72.1037C182.675 71.0128 182.854 70.0923 183.212 69.3423C183.574 68.5881 184.062 68.0192 184.676 67.6357C185.289 67.2479 185.973 67.054 186.727 67.054C187.303 67.054 187.776 67.152 188.146 67.348C188.517 67.5398 188.811 67.772 189.029 68.0447C189.246 68.3132 189.414 68.5668 189.534 68.8054H189.674V67.1818H191.95V80.6818H189.629ZM187.367 75.2741C187.857 75.2741 188.274 75.142 188.619 74.8778C188.965 74.6094 189.227 74.2365 189.406 73.7592C189.585 73.282 189.674 72.7259 189.674 72.0909C189.674 71.456 189.585 70.9041 189.406 70.4354C189.231 69.9666 188.971 69.6023 188.626 69.3423C188.285 69.0824 187.865 68.9524 187.367 68.9524C186.851 68.9524 186.421 69.0866 186.075 69.3551C185.73 69.6236 185.47 69.9943 185.296 70.4673C185.121 70.9403 185.034 71.4815 185.034 72.0909C185.034 72.7045 185.121 73.2521 185.296 73.7337C185.475 74.2109 185.737 74.5881 186.082 74.8651C186.431 75.1378 186.86 75.2741 187.367 75.2741ZM200.585 72.8707V67.1818H202.899V77H200.656V75.255H200.553C200.332 75.8047 199.968 76.2543 199.46 76.6037C198.958 76.9531 198.338 77.1278 197.6 77.1278C196.957 77.1278 196.388 76.9851 195.894 76.6996C195.404 76.4098 195.02 75.9901 194.743 75.4403C194.466 74.8864 194.328 74.2173 194.328 73.4332V67.1818H196.642V73.0753C196.642 73.6974 196.812 74.1918 197.153 74.5582C197.494 74.9247 197.941 75.108 198.495 75.108C198.836 75.108 199.166 75.0249 199.486 74.8587C199.806 74.6925 200.068 74.4453 200.272 74.1172C200.481 73.7848 200.585 73.3693 200.585 72.8707ZM205.279 77V67.1818H207.593V77H205.279ZM206.442 65.7884C206.076 65.7884 205.76 65.6669 205.496 65.424C205.232 65.1768 205.1 64.8807 205.1 64.5355C205.1 64.1861 205.232 63.8899 205.496 63.647C205.76 63.3999 206.076 63.2763 206.442 63.2763C206.813 63.2763 207.128 63.3999 207.388 63.647C207.652 63.8899 207.784 64.1861 207.784 64.5355C207.784 64.8807 207.652 65.1768 207.388 65.424C207.128 65.6669 206.813 65.7884 206.442 65.7884ZM213.616 77.1726C212.844 77.1726 212.154 76.9744 211.545 76.5781C210.935 76.1818 210.454 75.6065 210.1 74.8523C209.746 74.098 209.569 73.1818 209.569 72.1037C209.569 71.0128 209.748 70.0923 210.106 69.3423C210.469 68.5881 210.956 68.0192 211.57 67.6357C212.184 67.2479 212.868 67.054 213.622 67.054C214.197 67.054 214.67 67.152 215.041 67.348C215.412 67.5398 215.706 67.772 215.923 68.0447C216.14 68.3132 216.309 68.5668 216.428 68.8054H216.524V63.9091H218.844V77H216.569V75.4531H216.428C216.309 75.6918 216.136 75.9453 215.91 76.2138C215.684 76.478 215.386 76.7038 215.015 76.8913C214.645 77.0788 214.178 77.1726 213.616 77.1726ZM214.261 75.2741C214.751 75.2741 215.169 75.142 215.514 74.8778C215.859 74.6094 216.121 74.2365 216.3 73.7592C216.479 73.282 216.569 72.7259 216.569 72.0909C216.569 71.456 216.479 70.9041 216.3 70.4354C216.126 69.9666 215.866 69.6023 215.52 69.3423C215.18 69.0824 214.76 68.9524 214.261 68.9524C213.746 68.9524 213.315 69.0866 212.97 69.3551C212.625 69.6236 212.365 69.9943 212.19 70.4673C212.015 70.9403 211.928 71.4815 211.928 72.0909C211.928 72.7045 212.015 73.2521 212.19 73.7337C212.369 74.2109 212.631 74.5881 212.976 74.8651C213.326 75.1378 213.754 75.2741 214.261 75.2741ZM221.31 77V67.1818H223.624V77H221.31ZM222.473 65.7884C222.107 65.7884 221.792 65.6669 221.527 65.424C221.263 65.1768 221.131 64.8807 221.131 64.5355C221.131 64.1861 221.263 63.8899 221.527 63.647C221.792 63.3999 222.107 63.2763 222.473 63.2763C222.844 63.2763 223.159 63.3999 223.419 63.647C223.684 63.8899 223.816 64.1861 223.816 64.5355C223.816 64.8807 223.684 65.1768 223.419 65.424C223.159 65.6669 222.844 65.7884 222.473 65.7884ZM230.906 67.1818V68.9716H225.262V67.1818H230.906ZM226.655 64.8295H228.969V74.0469C228.969 74.358 229.016 74.5966 229.11 74.7628C229.208 74.9247 229.336 75.0355 229.493 75.0952C229.651 75.1548 229.826 75.1847 230.018 75.1847C230.162 75.1847 230.295 75.174 230.414 75.1527C230.537 75.1314 230.631 75.1122 230.695 75.0952L231.085 76.9041C230.961 76.9467 230.785 76.9936 230.555 77.0447C230.329 77.0959 230.052 77.1257 229.724 77.1342C229.144 77.1513 228.622 77.0639 228.157 76.8722C227.693 76.6761 227.324 76.3736 227.052 75.9645C226.783 75.5554 226.651 75.044 226.655 74.4304V64.8295ZM234.279 80.6818C233.964 80.6818 233.672 80.6563 233.404 80.6051C233.14 80.5582 232.929 80.5028 232.771 80.4389L233.308 78.6364C233.645 78.7344 233.945 78.7813 234.209 78.777C234.473 78.7727 234.706 78.6896 234.906 78.5277C235.11 78.37 235.283 78.1058 235.424 77.7351L235.622 77.2045L232.061 67.1818H234.516L236.779 74.5966H236.881L239.15 67.1818H241.611L237.68 78.1889C237.497 78.7088 237.254 79.1541 236.951 79.5249C236.649 79.8999 236.278 80.1854 235.839 80.3814C235.404 80.5817 234.885 80.6818 234.279 80.6818Z" fill="white"/>
<path opacity="0.32" d="M424.628 174.457C426.586 177.847 425.457 182.052 422.062 184.012C418.667 185.972 414.462 184.847 412.504 181.457C410.546 178.066 411.676 173.861 415.07 171.901C418.325 169.699 422.671 171.066 424.628 174.457Z" stroke="url(#paint14_linear_337_18)" stroke-width="0.5" stroke-miterlimit="10"/>
<path d="M420.523 176.801C421.222 178.012 420.819 179.514 419.606 180.214C418.394 180.914 416.892 180.512 416.193 179.301C415.494 178.09 415.897 176.589 417.109 175.889C418.272 175.102 419.824 175.59 420.523 176.801Z" fill="white"/>
<path d="M453.906 114.5L418.406 179" stroke="url(#paint15_linear_337_18)" stroke-miterlimit="10"/>
<g filter="url(#filter2_d_337_18)">
<rect width="165" height="47" rx="23.5" transform="matrix(-1 0 0 1 565 68)" fill="#102644"/>
<rect x="-0.5" y="0.5" width="164" height="46" rx="23" transform="matrix(-1 0 0 1 564 68)" stroke="url(#paint16_linear_337_18)"/>
</g>
<path d="M458.716 87.897V85.9091H469.161V87.897H465.114V99H462.762V87.897H458.716ZM473.994 99.1918C473.01 99.1918 472.16 98.9872 471.444 98.5781C470.732 98.1648 470.185 97.581 469.801 96.8267C469.418 96.0682 469.226 95.1754 469.226 94.1484C469.226 93.1385 469.418 92.2521 469.801 91.4893C470.189 90.7223 470.73 90.1257 471.425 89.6996C472.119 89.2692 472.936 89.054 473.873 89.054C474.478 89.054 475.049 89.152 475.586 89.348C476.127 89.5398 476.605 89.8381 477.018 90.2429C477.436 90.6477 477.764 91.1634 478.002 91.7898C478.241 92.4119 478.36 93.1534 478.36 94.0142V94.7237H470.313V93.1641H476.142C476.138 92.7209 476.042 92.3267 475.855 91.9815C475.667 91.6321 475.405 91.3572 475.068 91.157C474.736 90.9567 474.348 90.8565 473.905 90.8565C473.432 90.8565 473.017 90.9716 472.659 91.2017C472.301 91.4276 472.021 91.7259 471.821 92.0966C471.625 92.4631 471.525 92.8658 471.521 93.3047V94.6662C471.521 95.2372 471.625 95.7273 471.834 96.1364C472.043 96.5412 472.335 96.8523 472.71 97.0696C473.085 97.2827 473.524 97.3892 474.026 97.3892C474.363 97.3892 474.668 97.3423 474.941 97.2486C475.213 97.1506 475.45 97.0078 475.65 96.8203C475.85 96.6328 476.002 96.4006 476.104 96.1236L478.264 96.3665C478.128 96.9375 477.868 97.4361 477.485 97.8622C477.105 98.2841 476.619 98.6122 476.027 98.8466C475.435 99.0767 474.757 99.1918 473.994 99.1918ZM483.143 99.1982C482.521 99.1982 481.961 99.0874 481.462 98.8658C480.968 98.6399 480.576 98.3075 480.286 97.8686C480 97.4297 479.858 96.8885 479.858 96.245C479.858 95.6911 479.96 95.233 480.164 94.8707C480.369 94.5085 480.648 94.2188 481.002 94.0014C481.355 93.7841 481.754 93.62 482.197 93.5092C482.645 93.3942 483.107 93.3111 483.584 93.2599C484.159 93.2003 484.626 93.147 484.984 93.1001C485.342 93.049 485.602 92.9723 485.764 92.87C485.93 92.7635 486.013 92.5994 486.013 92.3778V92.3395C486.013 91.858 485.87 91.4851 485.585 91.2209C485.299 90.9567 484.888 90.8246 484.351 90.8246C483.784 90.8246 483.335 90.9482 483.002 91.1953C482.674 91.4425 482.453 91.7344 482.338 92.071L480.177 91.7642C480.348 91.1676 480.629 90.669 481.021 90.2685C481.413 89.8636 481.892 89.5611 482.459 89.3608C483.026 89.1562 483.652 89.054 484.338 89.054C484.811 89.054 485.282 89.1094 485.751 89.2202C486.22 89.331 486.648 89.5142 487.036 89.7699C487.424 90.0213 487.735 90.3643 487.969 90.799C488.208 91.2337 488.327 91.777 488.327 92.429V99H486.103V97.6513H486.026C485.885 97.924 485.687 98.1797 485.431 98.4183C485.18 98.6527 484.863 98.8423 484.479 98.9872C484.1 99.1278 483.654 99.1982 483.143 99.1982ZM483.744 97.4979C484.208 97.4979 484.611 97.4062 484.952 97.223C485.293 97.0355 485.555 96.7884 485.738 96.4815C485.926 96.1747 486.02 95.8402 486.02 95.478V94.321C485.947 94.3807 485.824 94.4361 485.649 94.4872C485.478 94.5384 485.287 94.5831 485.074 94.6214C484.86 94.6598 484.65 94.6939 484.441 94.7237C484.232 94.7536 484.051 94.7791 483.897 94.8004C483.552 94.8473 483.243 94.924 482.971 95.0305C482.698 95.1371 482.483 95.2862 482.325 95.478C482.167 95.6655 482.088 95.9084 482.088 96.2067C482.088 96.6328 482.244 96.9545 482.555 97.1719C482.866 97.3892 483.262 97.4979 483.744 97.4979ZM490.654 99V89.1818H492.865V90.8501H492.98C493.185 90.2876 493.524 89.8487 493.997 89.5334C494.47 89.2138 495.034 89.054 495.691 89.054C496.355 89.054 496.916 89.2159 497.372 89.5398C497.832 89.8594 498.156 90.2962 498.343 90.8501H498.446C498.663 90.3047 499.029 89.87 499.545 89.5462C500.065 89.218 500.681 89.054 501.392 89.054C502.296 89.054 503.033 89.3395 503.604 89.9105C504.175 90.4815 504.461 91.3146 504.461 92.4098V99H502.14V92.7678C502.14 92.1584 501.978 91.7131 501.654 91.4318C501.331 91.1463 500.934 91.0036 500.466 91.0036C499.907 91.0036 499.471 91.1783 499.155 91.5277C498.844 91.8729 498.689 92.3224 498.689 92.8764V99H496.419V92.6719C496.419 92.1648 496.266 91.7599 495.959 91.4574C495.657 91.1548 495.26 91.0036 494.77 91.0036C494.438 91.0036 494.135 91.0888 493.863 91.2592C493.59 91.4254 493.373 91.6619 493.211 91.9688C493.049 92.2713 492.968 92.625 492.968 93.0298V99H490.654Z" fill="white"/>
<g filter="url(#filter3_d_337_18)">
<rect x="30" y="191" width="165" height="47" rx="23.5" fill="#102644"/>
<rect x="30.5" y="191.5" width="164" height="46" rx="23" stroke="url(#paint17_linear_337_18)"/>
</g>
<path d="M57.2912 222V208.909H62.3026C63.2486 208.909 64.0348 209.058 64.6612 209.357C65.2919 209.651 65.7628 210.053 66.0739 210.565C66.3892 211.076 66.5469 211.656 66.5469 212.303C66.5469 212.836 66.4446 213.292 66.2401 213.671C66.0355 214.046 65.7607 214.351 65.4155 214.585C65.0703 214.82 64.6847 214.988 64.2585 215.09V215.218C64.723 215.244 65.1683 215.386 65.5945 215.646C66.0249 215.902 66.3764 216.264 66.6491 216.733C66.9219 217.202 67.0582 217.768 67.0582 218.433C67.0582 219.111 66.8942 219.72 66.5661 220.261C66.2379 220.798 65.7436 221.222 65.0831 221.533C64.4226 221.844 63.5916 222 62.5902 222H57.2912ZM59.6626 220.018H62.2131C63.0739 220.018 63.6939 219.854 64.0732 219.526C64.4567 219.194 64.6484 218.768 64.6484 218.248C64.6484 217.86 64.5526 217.511 64.3608 217.2C64.169 216.884 63.8963 216.637 63.5426 216.458C63.1889 216.275 62.767 216.183 62.277 216.183H59.6626V220.018ZM59.6626 214.477H62.0085C62.4176 214.477 62.7862 214.402 63.1143 214.253C63.4425 214.099 63.7003 213.884 63.8878 213.607C64.0795 213.326 64.1754 212.994 64.1754 212.61C64.1754 212.103 63.9964 211.685 63.6385 211.357C63.2848 211.029 62.7585 210.865 62.0597 210.865H59.6626V214.477ZM73.3656 222.192C72.3812 222.192 71.5311 221.987 70.8152 221.578C70.1035 221.165 69.5559 220.581 69.1724 219.827C68.7889 219.068 68.5971 218.175 68.5971 217.148C68.5971 216.138 68.7889 215.252 69.1724 214.489C69.5602 213.722 70.1014 213.126 70.796 212.7C71.4906 212.269 72.3066 212.054 73.2441 212.054C73.8493 212.054 74.4203 212.152 74.9572 212.348C75.4984 212.54 75.9757 212.838 76.389 213.243C76.8066 213.648 77.1348 214.163 77.3734 214.79C77.612 215.412 77.7314 216.153 77.7314 217.014V217.724H69.6838V216.164H75.5133C75.5091 215.721 75.4132 215.327 75.2257 214.982C75.0382 214.632 74.7761 214.357 74.4395 214.157C74.1071 213.957 73.7193 213.857 73.2761 213.857C72.8031 213.857 72.3876 213.972 72.0297 214.202C71.6717 214.428 71.3926 214.726 71.1923 215.097C70.9963 215.463 70.8961 215.866 70.8919 216.305V217.666C70.8919 218.237 70.9963 218.727 71.2051 219.136C71.4139 219.541 71.7058 219.852 72.0808 220.07C72.4558 220.283 72.8947 220.389 73.3976 220.389C73.7342 220.389 74.0389 220.342 74.3116 220.249C74.5843 220.151 74.8208 220.008 75.0211 219.82C75.2214 219.633 75.3727 219.401 75.475 219.124L77.6355 219.366C77.4991 219.937 77.2392 220.436 76.8556 220.862C76.4764 221.284 75.9906 221.612 75.3983 221.847C74.8059 222.077 74.1284 222.192 73.3656 222.192ZM79.6889 222V212.182H82.0028V222H79.6889ZM80.8523 210.788C80.4858 210.788 80.1705 210.667 79.9062 210.424C79.642 210.177 79.5099 209.881 79.5099 209.536C79.5099 209.186 79.642 208.89 79.9062 208.647C80.1705 208.4 80.4858 208.276 80.8523 208.276C81.223 208.276 81.5384 208.4 81.7983 208.647C82.0625 208.89 82.1946 209.186 82.1946 209.536C82.1946 209.881 82.0625 210.177 81.7983 210.424C81.5384 210.667 81.223 210.788 80.8523 210.788ZM86.6962 216.247V222H84.3823V212.182H86.5939V213.85H86.709C86.9348 213.3 87.2949 212.864 87.7892 212.54C88.2878 212.216 88.9036 212.054 89.6365 212.054C90.3141 212.054 90.9043 212.199 91.4071 212.489C91.9142 212.778 92.3063 213.198 92.5833 213.748C92.8645 214.298 93.003 214.964 92.9988 215.749V222H90.6848V216.107C90.6848 215.45 90.5144 214.937 90.1735 214.566C89.8368 214.195 89.3702 214.01 88.7736 214.01C88.3688 214.01 88.0087 214.099 87.6934 214.278C87.3823 214.453 87.1373 214.707 86.9583 215.039C86.7836 215.371 86.6962 215.774 86.6962 216.247ZM99.6209 225.886C98.79 225.886 98.0762 225.773 97.4796 225.548C96.883 225.326 96.4036 225.028 96.0414 224.653C95.6792 224.278 95.4277 223.862 95.2871 223.406L97.3709 222.901C97.4647 223.093 97.601 223.283 97.78 223.47C97.959 223.662 98.1998 223.82 98.5023 223.943C98.8091 224.071 99.1948 224.135 99.6593 224.135C100.316 224.135 100.859 223.975 101.289 223.656C101.72 223.34 101.935 222.82 101.935 222.096V220.236H101.82C101.7 220.474 101.526 220.719 101.296 220.971C101.07 221.222 100.769 221.433 100.394 221.604C100.024 221.774 99.557 221.859 98.9945 221.859C98.2402 221.859 97.5563 221.683 96.9426 221.329C96.3333 220.971 95.8475 220.438 95.4853 219.731C95.1273 219.019 94.9483 218.129 94.9483 217.059C94.9483 215.981 95.1273 215.071 95.4853 214.33C95.8475 213.584 96.3354 213.019 96.949 212.636C97.5627 212.248 98.2466 212.054 99.0009 212.054C99.5762 212.054 100.049 212.152 100.42 212.348C100.795 212.54 101.093 212.772 101.315 213.045C101.536 213.313 101.705 213.567 101.82 213.805H101.948V212.182H104.23V222.16C104.23 222.999 104.029 223.694 103.629 224.244C103.228 224.793 102.681 225.205 101.986 225.477C101.291 225.75 100.503 225.886 99.6209 225.886ZM99.6401 220.044C100.13 220.044 100.548 219.925 100.893 219.686C101.238 219.447 101.5 219.104 101.679 218.657C101.858 218.21 101.948 217.673 101.948 217.046C101.948 216.428 101.858 215.887 101.679 215.423C101.504 214.958 101.244 214.598 100.899 214.342C100.558 214.082 100.139 213.952 99.6401 213.952C99.1245 213.952 98.6941 214.087 98.3489 214.355C98.0037 214.624 97.7438 214.992 97.5691 215.461C97.3944 215.925 97.307 216.454 97.307 217.046C97.307 217.647 97.3944 218.173 97.5691 218.625C97.748 219.072 98.0101 219.422 98.3553 219.673C98.7047 219.92 99.133 220.044 99.6401 220.044ZM111.168 222V208.909H113.482V213.805H113.578C113.697 213.567 113.866 213.313 114.083 213.045C114.3 212.772 114.594 212.54 114.965 212.348C115.336 212.152 115.809 212.054 116.384 212.054C117.143 212.054 117.827 212.248 118.436 212.636C119.05 213.019 119.535 213.588 119.893 214.342C120.256 215.092 120.437 216.013 120.437 217.104C120.437 218.182 120.26 219.098 119.906 219.852C119.552 220.607 119.071 221.182 118.461 221.578C117.852 221.974 117.162 222.173 116.39 222.173C115.828 222.173 115.361 222.079 114.991 221.891C114.62 221.704 114.322 221.478 114.096 221.214C113.874 220.945 113.702 220.692 113.578 220.453H113.444V222H111.168ZM113.437 217.091C113.437 217.726 113.527 218.282 113.706 218.759C113.889 219.237 114.151 219.609 114.492 219.878C114.837 220.142 115.255 220.274 115.745 220.274C116.256 220.274 116.684 220.138 117.03 219.865C117.375 219.588 117.635 219.211 117.809 218.734C117.988 218.252 118.078 217.705 118.078 217.091C118.078 216.482 117.991 215.94 117.816 215.467C117.641 214.994 117.381 214.624 117.036 214.355C116.691 214.087 116.26 213.952 115.745 213.952C115.251 213.952 114.831 214.082 114.486 214.342C114.14 214.602 113.878 214.967 113.699 215.435C113.525 215.904 113.437 216.456 113.437 217.091ZM128.662 217.871V212.182H130.975V222H128.732V220.255H128.63C128.408 220.805 128.044 221.254 127.537 221.604C127.034 221.953 126.414 222.128 125.676 222.128C125.033 222.128 124.464 221.985 123.97 221.7C123.48 221.41 123.096 220.99 122.819 220.44C122.542 219.886 122.404 219.217 122.404 218.433V212.182H124.718V218.075C124.718 218.697 124.888 219.192 125.229 219.558C125.57 219.925 126.017 220.108 126.571 220.108C126.912 220.108 127.243 220.025 127.562 219.859C127.882 219.692 128.144 219.445 128.348 219.117C128.557 218.785 128.662 218.369 128.662 217.871ZM133.355 222V212.182H135.599V213.818H135.701C135.88 213.251 136.187 212.815 136.621 212.508C137.06 212.197 137.561 212.041 138.123 212.041C138.251 212.041 138.394 212.048 138.552 212.06C138.714 212.069 138.848 212.084 138.954 212.105V214.234C138.856 214.2 138.701 214.17 138.488 214.144C138.279 214.114 138.077 214.099 137.881 214.099C137.459 214.099 137.079 214.191 136.743 214.374C136.41 214.553 136.148 214.803 135.956 215.122C135.765 215.442 135.669 215.81 135.669 216.228V222H133.355ZM142.806 216.247V222H140.492V212.182H142.703V213.85H142.818C143.044 213.3 143.404 212.864 143.899 212.54C144.397 212.216 145.013 212.054 145.746 212.054C146.423 212.054 147.014 212.199 147.517 212.489C148.024 212.778 148.416 213.198 148.693 213.748C148.974 214.298 149.112 214.964 149.108 215.749V222H146.794V216.107C146.794 215.45 146.624 214.937 146.283 214.566C145.946 214.195 145.48 214.01 144.883 214.01C144.478 214.01 144.118 214.099 143.803 214.278C143.492 214.453 143.247 214.707 143.068 215.039C142.893 215.371 142.806 215.774 142.806 216.247ZM155.807 222.192C154.823 222.192 153.972 221.987 153.257 221.578C152.545 221.165 151.997 220.581 151.614 219.827C151.23 219.068 151.039 218.175 151.039 217.148C151.039 216.138 151.23 215.252 151.614 214.489C152.002 213.722 152.543 213.126 153.237 212.7C153.932 212.269 154.748 212.054 155.686 212.054C156.291 212.054 156.862 212.152 157.399 212.348C157.94 212.54 158.417 212.838 158.83 213.243C159.248 213.648 159.576 214.163 159.815 214.79C160.053 215.412 160.173 216.153 160.173 217.014V217.724H152.125V216.164H157.955C157.95 215.721 157.855 215.327 157.667 214.982C157.48 214.632 157.218 214.357 156.881 214.157C156.548 213.957 156.161 213.857 155.718 213.857C155.244 213.857 154.829 213.972 154.471 214.202C154.113 214.428 153.834 214.726 153.634 215.097C153.438 215.463 153.338 215.866 153.333 216.305V217.666C153.333 218.237 153.438 218.727 153.646 219.136C153.855 219.541 154.147 219.852 154.522 220.07C154.897 220.283 155.336 220.389 155.839 220.389C156.176 220.389 156.48 220.342 156.753 220.249C157.026 220.151 157.262 220.008 157.463 219.82C157.663 219.633 157.814 219.401 157.916 219.124L160.077 219.366C159.941 219.937 159.681 220.436 159.297 220.862C158.918 221.284 158.432 221.612 157.84 221.847C157.247 222.077 156.57 222.192 155.807 222.192ZM165.774 222.173C165.002 222.173 164.312 221.974 163.703 221.578C163.093 221.182 162.612 220.607 162.258 219.852C161.904 219.098 161.728 218.182 161.728 217.104C161.728 216.013 161.907 215.092 162.265 214.342C162.627 213.588 163.115 213.019 163.728 212.636C164.342 212.248 165.026 212.054 165.78 212.054C166.355 212.054 166.828 212.152 167.199 212.348C167.57 212.54 167.864 212.772 168.081 213.045C168.299 213.313 168.467 213.567 168.586 213.805H168.682V208.909H171.002V222H168.727V220.453H168.586C168.467 220.692 168.294 220.945 168.069 221.214C167.843 221.478 167.544 221.704 167.174 221.891C166.803 222.079 166.336 222.173 165.774 222.173ZM166.419 220.274C166.909 220.274 167.327 220.142 167.672 219.878C168.017 219.609 168.279 219.237 168.458 218.759C168.637 218.282 168.727 217.726 168.727 217.091C168.727 216.456 168.637 215.904 168.458 215.435C168.284 214.967 168.024 214.602 167.679 214.342C167.338 214.082 166.918 213.952 166.419 213.952C165.904 213.952 165.473 214.087 165.128 214.355C164.783 214.624 164.523 214.994 164.348 215.467C164.174 215.94 164.086 216.482 164.086 217.091C164.086 217.705 164.174 218.252 164.348 218.734C164.527 219.211 164.789 219.588 165.135 219.865C165.484 220.138 165.912 220.274 166.419 220.274Z" fill="white"/>
<path opacity="0.32" d="M430.628 285.457C432.586 288.847 431.457 293.052 428.062 295.012C424.667 296.972 420.462 295.847 418.504 292.457C416.546 289.066 417.676 284.861 421.07 282.901C424.325 280.699 428.671 282.066 430.628 285.457Z" stroke="url(#paint18_linear_337_18)" stroke-width="0.5" stroke-miterlimit="10"/>
<path d="M426.523 287.801C427.222 289.012 426.819 290.514 425.606 291.214C424.394 291.914 422.892 291.512 422.193 290.301C421.494 289.09 421.897 287.589 423.109 286.889C424.272 286.102 425.824 286.59 426.523 287.801Z" fill="white"/>
<path d="M497.5 290H424.406" stroke="url(#paint19_linear_337_18)" stroke-miterlimit="10"/>
<g filter="url(#filter4_d_337_18)">
<rect width="165" height="47" rx="23.5" transform="matrix(-1 0 0 1 660 264)" fill="#102644"/>
<rect x="-0.5" y="0.5" width="164" height="46" rx="23" transform="matrix(-1 0 0 1 659 264)" stroke="url(#paint20_linear_337_18)"/>
</g>
<path d="M548.291 294V280.909H553.2C554.206 280.909 555.05 281.097 555.732 281.472C556.418 281.847 556.935 282.362 557.285 283.018C557.638 283.67 557.815 284.412 557.815 285.243C557.815 286.082 557.638 286.828 557.285 287.48C556.931 288.132 556.409 288.646 555.719 289.021C555.028 289.391 554.178 289.577 553.168 289.577H549.915V287.627H552.849C553.437 287.627 553.918 287.525 554.293 287.32C554.668 287.116 554.945 286.835 555.124 286.477C555.308 286.119 555.399 285.707 555.399 285.243C555.399 284.778 555.308 284.369 555.124 284.016C554.945 283.662 554.666 283.387 554.287 283.191C553.912 282.991 553.428 282.891 552.836 282.891H550.663V294H548.291ZM559.773 294V284.182H562.017V285.818H562.119C562.298 285.251 562.605 284.815 563.039 284.508C563.478 284.197 563.979 284.041 564.541 284.041C564.669 284.041 564.812 284.048 564.97 284.06C565.132 284.069 565.266 284.084 565.372 284.105V286.234C565.274 286.2 565.119 286.17 564.906 286.144C564.697 286.114 564.494 286.099 564.298 286.099C563.877 286.099 563.497 286.191 563.161 286.374C562.828 286.553 562.566 286.803 562.374 287.122C562.183 287.442 562.087 287.81 562.087 288.228V294H559.773ZM570.852 294.192C569.868 294.192 569.017 293.987 568.301 293.578C567.59 293.165 567.042 292.581 566.659 291.827C566.275 291.068 566.083 290.175 566.083 289.148C566.083 288.138 566.275 287.252 566.659 286.489C567.047 285.722 567.588 285.126 568.282 284.7C568.977 284.269 569.793 284.054 570.73 284.054C571.336 284.054 571.907 284.152 572.444 284.348C572.985 284.54 573.462 284.838 573.875 285.243C574.293 285.648 574.621 286.163 574.86 286.79C575.098 287.412 575.218 288.153 575.218 289.014V289.724H567.17V288.164H573C572.995 287.721 572.9 287.327 572.712 286.982C572.525 286.632 572.262 286.357 571.926 286.157C571.593 285.957 571.206 285.857 570.762 285.857C570.289 285.857 569.874 285.972 569.516 286.202C569.158 286.428 568.879 286.726 568.679 287.097C568.483 287.463 568.382 287.866 568.378 288.305V289.666C568.378 290.237 568.483 290.727 568.691 291.136C568.9 291.541 569.192 291.852 569.567 292.07C569.942 292.283 570.381 292.389 570.884 292.389C571.221 292.389 571.525 292.342 571.798 292.249C572.071 292.151 572.307 292.008 572.507 291.82C572.708 291.633 572.859 291.401 572.961 291.124L575.122 291.366C574.985 291.937 574.725 292.436 574.342 292.862C573.963 293.284 573.477 293.612 572.885 293.847C572.292 294.077 571.615 294.192 570.852 294.192ZM584.935 286.777L582.826 287.007C582.766 286.794 582.662 286.594 582.513 286.406C582.368 286.219 582.172 286.067 581.925 285.952C581.677 285.837 581.375 285.78 581.017 285.78C580.535 285.78 580.131 285.884 579.802 286.093C579.479 286.302 579.319 286.572 579.323 286.905C579.319 287.19 579.423 287.423 579.636 287.602C579.854 287.781 580.211 287.928 580.71 288.043L582.385 288.401C583.314 288.601 584.004 288.918 584.456 289.353C584.912 289.788 585.142 290.357 585.146 291.06C585.142 291.678 584.961 292.223 584.603 292.696C584.249 293.165 583.757 293.531 583.126 293.795C582.496 294.06 581.771 294.192 580.953 294.192C579.751 294.192 578.784 293.94 578.051 293.438C577.318 292.93 576.881 292.225 576.741 291.322L578.997 291.104C579.099 291.548 579.317 291.882 579.649 292.108C579.981 292.334 580.414 292.447 580.947 292.447C581.496 292.447 581.937 292.334 582.27 292.108C582.606 291.882 582.775 291.603 582.775 291.271C582.775 290.989 582.666 290.757 582.449 290.574C582.236 290.391 581.903 290.25 581.452 290.152L579.777 289.8C578.835 289.604 578.138 289.274 577.687 288.81C577.235 288.341 577.011 287.749 577.015 287.033C577.011 286.428 577.175 285.903 577.508 285.46C577.844 285.013 578.311 284.668 578.907 284.425C579.508 284.178 580.201 284.054 580.985 284.054C582.135 284.054 583.041 284.299 583.702 284.789C584.366 285.279 584.778 285.942 584.935 286.777ZM589.879 294.198C589.257 294.198 588.697 294.087 588.198 293.866C587.704 293.64 587.312 293.308 587.022 292.869C586.737 292.43 586.594 291.888 586.594 291.245C586.594 290.691 586.696 290.233 586.901 289.871C587.105 289.509 587.384 289.219 587.738 289.001C588.092 288.784 588.49 288.62 588.933 288.509C589.381 288.394 589.843 288.311 590.32 288.26C590.896 288.2 591.362 288.147 591.72 288.1C592.078 288.049 592.338 287.972 592.5 287.87C592.666 287.763 592.749 287.599 592.749 287.378V287.339C592.749 286.858 592.607 286.485 592.321 286.221C592.036 285.957 591.624 285.825 591.088 285.825C590.521 285.825 590.071 285.948 589.739 286.195C589.411 286.442 589.189 286.734 589.074 287.071L586.914 286.764C587.084 286.168 587.365 285.669 587.757 285.268C588.149 284.864 588.629 284.561 589.195 284.361C589.762 284.156 590.389 284.054 591.075 284.054C591.548 284.054 592.019 284.109 592.487 284.22C592.956 284.331 593.384 284.514 593.772 284.77C594.16 285.021 594.471 285.364 594.705 285.799C594.944 286.234 595.063 286.777 595.063 287.429V294H592.839V292.651H592.762C592.622 292.924 592.423 293.18 592.168 293.418C591.916 293.653 591.599 293.842 591.215 293.987C590.836 294.128 590.391 294.198 589.879 294.198ZM590.48 292.498C590.945 292.498 591.347 292.406 591.688 292.223C592.029 292.036 592.291 291.788 592.475 291.482C592.662 291.175 592.756 290.84 592.756 290.478V289.321C592.683 289.381 592.56 289.436 592.385 289.487C592.215 289.538 592.023 289.583 591.81 289.621C591.597 289.66 591.386 289.694 591.177 289.724C590.968 289.754 590.787 289.779 590.634 289.8C590.289 289.847 589.98 289.924 589.707 290.031C589.434 290.137 589.219 290.286 589.061 290.478C588.904 290.665 588.825 290.908 588.825 291.207C588.825 291.633 588.98 291.955 589.291 292.172C589.602 292.389 589.999 292.498 590.48 292.498ZM599.704 280.909V294H597.39V280.909H599.704ZM606.43 294.192C605.446 294.192 604.596 293.987 603.88 293.578C603.168 293.165 602.62 292.581 602.237 291.827C601.853 291.068 601.662 290.175 601.662 289.148C601.662 288.138 601.853 287.252 602.237 286.489C602.625 285.722 603.166 285.126 603.86 284.7C604.555 284.269 605.371 284.054 606.309 284.054C606.914 284.054 607.485 284.152 608.022 284.348C608.563 284.54 609.04 284.838 609.453 285.243C609.871 285.648 610.199 286.163 610.438 286.79C610.676 287.412 610.796 288.153 610.796 289.014V289.724H602.748V288.164H608.578C608.574 287.721 608.478 287.327 608.29 286.982C608.103 286.632 607.841 286.357 607.504 286.157C607.172 285.957 606.784 285.857 606.341 285.857C605.868 285.857 605.452 285.972 605.094 286.202C604.736 286.428 604.457 286.726 604.257 287.097C604.061 287.463 603.961 287.866 603.956 288.305V289.666C603.956 290.237 604.061 290.727 604.27 291.136C604.478 291.541 604.77 291.852 605.145 292.07C605.52 292.283 605.959 292.389 606.462 292.389C606.799 292.389 607.103 292.342 607.376 292.249C607.649 292.151 607.885 292.008 608.086 291.82C608.286 291.633 608.437 291.401 608.539 291.124L610.7 291.366C610.564 291.937 610.304 292.436 609.92 292.862C609.541 293.284 609.055 293.612 608.463 293.847C607.87 294.077 607.193 294.192 606.43 294.192Z" fill="white"/>
<g filter="url(#filter5_d_337_18)">
<rect x="55" y="330" width="165" height="47" rx="23.5" fill="#102644"/>
<rect x="55.5" y="330.5" width="164" height="46" rx="23" stroke="url(#paint21_linear_337_18)"/>
</g>
<path d="M98.4964 352.326H96.1058C96.0376 351.934 95.9119 351.587 95.7287 351.284C95.5455 350.977 95.3175 350.717 95.0447 350.504C94.772 350.291 94.4609 350.131 94.1115 350.025C93.7663 349.914 93.3935 349.859 92.9929 349.859C92.2813 349.859 91.6506 350.038 91.1009 350.396C90.5511 350.749 90.1207 351.269 89.8097 351.955C89.4986 352.637 89.343 353.47 89.343 354.455C89.343 355.456 89.4986 356.3 89.8097 356.986C90.125 357.668 90.5554 358.183 91.1009 358.533C91.6506 358.878 92.2791 359.05 92.9865 359.05C93.3786 359.05 93.745 358.999 94.0859 358.897C94.4311 358.79 94.7401 358.635 95.0128 358.43C95.2898 358.226 95.522 357.974 95.7095 357.676C95.9013 357.378 96.0334 357.037 96.1058 356.653L98.4964 356.666C98.407 357.288 98.2131 357.872 97.9148 358.418C97.6207 358.963 97.2351 359.445 96.7578 359.862C96.2805 360.276 95.7223 360.599 95.0831 360.834C94.4439 361.064 93.7344 361.179 92.9545 361.179C91.804 361.179 90.777 360.913 89.8736 360.38C88.9702 359.847 88.2585 359.078 87.7386 358.072C87.2188 357.067 86.9588 355.861 86.9588 354.455C86.9588 353.044 87.2209 351.838 87.745 350.837C88.2692 349.831 88.983 349.062 89.8864 348.529C90.7898 347.996 91.8125 347.73 92.9545 347.73C93.6832 347.73 94.3608 347.832 94.9872 348.037C95.6136 348.241 96.1719 348.542 96.6619 348.938C97.152 349.33 97.5547 349.812 97.87 350.383C98.1896 350.95 98.3984 351.597 98.4964 352.326ZM104.849 361.192C103.89 361.192 103.059 360.981 102.356 360.559C101.653 360.137 101.107 359.547 100.719 358.788C100.336 358.03 100.144 357.143 100.144 356.129C100.144 355.115 100.336 354.227 100.719 353.464C101.107 352.701 101.653 352.109 102.356 351.687C103.059 351.265 103.89 351.054 104.849 351.054C105.807 351.054 106.638 351.265 107.341 351.687C108.045 352.109 108.588 352.701 108.971 353.464C109.359 354.227 109.553 355.115 109.553 356.129C109.553 357.143 109.359 358.03 108.971 358.788C108.588 359.547 108.045 360.137 107.341 360.559C106.638 360.981 105.807 361.192 104.849 361.192ZM104.861 359.338C105.381 359.338 105.816 359.195 106.165 358.91C106.515 358.62 106.775 358.232 106.945 357.746C107.12 357.261 107.207 356.719 107.207 356.123C107.207 355.522 107.12 354.979 106.945 354.493C106.775 354.003 106.515 353.613 106.165 353.323C105.816 353.033 105.381 352.888 104.861 352.888C104.329 352.888 103.885 353.033 103.532 353.323C103.182 353.613 102.92 354.003 102.746 354.493C102.575 354.979 102.49 355.522 102.49 356.123C102.49 356.719 102.575 357.261 102.746 357.746C102.92 358.232 103.182 358.62 103.532 358.91C103.885 359.195 104.329 359.338 104.861 359.338ZM111.517 361V351.182H113.729V352.85H113.844C114.048 352.288 114.387 351.849 114.86 351.533C115.333 351.214 115.898 351.054 116.554 351.054C117.219 351.054 117.779 351.216 118.235 351.54C118.695 351.859 119.019 352.296 119.207 352.85H119.309C119.526 352.305 119.893 351.87 120.408 351.546C120.928 351.218 121.544 351.054 122.256 351.054C123.159 351.054 123.896 351.339 124.467 351.911C125.038 352.482 125.324 353.315 125.324 354.41V361H123.004V354.768C123.004 354.158 122.842 353.713 122.518 353.432C122.194 353.146 121.798 353.004 121.329 353.004C120.771 353.004 120.334 353.178 120.018 353.528C119.707 353.873 119.552 354.322 119.552 354.876V361H117.283V354.672C117.283 354.165 117.129 353.76 116.822 353.457C116.52 353.155 116.124 353.004 115.634 353.004C115.301 353.004 114.999 353.089 114.726 353.259C114.453 353.425 114.236 353.662 114.074 353.969C113.912 354.271 113.831 354.625 113.831 355.03V361H111.517ZM127.671 361V351.182H129.883V352.85H129.998C130.203 352.288 130.541 351.849 131.014 351.533C131.487 351.214 132.052 351.054 132.708 351.054C133.373 351.054 133.933 351.216 134.389 351.54C134.85 351.859 135.173 352.296 135.361 352.85H135.463C135.681 352.305 136.047 351.87 136.563 351.546C137.083 351.218 137.698 351.054 138.41 351.054C139.313 351.054 140.051 351.339 140.622 351.911C141.193 352.482 141.478 353.315 141.478 354.41V361H139.158V354.768C139.158 354.158 138.996 353.713 138.672 353.432C138.348 353.146 137.952 353.004 137.483 353.004C136.925 353.004 136.488 353.178 136.173 353.528C135.862 353.873 135.706 354.322 135.706 354.876V361H133.437V354.672C133.437 354.165 133.284 353.76 132.977 353.457C132.674 353.155 132.278 353.004 131.788 353.004C131.455 353.004 131.153 353.089 130.88 353.259C130.607 353.425 130.39 353.662 130.228 353.969C130.066 354.271 129.985 354.625 129.985 355.03V361H127.671ZM150.083 356.871V351.182H152.397V361H150.154V359.255H150.051C149.83 359.805 149.466 360.254 148.958 360.604C148.456 360.953 147.836 361.128 147.098 361.128C146.455 361.128 145.886 360.985 145.392 360.7C144.902 360.41 144.518 359.99 144.241 359.44C143.964 358.886 143.826 358.217 143.826 357.433V351.182H146.14V357.075C146.14 357.697 146.31 358.192 146.651 358.558C146.992 358.925 147.439 359.108 147.993 359.108C148.334 359.108 148.664 359.025 148.984 358.859C149.304 358.692 149.566 358.445 149.77 358.117C149.979 357.785 150.083 357.369 150.083 356.871ZM157.091 355.247V361H154.777V351.182H156.988V352.85H157.104C157.329 352.3 157.689 351.864 158.184 351.54C158.682 351.216 159.298 351.054 160.031 351.054C160.709 351.054 161.299 351.199 161.802 351.489C162.309 351.778 162.701 352.198 162.978 352.748C163.259 353.298 163.398 353.964 163.393 354.749V361H161.079V355.107C161.079 354.45 160.909 353.937 160.568 353.566C160.231 353.195 159.765 353.01 159.168 353.01C158.763 353.01 158.403 353.099 158.088 353.278C157.777 353.453 157.532 353.707 157.353 354.039C157.178 354.371 157.091 354.774 157.091 355.247ZM165.746 361V351.182H168.059V361H165.746ZM166.909 349.788C166.542 349.788 166.227 349.667 165.963 349.424C165.699 349.177 165.567 348.881 165.567 348.536C165.567 348.186 165.699 347.89 165.963 347.647C166.227 347.4 166.542 347.276 166.909 347.276C167.28 347.276 167.595 347.4 167.855 347.647C168.119 347.89 168.251 348.186 168.251 348.536C168.251 348.881 168.119 349.177 167.855 349.424C167.595 349.667 167.28 349.788 166.909 349.788ZM175.342 351.182V352.972H169.697V351.182H175.342ZM171.091 348.83H173.405V358.047C173.405 358.358 173.452 358.597 173.545 358.763C173.643 358.925 173.771 359.036 173.929 359.095C174.087 359.155 174.261 359.185 174.453 359.185C174.598 359.185 174.73 359.174 174.849 359.153C174.973 359.131 175.067 359.112 175.131 359.095L175.521 360.904C175.397 360.947 175.22 360.994 174.99 361.045C174.764 361.096 174.487 361.126 174.159 361.134C173.58 361.151 173.058 361.064 172.593 360.872C172.129 360.676 171.76 360.374 171.487 359.964C171.219 359.555 171.087 359.044 171.091 358.43V348.83ZM178.715 364.682C178.4 364.682 178.108 364.656 177.839 364.605C177.575 364.558 177.364 364.503 177.206 364.439L177.743 362.636C178.08 362.734 178.381 362.781 178.645 362.777C178.909 362.773 179.141 362.69 179.341 362.528C179.546 362.37 179.719 362.106 179.859 361.735L180.057 361.205L176.497 351.182H178.952L181.214 358.597H181.317L183.586 351.182H186.047L182.116 362.189C181.932 362.709 181.689 363.154 181.387 363.525C181.084 363.9 180.714 364.185 180.275 364.381C179.84 364.582 179.32 364.682 178.715 364.682Z" fill="white"/>
<path d="M312.822 446.746L328.5 339.5" stroke="url(#paint22_linear_337_18)" stroke-miterlimit="10"/>
<path opacity="0.32" d="M322.496 341.055C320.538 337.664 321.668 333.46 325.062 331.5C328.457 329.54 332.663 330.664 334.62 334.055C336.578 337.446 335.449 341.65 332.054 343.61C328.799 345.812 324.454 344.446 322.496 341.055Z" stroke="url(#paint23_linear_337_18)" stroke-width="0.5" stroke-miterlimit="10"/>
<path d="M326.601 338.71C325.902 337.499 326.305 335.998 327.518 335.298C328.73 334.598 330.232 334.999 330.931 336.21C331.631 337.421 331.227 338.923 330.015 339.623C328.852 340.409 327.3 339.921 326.601 338.71Z" fill="white"/>
<g filter="url(#filter6_d_337_18)">
<rect x="207" y="432" width="165" height="47" rx="23.5" fill="#102644"/>
<rect x="207.5" y="432.5" width="164" height="46" rx="23" stroke="url(#paint24_linear_337_18)"/>
</g>
<path d="M263.291 463V449.909H268.2C269.206 449.909 270.05 450.097 270.732 450.472C271.418 450.847 271.935 451.362 272.285 452.018C272.638 452.67 272.815 453.412 272.815 454.243C272.815 455.082 272.638 455.828 272.285 456.48C271.931 457.132 271.409 457.646 270.719 458.021C270.028 458.391 269.178 458.577 268.168 458.577H264.915V456.627H267.849C268.437 456.627 268.918 456.525 269.293 456.32C269.668 456.116 269.945 455.835 270.124 455.477C270.308 455.119 270.399 454.707 270.399 454.243C270.399 453.778 270.308 453.369 270.124 453.016C269.945 452.662 269.666 452.387 269.287 452.191C268.912 451.991 268.428 451.891 267.836 451.891H265.663V463H263.291ZM281.031 458.871V453.182H283.345V463H281.101V461.255H280.999C280.777 461.805 280.413 462.254 279.906 462.604C279.403 462.953 278.783 463.128 278.046 463.128C277.402 463.128 276.833 462.985 276.339 462.7C275.849 462.41 275.465 461.99 275.188 461.44C274.911 460.886 274.773 460.217 274.773 459.433V453.182H277.087V459.075C277.087 459.697 277.257 460.192 277.598 460.558C277.939 460.925 278.387 461.108 278.941 461.108C279.281 461.108 279.612 461.025 279.931 460.859C280.251 460.692 280.513 460.445 280.718 460.117C280.926 459.785 281.031 459.369 281.031 458.871ZM285.826 463V449.909H288.14V454.805H288.236C288.355 454.567 288.524 454.313 288.741 454.045C288.958 453.772 289.252 453.54 289.623 453.348C289.994 453.152 290.467 453.054 291.042 453.054C291.801 453.054 292.485 453.248 293.094 453.636C293.708 454.019 294.194 454.588 294.551 455.342C294.914 456.092 295.095 457.013 295.095 458.104C295.095 459.182 294.918 460.098 294.564 460.852C294.211 461.607 293.729 462.182 293.12 462.578C292.51 462.974 291.82 463.173 291.049 463.173C290.486 463.173 290.02 463.079 289.649 462.891C289.278 462.704 288.98 462.478 288.754 462.214C288.532 461.945 288.36 461.692 288.236 461.453H288.102V463H285.826ZM288.096 458.091C288.096 458.726 288.185 459.282 288.364 459.759C288.547 460.237 288.809 460.609 289.15 460.878C289.495 461.142 289.913 461.274 290.403 461.274C290.914 461.274 291.343 461.138 291.688 460.865C292.033 460.588 292.293 460.211 292.468 459.734C292.647 459.252 292.736 458.705 292.736 458.091C292.736 457.482 292.649 456.94 292.474 456.467C292.299 455.994 292.039 455.624 291.694 455.355C291.349 455.087 290.919 454.952 290.403 454.952C289.909 454.952 289.489 455.082 289.144 455.342C288.799 455.602 288.537 455.967 288.358 456.435C288.183 456.904 288.096 457.456 288.096 458.091ZM299.376 449.909V463H297.062V449.909H299.376ZM301.755 463V453.182H304.069V463H301.755ZM302.919 451.788C302.552 451.788 302.237 451.667 301.973 451.424C301.708 451.177 301.576 450.881 301.576 450.536C301.576 450.186 301.708 449.89 301.973 449.647C302.237 449.4 302.552 449.276 302.919 449.276C303.289 449.276 303.605 449.4 303.865 449.647C304.129 449.89 304.261 450.186 304.261 450.536C304.261 450.881 304.129 451.177 303.865 451.424C303.605 451.667 303.289 451.788 302.919 451.788ZM310.731 463.192C309.751 463.192 308.91 462.977 308.206 462.546C307.508 462.116 306.969 461.521 306.589 460.763C306.214 460 306.027 459.122 306.027 458.129C306.027 457.132 306.219 456.252 306.602 455.489C306.986 454.722 307.527 454.126 308.226 453.7C308.929 453.269 309.76 453.054 310.719 453.054C311.515 453.054 312.221 453.201 312.834 453.495C313.452 453.785 313.944 454.196 314.311 454.729C314.677 455.257 314.886 455.875 314.937 456.582H312.726C312.636 456.109 312.423 455.715 312.086 455.4C311.754 455.08 311.309 454.92 310.751 454.92C310.278 454.92 309.862 455.048 309.504 455.304C309.146 455.555 308.867 455.918 308.667 456.391C308.471 456.864 308.373 457.43 308.373 458.091C308.373 458.76 308.471 459.335 308.667 459.817C308.863 460.294 309.138 460.663 309.491 460.923C309.849 461.178 310.269 461.306 310.751 461.306C311.091 461.306 311.396 461.242 311.665 461.114C311.937 460.982 312.165 460.793 312.349 460.545C312.532 460.298 312.657 459.998 312.726 459.644H314.937C314.882 460.339 314.677 460.955 314.324 461.491C313.97 462.024 313.488 462.442 312.879 462.744C312.27 463.043 311.554 463.192 310.731 463.192Z" fill="white"/>
<path d="M439 387.5L388 323.061" stroke="url(#paint25_linear_337_18)" stroke-miterlimit="10"/>
<path opacity="0.32" d="M393.628 326.055C395.586 322.664 394.457 318.46 391.062 316.5C387.667 314.54 383.462 315.664 381.504 319.055C379.546 322.446 380.676 326.65 384.07 328.61C387.325 330.812 391.671 329.446 393.628 326.055Z" stroke="url(#paint26_linear_337_18)" stroke-width="0.5" stroke-miterlimit="10"/>
<path d="M389.523 323.71C390.222 322.499 389.819 320.998 388.606 320.298C387.394 319.598 385.892 319.999 385.193 321.21C384.494 322.421 384.897 323.923 386.109 324.623C387.272 325.409 388.824 324.921 389.523 323.71Z" fill="white"/>
<g filter="url(#filter7_d_337_18)">
<rect width="165" height="47" rx="23.5" transform="matrix(-1 0 0 1 599 377)" fill="#102644"/>
<rect x="-0.5" y="0.5" width="164" height="46" rx="23" transform="matrix(-1 0 0 1 598 377)" stroke="url(#paint27_linear_337_18)"/>
</g>
<path d="M486.291 408V394.909H491.2C492.206 394.909 493.05 395.097 493.732 395.472C494.418 395.847 494.935 396.362 495.285 397.018C495.638 397.67 495.815 398.412 495.815 399.243C495.815 400.082 495.638 400.828 495.285 401.48C494.931 402.132 494.409 402.646 493.719 403.021C493.028 403.391 492.178 403.577 491.168 403.577H487.915V401.627H490.849C491.437 401.627 491.918 401.525 492.293 401.32C492.668 401.116 492.945 400.835 493.124 400.477C493.308 400.119 493.399 399.707 493.399 399.243C493.399 398.778 493.308 398.369 493.124 398.016C492.945 397.662 492.666 397.387 492.287 397.191C491.912 396.991 491.428 396.891 490.836 396.891H488.663V408H486.291ZM497.773 408V398.182H500.017V399.818H500.119C500.298 399.251 500.605 398.815 501.039 398.508C501.478 398.197 501.979 398.041 502.541 398.041C502.669 398.041 502.812 398.048 502.97 398.06C503.132 398.069 503.266 398.084 503.372 398.105V400.234C503.274 400.2 503.119 400.17 502.906 400.144C502.697 400.114 502.494 400.099 502.298 400.099C501.877 400.099 501.497 400.191 501.161 400.374C500.828 400.553 500.566 400.803 500.374 401.122C500.183 401.442 500.087 401.81 500.087 402.228V408H497.773ZM504.91 408V398.182H507.224V408H504.91ZM506.073 396.788C505.706 396.788 505.391 396.667 505.127 396.424C504.863 396.177 504.731 395.881 504.731 395.536C504.731 395.186 504.863 394.89 505.127 394.647C505.391 394.4 505.706 394.276 506.073 394.276C506.444 394.276 506.759 394.4 507.019 394.647C507.283 394.89 507.415 395.186 507.415 395.536C507.415 395.881 507.283 396.177 507.019 396.424C506.759 396.667 506.444 396.788 506.073 396.788ZM518.373 398.182L514.876 408H512.32L508.823 398.182H511.29L513.547 405.475H513.649L515.912 398.182H518.373ZM522.518 408.198C521.896 408.198 521.336 408.087 520.837 407.866C520.343 407.64 519.951 407.308 519.661 406.869C519.375 406.43 519.233 405.888 519.233 405.245C519.233 404.691 519.335 404.233 519.539 403.871C519.744 403.509 520.023 403.219 520.377 403.001C520.73 402.784 521.129 402.62 521.572 402.509C522.02 402.394 522.482 402.311 522.959 402.26C523.534 402.2 524.001 402.147 524.359 402.1C524.717 402.049 524.977 401.972 525.139 401.87C525.305 401.763 525.388 401.599 525.388 401.378V401.339C525.388 400.858 525.245 400.485 524.96 400.221C524.674 399.957 524.263 399.825 523.726 399.825C523.159 399.825 522.71 399.948 522.377 400.195C522.049 400.442 521.828 400.734 521.713 401.071L519.552 400.764C519.723 400.168 520.004 399.669 520.396 399.268C520.788 398.864 521.267 398.561 521.834 398.361C522.401 398.156 523.027 398.054 523.713 398.054C524.186 398.054 524.657 398.109 525.126 398.22C525.595 398.331 526.023 398.514 526.411 398.77C526.799 399.021 527.11 399.364 527.344 399.799C527.583 400.234 527.702 400.777 527.702 401.429V408H525.478V406.651H525.401C525.26 406.924 525.062 407.18 524.806 407.418C524.555 407.653 524.238 407.842 523.854 407.987C523.475 408.128 523.029 408.198 522.518 408.198ZM523.119 406.498C523.583 406.498 523.986 406.406 524.327 406.223C524.668 406.036 524.93 405.788 525.113 405.482C525.301 405.175 525.395 404.84 525.395 404.478V403.321C525.322 403.381 525.199 403.436 525.024 403.487C524.853 403.538 524.662 403.583 524.449 403.621C524.235 403.66 524.025 403.694 523.816 403.724C523.607 403.754 523.426 403.779 523.272 403.8C522.927 403.847 522.618 403.924 522.346 404.031C522.073 404.137 521.858 404.286 521.7 404.478C521.542 404.665 521.463 404.908 521.463 405.207C521.463 405.633 521.619 405.955 521.93 406.172C522.241 406.389 522.637 406.498 523.119 406.498ZM534.931 398.182V399.972H529.287V398.182H534.931ZM530.681 395.83H532.995V405.047C532.995 405.358 533.042 405.597 533.135 405.763C533.233 405.925 533.361 406.036 533.519 406.095C533.676 406.155 533.851 406.185 534.043 406.185C534.188 406.185 534.32 406.174 534.439 406.153C534.563 406.131 534.657 406.112 534.721 406.095L535.11 407.904C534.987 407.947 534.81 407.994 534.58 408.045C534.354 408.096 534.077 408.126 533.749 408.134C533.169 408.151 532.647 408.064 532.183 407.872C531.718 407.676 531.35 407.374 531.077 406.964C530.809 406.555 530.676 406.044 530.681 405.43V395.83ZM541.108 408.192C540.123 408.192 539.273 407.987 538.557 407.578C537.846 407.165 537.298 406.581 536.915 405.827C536.531 405.068 536.339 404.175 536.339 403.148C536.339 402.138 536.531 401.252 536.915 400.489C537.302 399.722 537.844 399.126 538.538 398.7C539.233 398.269 540.049 398.054 540.986 398.054C541.591 398.054 542.162 398.152 542.699 398.348C543.241 398.54 543.718 398.838 544.131 399.243C544.549 399.648 544.877 400.163 545.116 400.79C545.354 401.412 545.474 402.153 545.474 403.014V403.724H537.426V402.164H543.256C543.251 401.721 543.155 401.327 542.968 400.982C542.78 400.632 542.518 400.357 542.182 400.157C541.849 399.957 541.461 399.857 541.018 399.857C540.545 399.857 540.13 399.972 539.772 400.202C539.414 400.428 539.135 400.726 538.934 401.097C538.738 401.463 538.638 401.866 538.634 402.305V403.666C538.634 404.237 538.738 404.727 538.947 405.136C539.156 405.541 539.448 405.852 539.823 406.07C540.198 406.283 540.637 406.389 541.14 406.389C541.476 406.389 541.781 406.342 542.054 406.249C542.327 406.151 542.563 406.008 542.763 405.82C542.964 405.633 543.115 405.401 543.217 405.124L545.378 405.366C545.241 405.937 544.981 406.436 544.598 406.862C544.219 407.284 543.733 407.612 543.14 407.847C542.548 408.077 541.871 408.192 541.108 408.192Z" fill="white"/>
<defs>
<filter id="filter0_f_337_18" x="102" y="0" width="474" height="474" filterUnits="userSpaceOnUse" color-interpolation-filters="sRGB">
<feFlood flood-opacity="0" result="BackgroundImageFix"/>
<feBlend mode="normal" in="SourceGraphic" in2="BackgroundImageFix" result="shape"/>
<feGaussianBlur stdDeviation="50" result="effect1_foregroundBlur_337_18"/>
</filter>
<filter id="filter1_d_337_18" x="93" y="32" width="225" height="107" filterUnits="userSpaceOnUse" color-interpolation-filters="sRGB">
<feFlood flood-opacity="0" result="BackgroundImageFix"/>
<feColorMatrix in="SourceAlpha" type="matrix" values="0 0 0 0 0 0 0 0 0 0 0 0 0 0 0 0 0 0 127 0" result="hardAlpha"/>
<feOffset dy="16"/>
<feGaussianBlur stdDeviation="15"/>
<feComposite in2="hardAlpha" operator="out"/>
<feColorMatrix type="matrix" values="0 0 0 0 0.00979167 0 0 0 0 0.117887 0 0 0 0 0.195833 0 0 0 1 0"/>
<feBlend mode="normal" in2="BackgroundImageFix" result="effect1_dropShadow_337_18"/>
<feBlend mode="normal" in="SourceGraphic" in2="effect1_dropShadow_337_18" result="shape"/>
</filter>
<filter id="filter2_d_337_18" x="370" y="54" width="225" height="107" filterUnits="userSpaceOnUse" color-interpolation-filters="sRGB">
<feFlood flood-opacity="0" result="BackgroundImageFix"/>
<feColorMatrix in="SourceAlpha" type="matrix" values="0 0 0 0 0 0 0 0 0 0 0 0 0 0 0 0 0 0 127 0" result="hardAlpha"/>
<feOffset dy="16"/>
<feGaussianBlur stdDeviation="15"/>
<feComposite in2="hardAlpha" operator="out"/>
<feColorMatrix type="matrix" values="0 0 0 0 0.00979167 0 0 0 0 0.117887 0 0 0 0 0.195833 0 0 0 1 0"/>
<feBlend mode="normal" in2="BackgroundImageFix" result="effect1_dropShadow_337_18"/>
<feBlend mode="normal" in="SourceGraphic" in2="effect1_dropShadow_337_18" result="shape"/>
</filter>
<filter id="filter3_d_337_18" x="0" y="177" width="225" height="107" filterUnits="userSpaceOnUse" color-interpolation-filters="sRGB">
<feFlood flood-opacity="0" result="BackgroundImageFix"/>
<feColorMatrix in="SourceAlpha" type="matrix" values="0 0 0 0 0 0 0 0 0 0 0 0 0 0 0 0 0 0 127 0" result="hardAlpha"/>
<feOffset dy="16"/>
<feGaussianBlur stdDeviation="15"/>
<feComposite in2="hardAlpha" operator="out"/>
<feColorMatrix type="matrix" values="0 0 0 0 0.00979167 0 0 0 0 0.117887 0 0 0 0 0.195833 0 0 0 1 0"/>
<feBlend mode="normal" in2="BackgroundImageFix" result="effect1_dropShadow_337_18"/>
<feBlend mode="normal" in="SourceGraphic" in2="effect1_dropShadow_337_18" result="shape"/>
</filter>
<filter id="filter4_d_337_18" x="465" y="250" width="225" height="107" filterUnits="userSpaceOnUse" color-interpolation-filters="sRGB">
<feFlood flood-opacity="0" result="BackgroundImageFix"/>
<feColorMatrix in="SourceAlpha" type="matrix" values="0 0 0 0 0 0 0 0 0 0 0 0 0 0 0 0 0 0 127 0" result="hardAlpha"/>
<feOffset dy="16"/>
<feGaussianBlur stdDeviation="15"/>
<feComposite in2="hardAlpha" operator="out"/>
<feColorMatrix type="matrix" values="0 0 0 0 0.00979167 0 0 0 0 0.117887 0 0 0 0 0.195833 0 0 0 1 0"/>
<feBlend mode="normal" in2="BackgroundImageFix" result="effect1_dropShadow_337_18"/>
<feBlend mode="normal" in="SourceGraphic" in2="effect1_dropShadow_337_18" result="shape"/>
</filter>
<filter id="filter5_d_337_18" x="25" y="316" width="225" height="107" filterUnits="userSpaceOnUse" color-interpolation-filters="sRGB">
<feFlood flood-opacity="0" result="BackgroundImageFix"/>
<feColorMatrix in="SourceAlpha" type="matrix" values="0 0 0 0 0 0 0 0 0 0 0 0 0 0 0 0 0 0 127 0" result="hardAlpha"/>
<feOffset dy="16"/>
<feGaussianBlur stdDeviation="15"/>
<feComposite in2="hardAlpha" operator="out"/>
<feColorMatrix type="matrix" values="0 0 0 0 0.00979167 0 0 0 0 0.117887 0 0 0 0 0.195833 0 0 0 1 0"/>
<feBlend mode="normal" in2="BackgroundImageFix" result="effect1_dropShadow_337_18"/>
<feBlend mode="normal" in="SourceGraphic" in2="effect1_dropShadow_337_18" result="shape"/>
</filter>
<filter id="filter6_d_337_18" x="177" y="418" width="225" height="107" filterUnits="userSpaceOnUse" color-interpolation-filters="sRGB">
<feFlood flood-opacity="0" result="BackgroundImageFix"/>
<feColorMatrix in="SourceAlpha" type="matrix" values="0 0 0 0 0 0 0 0 0 0 0 0 0 0 0 0 0 0 127 0" result="hardAlpha"/>
<feOffset dy="16"/>
<feGaussianBlur stdDeviation="15"/>
<feComposite in2="hardAlpha" operator="out"/>
<feColorMatrix type="matrix" values="0 0 0 0 0.00979167 0 0 0 0 0.117887 0 0 0 0 0.195833 0 0 0 1 0"/>
<feBlend mode="normal" in2="BackgroundImageFix" result="effect1_dropShadow_337_18"/>
<feBlend mode="normal" in="SourceGraphic" in2="effect1_dropShadow_337_18" result="shape"/>
</filter>
<filter id="filter7_d_337_18" x="404" y="363" width="225" height="107" filterUnits="userSpaceOnUse" color-interpolation-filters="sRGB">
<feFlood flood-opacity="0" result="BackgroundImageFix"/>
<feColorMatrix in="SourceAlpha" type="matrix" values="0 0 0 0 0 0 0 0 0 0 0 0 0 0 0 0 0 0 127 0" result="hardAlpha"/>
<feOffset dy="16"/>
<feGaussianBlur stdDeviation="15"/>
<feComposite in2="hardAlpha" operator="out"/>
<feColorMatrix type="matrix" values="0 0 0 0 0.00979167 0 0 0 0 0.117887 0 0 0 0 0.195833 0 0 0 1 0"/>
<feBlend mode="normal" in2="BackgroundImageFix" result="effect1_dropShadow_337_18"/>
<feBlend mode="normal" in="SourceGraphic" in2="effect1_dropShadow_337_18" result="shape"/>
</filter>
<radialGradient id="paint0_radial_337_18" cx="0" cy="0" r="1" gradientUnits="userSpaceOnUse" gradientTransform="translate(530 374) rotate(-149.036) scale(195.337 674.114)">
<stop offset="0.120359" stop-color="#000406"/>
<stop offset="0.715435" stop-color="#00546D" stop-opacity="0.38"/>
<stop offset="0.903765" stop-color="#5DD8FD" stop-opacity="0.46"/>
</radialGradient>
<linearGradient id="paint1_linear_337_18" x1="267" y1="335.5" x2="439.819" y2="304.633" gradientUnits="userSpaceOnUse">
<stop offset="0.411628" stop-color="#2F9EF0"/>
<stop offset="1" stop-color="#40D3FE"/>
</linearGradient>
<linearGradient id="paint2_linear_337_18" x1="267" y1="335.5" x2="363.177" y2="335.383" gradientUnits="userSpaceOnUse">
<stop offset="0.411628" stop-color="#1E92FF"/>
<stop offset="1" stop-color="#3FACFE"/>
</linearGradient>
<linearGradient id="paint3_linear_337_18" x1="263.5" y1="480" x2="427.141" y2="437.713" gradientUnits="userSpaceOnUse">
<stop offset="0.411628" stop-color="#018CF1"/>
<stop offset="1" stop-color="#008DF1"/>
</linearGradient>
<linearGradient id="paint4_linear_337_18" x1="263.5" y1="480" x2="427.141" y2="437.713" gradientUnits="userSpaceOnUse">
<stop offset="0.314129" stop-color="#066CCF"/>
<stop offset="1" stop-color="#0080FF"/>
</linearGradient>
<linearGradient id="paint5_linear_337_18" x1="608" y1="560" x2="704.033" y2="335.164" gradientUnits="userSpaceOnUse">
<stop offset="0.314129" stop-color="#005A9B"/>
<stop offset="1" stop-color="#0166FE"/>
</linearGradient>
<linearGradient id="paint6_linear_337_18" x1="608" y1="560" x2="704.033" y2="335.164" gradientUnits="userSpaceOnUse">
<stop offset="0.630306" stop-color="#005A9B"/>
<stop offset="1" stop-color="#0166FE"/>
</linearGradient>
<linearGradient id="paint7_linear_337_18" x1="256.5" y1="552" x2="656.479" y2="461.693" gradientUnits="userSpaceOnUse">
<stop offset="0.0401675" stop-color="#0194FE"/>
<stop offset="0.650747" stop-color="#5CD3E9"/>
</linearGradient>
<linearGradient id="paint8_linear_337_18" x1="394.936" y1="179.051" x2="266.566" y2="139.868" gradientUnits="userSpaceOnUse">
<stop stop-color="white"/>
<stop offset="0.803412" stop-color="white"/>
</linearGradient>
<linearGradient id="paint9_linear_337_18" x1="242.825" y1="62.9928" x2="275.696" y2="170.506" gradientUnits="userSpaceOnUse">
<stop offset="0.303689" stop-color="#35A5D5"/>
<stop offset="0.89827" stop-color="white"/>
</linearGradient>
<linearGradient id="paint10_linear_337_18" x1="182.975" y1="368.808" x2="237.21" y2="282.669" gradientUnits="userSpaceOnUse">
<stop offset="0.303689" stop-color="white"/>
<stop offset="0.89827" stop-color="white"/>
</linearGradient>
<linearGradient id="paint11_linear_337_18" x1="346.936" y1="239.051" x2="218.566" y2="199.868" gradientUnits="userSpaceOnUse">
<stop stop-color="white"/>
<stop offset="0.803412" stop-color="white"/>
</linearGradient>
<linearGradient id="paint12_linear_337_18" x1="194.825" y1="122.993" x2="217.759" y2="222.166" gradientUnits="userSpaceOnUse">
<stop offset="0.303689" stop-color="white"/>
<stop offset="0.89827" stop-color="white"/>
</linearGradient>
<linearGradient id="paint13_linear_337_18" x1="186.18" y1="-40.5488" x2="209.343" y2="92.3301" gradientUnits="userSpaceOnUse">
<stop offset="0.580613" stop-color="#3DBDF1"/>
<stop offset="1" stop-color="#1A6F92" stop-opacity="0.35"/>
</linearGradient>
<linearGradient id="paint14_linear_337_18" x1="316.969" y1="201.051" x2="445.34" y2="161.868" gradientUnits="userSpaceOnUse">
<stop stop-color="white"/>
<stop offset="0.803412" stop-color="white"/>
</linearGradient>
<linearGradient id="paint15_linear_337_18" x1="469.081" y1="84.9928" x2="436.209" y2="192.506" gradientUnits="userSpaceOnUse">
<stop offset="0.303689" stop-color="#35A5D5"/>
<stop offset="0.89827" stop-color="white"/>
</linearGradient>
<linearGradient id="paint16_linear_337_18" x1="63.1804" y1="-86.5488" x2="86.3431" y2="46.3301" gradientUnits="userSpaceOnUse">
<stop offset="0.580613" stop-color="#3DBDF1"/>
<stop offset="1" stop-color="#1A6F92" stop-opacity="0.35"/>
</linearGradient>
<linearGradient id="paint17_linear_337_18" x1="93.1804" y1="104.451" x2="116.343" y2="237.33" gradientUnits="userSpaceOnUse">
<stop offset="0.580613" stop-color="#3DBDF1"/>
<stop offset="1" stop-color="#1A6F92" stop-opacity="0.35"/>
</linearGradient>
<linearGradient id="paint18_linear_337_18" x1="322.969" y1="312.051" x2="451.34" y2="272.868" gradientUnits="userSpaceOnUse">
<stop stop-color="white"/>
<stop offset="0.803412" stop-color="white"/>
</linearGradient>
<linearGradient id="paint19_linear_337_18" x1="475.081" y1="195.993" x2="452.147" y2="295.166" gradientUnits="userSpaceOnUse">
<stop offset="0.303689" stop-color="white"/>
<stop offset="0.89827" stop-color="white"/>
</linearGradient>
<linearGradient id="paint20_linear_337_18" x1="63.1804" y1="-86.5488" x2="86.3431" y2="46.3301" gradientUnits="userSpaceOnUse">
<stop offset="0.580613" stop-color="#3DBDF1"/>
<stop offset="1" stop-color="#1A6F92" stop-opacity="0.35"/>
</linearGradient>
<linearGradient id="paint21_linear_337_18" x1="118.18" y1="243.451" x2="141.343" y2="376.33" gradientUnits="userSpaceOnUse">
<stop offset="0.580613" stop-color="#3DBDF1"/>
<stop offset="1" stop-color="#1A6F92" stop-opacity="0.35"/>
</linearGradient>
<linearGradient id="paint22_linear_337_18" x1="308.636" y1="479.661" x2="296.325" y2="378.618" gradientUnits="userSpaceOnUse">
<stop offset="0.303689" stop-color="white"/>
<stop offset="0.89827" stop-color="white"/>
</linearGradient>
<linearGradient id="paint23_linear_337_18" x1="430.155" y1="314.461" x2="301.785" y2="353.644" gradientUnits="userSpaceOnUse">
<stop stop-color="white"/>
<stop offset="0.803412" stop-color="white"/>
</linearGradient>
<linearGradient id="paint24_linear_337_18" x1="270.18" y1="345.451" x2="293.343" y2="478.33" gradientUnits="userSpaceOnUse">
<stop offset="0.580613" stop-color="#3DBDF1"/>
<stop offset="1" stop-color="#1A6F92" stop-opacity="0.35"/>
</linearGradient>
<linearGradient id="paint25_linear_337_18" x1="453.98" y1="407.037" x2="414.452" y2="313.235" gradientUnits="userSpaceOnUse">
<stop offset="0.303689" stop-color="white"/>
<stop offset="0.89827" stop-color="white"/>
</linearGradient>
<linearGradient id="paint26_linear_337_18" x1="285.969" y1="299.461" x2="414.34" y2="338.644" gradientUnits="userSpaceOnUse">
<stop stop-color="white"/>
<stop offset="0.803412" stop-color="white"/>
</linearGradient>
<linearGradient id="paint27_linear_337_18" x1="63.1804" y1="-86.5488" x2="86.3431" y2="46.3301" gradientUnits="userSpaceOnUse">
<stop offset="0.580613" stop-color="#3DBDF1"/>
<stop offset="1" stop-color="#1A6F92" stop-opacity="0.35"/>
</linearGradient>
</defs>
</svg>
