<svg width="1913" height="267" viewBox="0 0 1913 267" fill="none" xmlns="http://www.w3.org/2000/svg">
<path opacity="0.05" d="M238.611 97.8949H175.401C174.558 91.4053 172.83 85.5478 170.217 80.3224C167.605 75.0971 164.149 70.6302 159.851 66.9219C155.553 63.2135 150.454 60.3902 144.554 58.4517C138.739 56.429 132.291 55.4176 125.212 55.4176C112.654 55.4176 101.824 58.4938 92.7216 64.6463C83.7036 70.7988 76.7505 79.6903 71.8622 91.321C67.0582 102.952 64.6562 117.027 64.6562 133.545C64.6562 150.739 67.1004 165.151 71.9886 176.781C76.9612 188.328 83.9143 197.051 92.848 202.95C101.866 208.766 112.527 211.673 124.832 211.673C131.743 211.673 138.022 210.788 143.669 209.018C149.4 207.249 154.415 204.678 158.713 201.307C163.096 197.851 166.678 193.679 169.459 188.791C172.324 183.819 174.305 178.214 175.401 171.977L238.611 172.357C237.515 183.819 234.186 195.112 228.624 206.237C223.145 217.362 215.602 227.518 205.994 236.705C196.386 245.807 184.671 253.055 170.849 258.449C157.112 263.843 141.351 266.54 123.568 266.54C100.138 266.54 79.1525 261.399 60.6108 251.116C42.1534 240.75 27.5729 225.664 16.8693 205.858C6.16572 186.052 0.81392 161.948 0.81392 133.545C0.81392 105.059 6.25 80.9124 17.1222 61.1065C27.9943 41.3007 42.7012 26.2566 61.2429 15.9744C79.7846 5.69223 100.56 0.551127 123.568 0.551127C139.244 0.551127 153.741 2.74242 167.057 7.125C180.373 11.4233 192.088 17.7443 202.202 26.0881C212.315 34.3475 220.533 44.5033 226.854 56.5554C233.175 68.6075 237.094 82.3873 238.611 97.8949ZM274.419 263V4.0909H381.371C400.756 4.0909 417.485 7.58853 431.56 14.5838C445.719 21.4948 456.633 31.4399 464.303 44.419C471.972 57.3139 475.807 72.6108 475.807 90.3097C475.807 108.261 471.888 123.516 464.05 136.074C456.212 148.547 445.087 158.071 430.675 164.645C416.263 171.134 399.196 174.379 379.475 174.379H311.84V125.075H367.844C377.284 125.075 385.164 123.853 391.485 121.409C397.89 118.881 402.736 115.088 406.023 110.031C409.31 104.89 410.953 98.3163 410.953 90.3097C410.953 82.303 409.31 75.687 406.023 70.4616C402.736 65.152 397.89 61.1908 391.485 58.5781C385.079 55.8812 377.199 54.5327 367.844 54.5327H336.998V263H274.419ZM420.182 144.67L484.657 263H416.39L353.179 144.67H420.182ZM485.763 4.0909H555.673L610.413 112.433H612.689L667.429 4.0909H737.339L642.651 176.528V263H580.452V176.528L485.763 4.0909ZM763.572 263V4.0909H870.523C889.908 4.0909 906.638 7.88352 920.712 15.4688C934.871 22.9697 945.786 33.4626 953.455 46.9474C961.125 60.348 964.96 75.9399 964.96 93.723C964.96 111.59 961.04 127.224 953.202 140.625C945.449 153.941 934.366 164.266 919.954 171.598C905.542 178.93 888.433 182.597 868.627 182.597H802.636V133.293H856.996C866.436 133.293 874.316 131.649 880.637 128.362C887.042 125.075 891.889 120.482 895.175 114.582C898.462 108.598 900.106 101.645 900.106 93.723C900.106 85.7164 898.462 78.8054 895.175 72.9901C891.889 67.0904 887.042 62.5393 880.637 59.3366C874.232 56.134 866.352 54.5327 856.996 54.5327H826.15V263H763.572ZM987.336 54.9119V4.0909H1206.17V54.9119H1127.66V263H1065.97V54.9119H987.336ZM1469.28 133.545C1469.28 162.032 1463.8 186.179 1452.85 205.984C1441.89 225.79 1427.06 240.834 1408.35 251.116C1389.72 261.399 1368.82 266.54 1345.64 266.54C1322.38 266.54 1301.44 261.357 1282.81 250.99C1264.19 240.624 1249.4 225.58 1238.44 205.858C1227.57 186.052 1222.13 161.948 1222.13 133.545C1222.13 105.059 1227.57 80.9124 1238.44 61.1065C1249.4 41.3007 1264.19 26.2566 1282.81 15.9744C1301.44 5.69223 1322.38 0.551127 1345.64 0.551127C1368.82 0.551127 1389.72 5.69223 1408.35 15.9744C1427.06 26.2566 1441.89 41.3007 1452.85 61.1065C1463.8 80.9124 1469.28 105.059 1469.28 133.545ZM1405.31 133.545C1405.31 116.689 1402.91 102.446 1398.11 90.8153C1393.39 79.1846 1386.56 70.3774 1377.63 64.3935C1368.78 58.4096 1358.12 55.4176 1345.64 55.4176C1333.25 55.4176 1322.59 58.4096 1313.66 64.3935C1304.73 70.3774 1297.86 79.1846 1293.05 90.8153C1288.33 102.446 1285.97 116.689 1285.97 133.545C1285.97 150.402 1288.33 164.645 1293.05 176.276C1297.86 187.906 1304.73 196.714 1313.66 202.697C1322.59 208.681 1333.25 211.673 1345.64 211.673C1358.12 211.673 1368.78 208.681 1377.63 202.697C1386.56 196.714 1393.39 187.906 1398.11 176.276C1402.91 164.645 1405.31 150.402 1405.31 133.545ZM1601.52 263H1505.82V4.0909H1601.39C1627.77 4.0909 1650.48 9.27414 1669.53 19.6406C1688.66 29.9228 1703.41 44.7561 1713.78 64.1406C1724.15 83.4408 1729.33 106.534 1729.33 133.419C1729.33 160.389 1724.15 183.566 1713.78 202.95C1703.5 222.335 1688.79 237.21 1669.66 247.577C1650.53 257.859 1627.81 263 1601.52 263ZM1568.4 209.651H1599.12C1613.61 209.651 1625.88 207.206 1635.9 202.318C1646.02 197.346 1653.65 189.297 1658.79 178.172C1664.01 166.963 1666.62 152.045 1666.62 133.419C1666.62 114.793 1664.01 99.9598 1658.79 88.919C1653.56 77.794 1645.85 69.7874 1635.65 64.8991C1625.54 59.9266 1613.06 57.4403 1598.23 57.4403H1568.4V209.651ZM2010.24 133.545C2010.24 162.032 2004.76 186.179 1993.8 205.984C1982.84 225.79 1968.01 240.834 1949.3 251.116C1930.67 261.399 1909.77 266.54 1886.6 266.54C1863.33 266.54 1842.39 261.357 1823.77 250.99C1805.14 240.624 1790.35 225.58 1779.39 205.858C1768.52 186.052 1763.08 161.948 1763.08 133.545C1763.08 105.059 1768.52 80.9124 1779.39 61.1065C1790.35 41.3007 1805.14 26.2566 1823.77 15.9744C1842.39 5.69223 1863.33 0.551127 1886.6 0.551127C1909.77 0.551127 1930.67 5.69223 1949.3 15.9744C1968.01 26.2566 1982.84 41.3007 1993.8 61.1065C2004.76 80.9124 2010.24 105.059 2010.24 133.545ZM1946.27 133.545C1946.27 116.689 1943.86 102.446 1939.06 90.8153C1934.34 79.1846 1927.51 70.3774 1918.58 64.3935C1909.73 58.4096 1899.07 55.4176 1886.6 55.4176C1874.21 55.4176 1863.55 58.4096 1854.61 64.3935C1845.68 70.3774 1838.81 79.1846 1834.01 90.8153C1829.29 102.446 1826.93 116.689 1826.93 133.545C1826.93 150.402 1829.29 164.645 1834.01 176.276C1838.81 187.906 1845.68 196.714 1854.61 202.697C1863.55 208.681 1874.21 211.673 1886.6 211.673C1899.07 211.673 1909.73 208.681 1918.58 202.697C1927.51 196.714 1934.34 187.906 1939.06 176.276C1943.86 164.645 1946.27 150.402 1946.27 133.545Z" fill="url(#paint0_linear_7_3899)"/>
<defs>
<linearGradient id="paint0_linear_7_3899" x1="1006" y1="-195.421" x2="1006" y2="349" gradientUnits="userSpaceOnUse">
<stop offset="0.461356" stop-color="white" stop-opacity="0.7"/>
<stop offset="0.871639" stop-color="white" stop-opacity="0"/>
</linearGradient>
</defs>
</svg>
