<svg width="655" height="217" viewBox="0 0 655 217" fill="none" xmlns="http://www.w3.org/2000/svg">
<path opacity="0.06" d="M118.696 110.051L140.483 113.083C133.595 132.1 123.563 146.475 110.386 156.208C97.2087 165.941 82.4219 170.808 66.0254 170.808C46.0352 170.808 30.1628 164.706 18.4082 152.502C6.72852 140.298 0.888672 122.816 0.888672 100.056C0.888672 70.4072 9.79818 45.8874 27.6172 26.4961C43.4896 9.20117 63.2178 0.553711 86.8018 0.553711C104.246 0.553711 118.359 5.23307 129.141 14.5918C139.997 23.9505 146.286 36.5286 148.008 52.3262L127.456 54.2354C125.285 42.3311 120.793 33.459 113.979 27.6191C107.241 21.7044 98.5189 18.7471 87.8125 18.7471C67.6725 18.7471 51.3883 27.694 38.96 45.5879C28.1787 61.0111 22.7881 79.3167 22.7881 100.505C22.7881 117.425 26.9434 130.34 35.2539 139.25C43.5645 148.16 54.3831 152.614 67.71 152.614C79.0902 152.614 89.3848 148.908 98.5938 141.496C107.803 134.084 114.504 123.602 118.696 110.051ZM153.848 168L178.779 48.7324H196.748L191.694 73.1025C197.834 63.8936 203.823 57.0804 209.663 52.6631C215.578 48.2458 221.605 46.0371 227.744 46.0371C231.787 46.0371 236.766 47.4971 242.681 50.417L234.37 69.2842C230.851 66.7386 226.995 65.4658 222.803 65.4658C215.69 65.4658 208.39 69.4339 200.903 77.3701C193.416 85.3063 187.539 99.569 183.271 120.158L173.164 168H153.848ZM222.803 214.045L224.038 194.953C228.231 196.151 232.311 196.75 236.279 196.75C240.397 196.75 243.729 195.814 246.274 193.942C249.569 191.472 253.162 186.83 257.056 180.017L263.569 168.337L243.691 48.7324H263.682L272.666 109.04C274.463 120.944 275.998 132.849 277.271 144.753L330.615 48.7324H351.841L275.811 183.835C268.473 197.012 261.96 205.734 256.27 210.002C250.579 214.27 244.028 216.403 236.616 216.403C231.899 216.403 227.295 215.617 222.803 214.045ZM335.444 213.708L369.922 48.7324H388.677L385.195 65.3535C392.158 58.0911 398.372 53.0749 403.838 50.3047C409.378 47.4596 415.218 46.0371 421.357 46.0371C432.738 46.0371 442.171 50.1924 449.658 58.5029C457.145 66.7386 460.889 78.568 460.889 93.9912C460.889 106.42 458.83 117.762 454.712 128.02C450.594 138.202 445.54 146.4 439.551 152.614C433.561 158.828 427.497 163.396 421.357 166.315C415.218 169.235 408.929 170.695 402.49 170.695C388.19 170.695 377.109 163.433 369.248 148.908L355.771 213.708H335.444ZM375.649 119.26C375.649 128.169 376.286 134.346 377.559 137.79C379.43 142.657 382.5 146.587 386.768 149.582C391.035 152.577 395.977 154.074 401.592 154.074C413.271 154.074 422.705 147.523 429.893 134.421C437.08 121.244 440.674 107.805 440.674 94.1035C440.674 83.9961 438.241 76.2096 433.374 70.7441C428.582 65.2038 422.593 62.4336 415.405 62.4336C410.239 62.4336 405.448 63.8187 401.03 66.5889C396.613 69.2842 392.495 73.3646 388.677 78.8301C384.933 84.2207 381.826 90.8467 379.355 98.708C376.885 106.569 375.649 113.42 375.649 119.26ZM520.972 151.491L517.603 168.112C512.736 169.385 508.019 170.021 503.452 170.021C495.366 170.021 488.927 168.037 484.136 164.069C480.542 161.075 478.745 156.994 478.745 151.828C478.745 149.208 479.718 143.181 481.665 133.747L496.152 64.4551H480.093L483.35 48.7324H499.409L505.586 19.4209L528.833 5.38281L519.736 48.7324H539.727L536.357 64.4551H516.479L502.666 130.378C500.944 138.763 500.083 143.78 500.083 145.427C500.083 147.823 500.757 149.657 502.104 150.93C503.527 152.202 505.811 152.839 508.955 152.839C513.447 152.839 517.453 152.39 520.972 151.491ZM541.074 122.741C541.074 99.4567 547.925 80.1777 561.626 64.9043C572.931 52.3262 587.756 46.0371 606.099 46.0371C620.474 46.0371 632.041 50.5293 640.801 59.5137C649.635 68.498 654.053 80.627 654.053 95.9004C654.053 109.602 651.283 122.367 645.742 134.196C640.202 145.951 632.303 154.973 622.046 161.262C611.864 167.551 601.12 170.695 589.814 170.695C580.531 170.695 572.07 168.711 564.434 164.743C556.872 160.775 551.069 155.16 547.026 147.897C543.058 140.635 541.074 132.25 541.074 122.741ZM561.401 120.72C561.401 131.95 564.097 140.485 569.487 146.325C574.878 152.09 581.729 154.973 590.039 154.973C594.382 154.973 598.687 154.112 602.954 152.39C607.222 150.593 611.19 147.897 614.858 144.304C618.527 140.71 621.634 136.63 624.18 132.062C626.8 127.421 628.896 122.442 630.469 117.126C632.79 109.714 633.95 102.601 633.95 95.7881C633.95 85.0068 631.217 76.6589 625.752 70.7441C620.361 64.7546 613.548 61.7598 605.312 61.7598C598.949 61.7598 593.146 63.2946 587.905 66.3643C582.664 69.359 577.91 73.7764 573.643 79.6162C569.45 85.4561 566.343 92.2692 564.321 100.056C562.375 107.767 561.401 114.655 561.401 120.72Z" fill="url(#paint0_linear_7_4362)"/>
<defs>
<linearGradient id="paint0_linear_7_4362" x1="319" y1="-44" x2="319" y2="220" gradientUnits="userSpaceOnUse">
<stop offset="0.436735" stop-color="white"/>
<stop offset="1" stop-color="white" stop-opacity="0"/>
</linearGradient>
</defs>
</svg>
