<svg width="281" height="168" viewBox="0 0 281 168" fill="none" xmlns="http://www.w3.org/2000/svg">
<path opacity="0.06" d="M0.219727 165L34.585 0.361328H84.2236C96.1279 0.361328 105.225 1.22233 111.514 2.94434C120.498 5.2653 128.172 9.42057 134.536 15.4102C140.9 21.3249 145.692 28.737 148.911 37.6465C152.131 46.556 153.74 56.5511 153.74 67.6318C153.74 80.8838 151.719 92.9753 147.676 103.906C143.708 114.762 138.467 124.346 131.953 132.656C125.514 140.892 118.739 147.368 111.626 152.085C104.588 156.727 96.2402 160.171 86.582 162.417C79.2448 164.139 70.223 165 59.5166 165H0.219727ZM26.1621 146.357H52.2168C63.9714 146.357 74.4157 145.272 83.5498 143.101C89.2399 141.753 94.1064 139.769 98.1494 137.148C103.465 133.779 108.294 129.325 112.637 123.784C118.327 116.447 122.856 108.099 126.226 98.7402C129.67 89.3066 131.392 78.6003 131.392 66.6211C131.392 53.2943 129.071 43.0745 124.429 35.9619C119.787 28.7744 113.872 24.0202 106.685 21.6992C101.369 19.9772 93.0957 19.1162 81.8652 19.1162H52.7783L26.1621 146.357ZM167.441 119.741C167.441 96.4567 174.292 77.1777 187.993 61.9043C199.299 49.3262 214.123 43.0371 232.466 43.0371C246.841 43.0371 258.408 47.5293 267.168 56.5137C276.003 65.498 280.42 77.627 280.42 92.9004C280.42 106.602 277.65 119.367 272.109 131.196C266.569 142.951 258.67 151.973 248.413 158.262C238.231 164.551 227.487 167.695 216.182 167.695C206.898 167.695 198.438 165.711 190.801 161.743C183.239 157.775 177.437 152.16 173.394 144.897C169.425 137.635 167.441 129.25 167.441 119.741ZM187.769 117.72C187.769 128.95 190.464 137.485 195.854 143.325C201.245 149.09 208.096 151.973 216.406 151.973C220.749 151.973 225.054 151.112 229.321 149.39C233.589 147.593 237.557 144.897 241.226 141.304C244.894 137.71 248.001 133.63 250.547 129.062C253.167 124.421 255.264 119.442 256.836 114.126C259.157 106.714 260.317 99.6012 260.317 92.7881C260.317 82.0068 257.585 73.6589 252.119 67.7441C246.729 61.7546 239.915 58.7598 231.68 58.7598C225.316 58.7598 219.513 60.2946 214.272 63.3643C209.032 66.359 204.277 70.7764 200.01 76.6162C195.817 82.4561 192.71 89.2692 190.688 97.0557C188.742 104.767 187.769 111.655 187.769 117.72Z" fill="url(#paint0_linear_7_4363)"/>
<defs>
<linearGradient id="paint0_linear_7_4363" x1="137.5" y1="-47" x2="137.5" y2="217" gradientUnits="userSpaceOnUse">
<stop offset="0.436735" stop-color="white"/>
<stop offset="1" stop-color="white" stop-opacity="0"/>
</linearGradient>
</defs>
</svg>
