<svg width="678" height="588" viewBox="0 0 678 588" fill="none" xmlns="http://www.w3.org/2000/svg">
<g opacity="0.1">
<path opacity="0.1" d="M434.462 319.568L412.476 332.331L390.356 319.568L412.342 306.804L434.462 319.568Z" fill="#0071BC"/>
</g>
<g opacity="0.1">
<path opacity="0.1" d="M406.461 336.341L393.631 343.825L380.666 336.341L393.497 328.923L406.461 336.341Z" fill="#0071BC"/>
</g>
<g opacity="0.1">
<path opacity="0.1" d="M338.299 366.078L318.318 377.639L298.203 366.078L318.184 354.451L338.299 366.078Z" fill="#0071BC"/>
</g>
<g opacity="0.1">
<path opacity="0.1" d="M263.52 338.813L250.623 346.298L237.725 338.813L250.556 331.329L263.52 338.813Z" fill="#0071BC"/>
</g>
<g filter="url(#filter0_f_7_4423)">
<path d="M445.413 285.1C452.249 289.044 452.254 298.91 445.421 302.861L351.403 357.502C344.124 361.732 335.138 361.746 327.847 357.537L233.114 302.861C226.269 298.903 226.259 289.025 233.095 285.052L327.068 230.442C334.345 226.213 343.329 226.199 350.62 230.406L445.413 285.1Z" fill="url(#paint0_linear_7_4423)"/>
</g>
<path d="M460.791 263.674L460.724 269.087L339.635 339.455V334.043L460.791 263.674Z" fill="url(#paint1_linear_7_4423)"/>
<path d="M339.635 334.043V339.455L217.744 269.087V263.674L339.635 334.043Z" fill="url(#paint2_linear_7_4423)"/>
<path d="M460.791 263.674L339.635 334.042L217.744 263.674L338.833 193.306L460.791 263.674Z" fill="#000F2D"/>
<g filter="url(#filter1_b_7_4423)">
<path d="M439.34 263.674L339.568 321.613L239.195 263.674L338.967 205.736L439.34 263.674Z" fill="url(#paint3_linear_7_4423)" fill-opacity="0.3"/>
</g>
<g filter="url(#filter2_b_7_4423)">
<path d="M395.012 298.591C395.192 298.695 395.413 298.696 395.594 298.596C395.995 298.373 396 297.798 395.602 297.569L390.78 294.782C390.6 294.678 390.379 294.677 390.198 294.777C389.797 295 389.792 295.575 390.189 295.804L395.012 298.591ZM409.313 290.371C409.492 290.475 409.713 290.477 409.895 290.376C410.296 290.153 410.3 289.579 409.903 289.349L405.08 286.563C404.901 286.459 404.68 286.457 404.499 286.558C404.098 286.78 404.093 287.355 404.49 287.585L409.313 290.371ZM412.855 288.3C413.034 288.403 413.255 288.405 413.436 288.304C413.837 288.082 413.842 287.507 413.445 287.277L408.622 284.491C408.443 284.387 408.222 284.385 408.04 284.486C407.639 284.709 407.635 285.284 408.032 285.513L412.855 288.3ZM398.621 296.519C398.8 296.623 399.021 296.625 399.202 296.524C399.603 296.301 399.608 295.727 399.211 295.497L394.388 292.711C394.209 292.607 393.988 292.605 393.806 292.706C393.405 292.928 393.401 293.503 393.798 293.733L398.621 296.519ZM416.463 286.228C416.643 286.332 416.864 286.334 417.045 286.233C417.446 286.01 417.451 285.435 417.054 285.206L412.231 282.419C412.051 282.316 411.83 282.314 411.649 282.414C411.248 282.637 411.243 283.212 411.64 283.441L416.463 286.228ZM402.162 294.514C402.342 294.618 402.563 294.62 402.744 294.519C403.145 294.297 403.15 293.722 402.753 293.492L397.93 290.706C397.75 290.602 397.529 290.6 397.348 290.701C396.947 290.924 396.942 291.498 397.339 291.728L402.162 294.514ZM405.704 292.443C405.884 292.547 406.105 292.548 406.286 292.448C406.687 292.225 406.692 291.65 406.295 291.421L401.472 288.634C401.292 288.53 401.071 288.529 400.89 288.629C400.489 288.852 400.484 289.427 400.881 289.656L405.704 292.443ZM430.764 278.008C430.944 278.112 431.165 278.114 431.346 278.013C431.747 277.791 431.752 277.216 431.355 276.986L426.532 274.2C426.352 274.096 426.131 274.094 425.95 274.195C425.549 274.418 425.544 274.992 425.941 275.222L430.764 278.008ZM434.306 275.937C434.485 276.04 434.706 276.042 434.888 275.942C435.289 275.719 435.293 275.144 434.896 274.915L430.073 272.128C429.894 272.024 429.673 272.022 429.492 272.123C429.091 272.346 429.086 272.921 429.483 273.15L434.306 275.937ZM420.005 284.156C420.185 284.26 420.406 284.262 420.587 284.161C420.988 283.939 420.993 283.364 420.596 283.134L415.773 280.348C415.593 280.244 415.372 280.242 415.191 280.343C414.79 280.566 414.785 281.14 415.182 281.37L420.005 284.156ZM437.914 273.865C438.094 273.969 438.315 273.971 438.496 273.87C438.897 273.647 438.902 273.072 438.505 272.843L433.682 270.056C433.502 269.953 433.281 269.951 433.1 270.052C432.699 270.274 432.694 270.849 433.092 271.079L437.914 273.865ZM427.155 280.013C427.335 280.117 427.556 280.119 427.737 280.018C428.138 279.795 428.143 279.22 427.746 278.991L422.923 276.204C422.743 276.101 422.522 276.099 422.341 276.2C421.94 276.422 421.935 276.997 422.333 277.227L427.155 280.013ZM423.614 282.085C423.793 282.189 424.014 282.19 424.195 282.09C424.596 281.867 424.601 281.292 424.204 281.063L419.381 278.276C419.202 278.172 418.981 278.17 418.799 278.271C418.398 278.494 418.394 279.069 418.791 279.298L423.614 282.085ZM355.718 321.312C355.898 321.415 356.119 321.417 356.3 321.317C356.701 321.094 356.706 320.519 356.309 320.29L351.486 317.503C351.306 317.399 351.085 317.397 350.904 317.498C350.503 317.721 350.498 318.296 350.895 318.525L355.718 321.312ZM359.26 319.24C359.44 319.344 359.66 319.346 359.842 319.245C360.243 319.022 360.248 318.447 359.85 318.218L355.028 315.431C354.848 315.328 354.627 315.326 354.446 315.427C354.045 315.649 354.04 316.224 354.437 316.454L359.26 319.24ZM445.065 269.722C445.244 269.826 445.465 269.828 445.647 269.727C446.048 269.504 446.052 268.929 445.655 268.7L440.832 265.913C440.653 265.809 440.432 265.808 440.251 265.908C439.85 266.131 439.845 266.706 440.242 266.935L445.065 269.722ZM391.47 300.662C391.65 300.766 391.871 300.768 392.052 300.667C392.453 300.445 392.458 299.87 392.061 299.64L387.238 296.854C387.058 296.75 386.837 296.748 386.656 296.849C386.255 297.072 386.25 297.646 386.647 297.876L391.47 300.662ZM362.869 317.169C363.048 317.272 363.269 317.274 363.45 317.173C363.851 316.951 363.856 316.376 363.459 316.146L358.636 313.36C358.457 313.256 358.236 313.254 358.054 313.355C357.653 313.578 357.649 314.153 358.046 314.382L362.869 317.169ZM352.11 323.383C352.289 323.487 352.51 323.489 352.691 323.388C353.092 323.166 353.097 322.591 352.7 322.361L347.877 319.575C347.698 319.471 347.477 319.469 347.295 319.57C346.894 319.793 346.89 320.367 347.287 320.597L352.11 323.383ZM348.568 325.455C348.747 325.559 348.968 325.561 349.15 325.46C349.55 325.237 349.555 324.662 349.158 324.433L344.335 321.646C344.156 321.543 343.935 321.541 343.753 321.641C343.353 321.864 343.348 322.439 343.745 322.668L348.568 325.455ZM366.41 315.097C366.59 315.201 366.811 315.203 366.992 315.102C367.393 314.879 367.398 314.304 367.001 314.075L362.178 311.288C361.998 311.184 361.777 311.183 361.596 311.283C361.195 311.506 361.19 312.081 361.587 312.31L366.41 315.097ZM384.32 304.806C384.499 304.909 384.72 304.911 384.902 304.811C385.303 304.588 385.307 304.013 384.91 303.784L380.087 300.997C379.908 300.893 379.687 300.891 379.505 300.992C379.105 301.215 379.1 301.79 379.497 302.019L384.32 304.806ZM370.019 313.025C370.199 313.129 370.42 313.131 370.601 313.03C371.002 312.807 371.007 312.233 370.609 312.003L365.787 309.217C365.607 309.113 365.386 309.111 365.205 309.212C364.804 309.434 364.799 310.009 365.196 310.239L370.019 313.025ZM380.711 306.877C380.891 306.981 381.112 306.983 381.293 306.882C381.694 306.659 381.699 306.085 381.302 305.855L376.479 303.069C376.299 302.965 376.078 302.963 375.897 303.064C375.496 303.286 375.491 303.861 375.888 304.091L380.711 306.877ZM387.862 302.734C388.041 302.838 388.262 302.84 388.443 302.739C388.844 302.516 388.849 301.941 388.452 301.712L383.629 298.925C383.45 298.822 383.229 298.82 383.047 298.92C382.646 299.143 382.642 299.718 383.039 299.947L387.862 302.734ZM373.561 311.02C373.74 311.124 373.961 311.126 374.143 311.025C374.544 310.803 374.548 310.228 374.151 309.998L369.328 307.212C369.149 307.108 368.928 307.106 368.746 307.207C368.346 307.43 368.341 308.004 368.738 308.234L373.561 311.02ZM377.169 308.949C377.349 309.053 377.57 309.055 377.751 308.954C378.152 308.731 378.157 308.156 377.76 307.927L372.937 305.14C372.757 305.036 372.536 305.035 372.355 305.135C371.954 305.358 371.949 305.933 372.346 306.162L377.169 308.949ZM441.456 271.793C441.636 271.897 441.857 271.899 442.038 271.798C442.439 271.576 442.444 271.001 442.047 270.771L437.224 267.985C437.044 267.881 436.823 267.879 436.642 267.98C436.241 268.203 436.236 268.777 436.633 269.007L441.456 271.793ZM306.247 305.069C306.066 304.968 305.845 304.97 305.665 305.073L300.842 307.86C300.445 308.089 300.45 308.664 300.851 308.887C301.032 308.988 301.253 308.986 301.433 308.882L306.256 306.095C306.653 305.866 306.648 305.291 306.247 305.069ZM302.639 302.997C302.457 302.896 302.236 302.898 302.057 303.002L297.234 305.788C296.837 306.018 296.842 306.593 297.242 306.815C297.424 306.916 297.645 306.914 297.824 306.81L302.647 304.024C303.044 303.794 303.039 303.22 302.639 302.997ZM338.73 323.816C338.337 323.609 337.865 323.619 337.48 323.841L332.986 326.438C332.589 326.667 332.594 327.242 332.994 327.465C333.176 327.565 333.397 327.564 333.576 327.46L336.265 325.907C338.143 324.821 340.459 324.821 342.338 325.907L345.026 327.46C345.206 327.564 345.426 327.565 345.608 327.465C346.009 327.242 346.014 326.667 345.616 326.438L341.088 323.821C340.727 323.613 340.282 323.614 339.923 323.826C339.578 324.029 339.152 324.039 338.798 323.852L338.73 323.816ZM299.097 300.925C298.915 300.825 298.694 300.826 298.515 300.93L293.692 303.717C293.295 303.946 293.3 304.521 293.701 304.744C293.882 304.844 294.103 304.843 294.283 304.739L299.105 301.952C299.502 301.723 299.498 301.148 299.097 300.925ZM313.398 309.212C313.216 309.111 312.995 309.113 312.816 309.217L307.993 312.003C307.596 312.233 307.601 312.807 308.001 313.03C308.183 313.131 308.404 313.129 308.583 313.025L313.406 310.239C313.803 310.009 313.798 309.434 313.398 309.212ZM291.946 296.849C291.765 296.748 291.544 296.75 291.364 296.854L286.542 299.64C286.144 299.87 286.149 300.445 286.55 300.667C286.732 300.768 286.952 300.766 287.132 300.662L291.955 297.876C292.352 297.646 292.347 297.072 291.946 296.849ZM295.488 298.921C295.307 298.82 295.086 298.822 294.906 298.925L290.083 301.712C289.686 301.941 289.691 302.516 290.092 302.739C290.273 302.84 290.494 302.838 290.674 302.734L295.497 299.947C295.894 299.718 295.889 299.143 295.488 298.921ZM324.09 315.427C323.908 315.326 323.688 315.328 323.508 315.431L318.685 318.218C318.288 318.447 318.293 319.022 318.694 319.245C318.875 319.346 319.096 319.344 319.276 319.24L324.098 316.454C324.495 316.224 324.491 315.649 324.09 315.427ZM331.24 319.503C331.059 319.402 330.838 319.404 330.658 319.508L325.835 322.294C325.438 322.524 325.443 323.099 325.844 323.321C326.025 323.422 326.246 323.42 326.426 323.317L331.249 320.53C331.646 320.301 331.641 319.726 331.24 319.503ZM334.849 321.575C334.667 321.474 334.447 321.476 334.267 321.579L329.444 324.366C329.047 324.595 329.052 325.17 329.453 325.393C329.634 325.494 329.855 325.492 330.035 325.388L334.857 322.602C335.255 322.372 335.25 321.797 334.849 321.575ZM316.939 311.283C316.758 311.183 316.537 311.184 316.357 311.288L311.535 314.075C311.138 314.304 311.142 314.879 311.543 315.102C311.725 315.203 311.945 315.201 312.125 315.097L316.948 312.31C317.345 312.081 317.34 311.506 316.939 311.283ZM327.698 317.431C327.517 317.331 327.296 317.332 327.117 317.436L322.294 320.223C321.897 320.452 321.901 321.027 322.302 321.25C322.484 321.351 322.705 321.349 322.884 321.245L327.707 318.458C328.104 318.229 328.099 317.654 327.698 317.431ZM320.548 313.355C320.367 313.254 320.146 313.256 319.966 313.36L315.143 316.146C314.746 316.376 314.751 316.951 315.152 317.173C315.333 317.274 315.554 317.272 315.734 317.169L320.557 314.382C320.954 314.153 320.949 313.578 320.548 313.355ZM288.338 294.777C288.156 294.677 287.935 294.678 287.756 294.782L282.933 297.569C282.536 297.798 282.541 298.373 282.942 298.596C283.123 298.696 283.344 298.695 283.523 298.591L288.346 295.804C288.743 295.575 288.739 295 288.338 294.777ZM309.789 307.14C309.608 307.039 309.387 307.041 309.207 307.145L304.384 309.932C303.987 310.161 303.992 310.736 304.393 310.959C304.574 311.059 304.795 311.057 304.975 310.954L309.798 308.167C310.195 307.938 310.19 307.363 309.789 307.14ZM259.736 278.271C259.555 278.17 259.334 278.172 259.154 278.276L254.331 281.063C253.934 281.292 253.939 281.867 254.34 282.09C254.521 282.19 254.742 282.189 254.922 282.085L259.745 279.298C260.142 279.069 260.137 278.494 259.736 278.271ZM256.194 276.2C256.013 276.099 255.792 276.101 255.612 276.204L250.79 278.991C250.392 279.22 250.397 279.795 250.798 280.018C250.98 280.119 251.2 280.117 251.38 280.013L256.203 277.227C256.6 276.997 256.595 276.422 256.194 276.2ZM284.796 292.706C284.615 292.605 284.394 292.607 284.214 292.711L279.391 295.497C278.994 295.727 278.999 296.301 279.4 296.524C279.581 296.625 279.802 296.623 279.982 296.519L284.805 293.733C285.202 293.503 285.197 292.928 284.796 292.706ZM252.653 274.128C252.471 274.027 252.25 274.029 252.071 274.133L247.248 276.919C246.851 277.149 246.855 277.724 247.256 277.946C247.438 278.047 247.659 278.045 247.838 277.941L252.661 275.155C253.058 274.925 253.053 274.351 252.653 274.128ZM238.352 265.908C238.17 265.808 237.949 265.809 237.77 265.913L232.947 268.7C232.55 268.929 232.555 269.504 232.956 269.727C233.137 269.828 233.358 269.826 233.537 269.722L238.36 266.935C238.757 266.706 238.753 266.131 238.352 265.908ZM241.893 267.913C241.712 267.812 241.491 267.814 241.312 267.918L236.489 270.705C236.092 270.934 236.096 271.509 236.497 271.732C236.679 271.832 236.9 271.83 237.079 271.727L241.902 268.94C242.299 268.711 242.294 268.136 241.893 267.913ZM245.502 269.985C245.321 269.884 245.1 269.886 244.92 269.99L240.097 272.776C239.7 273.006 239.705 273.58 240.106 273.803C240.287 273.904 240.508 273.902 240.688 273.798L245.511 271.012C245.908 270.782 245.903 270.207 245.502 269.985ZM277.646 288.562C277.464 288.462 277.243 288.464 277.064 288.567L272.241 291.354C271.844 291.583 271.849 292.158 272.249 292.381C272.431 292.482 272.652 292.48 272.831 292.376L277.654 289.589C278.051 289.36 278.046 288.785 277.646 288.562ZM274.037 286.491C273.856 286.39 273.635 286.392 273.455 286.496L268.632 289.282C268.235 289.512 268.24 290.087 268.641 290.309C268.822 290.41 269.043 290.408 269.223 290.304L274.046 287.518C274.443 287.288 274.438 286.714 274.037 286.491ZM263.345 280.343C263.163 280.242 262.942 280.244 262.763 280.348L257.94 283.134C257.543 283.364 257.548 283.939 257.949 284.161C258.13 284.262 258.351 284.26 258.53 284.156L263.353 281.37C263.75 281.14 263.746 280.566 263.345 280.343ZM281.187 290.634C281.006 290.533 280.785 290.535 280.605 290.639L275.783 293.426C275.385 293.655 275.39 294.23 275.791 294.452C275.973 294.553 276.193 294.551 276.373 294.448L281.196 291.661C281.593 291.432 281.588 290.857 281.187 290.634ZM266.887 282.414C266.705 282.314 266.484 282.316 266.305 282.419L261.482 285.206C261.085 285.435 261.089 286.01 261.49 286.233C261.672 286.334 261.893 286.332 262.072 286.228L266.895 283.441C267.292 283.212 267.287 282.637 266.887 282.414ZM270.495 284.419C270.314 284.318 270.093 284.32 269.913 284.424L265.09 287.211C264.693 287.44 264.698 288.015 265.099 288.238C265.28 288.338 265.501 288.337 265.681 288.233L270.504 285.446C270.901 285.217 270.896 284.642 270.495 284.419ZM249.044 272.056C248.863 271.956 248.642 271.957 248.462 272.061L243.639 274.848C243.242 275.077 243.247 275.652 243.648 275.875C243.829 275.976 244.05 275.974 244.23 275.87L249.053 273.083C249.45 272.854 249.445 272.279 249.044 272.056ZM237.77 261.435C237.949 261.539 238.17 261.541 238.352 261.44C238.753 261.218 238.757 260.643 238.36 260.413L233.537 257.627C233.358 257.523 233.137 257.521 232.956 257.622C232.555 257.845 232.55 258.419 232.947 258.649L237.77 261.435ZM244.92 257.359C245.1 257.463 245.321 257.465 245.502 257.364C245.903 257.141 245.908 256.566 245.511 256.337L240.688 253.55C240.508 253.447 240.287 253.445 240.106 253.545C239.705 253.768 239.7 254.343 240.097 254.572L244.92 257.359ZM319.966 213.989C320.146 214.093 320.367 214.094 320.548 213.994C320.949 213.771 320.954 213.196 320.557 212.967L315.734 210.18C315.554 210.076 315.333 210.075 315.152 210.175C314.751 210.398 314.746 210.973 315.143 211.202L319.966 213.989ZM316.357 216.06C316.537 216.164 316.758 216.166 316.939 216.065C317.34 215.843 317.345 215.268 316.948 215.038L312.125 212.252C311.945 212.148 311.725 212.146 311.543 212.247C311.142 212.47 311.138 213.044 311.535 213.274L316.357 216.06ZM241.312 259.364C241.491 259.468 241.712 259.469 241.893 259.369C242.294 259.146 242.299 258.571 241.902 258.342L237.079 255.555C236.9 255.451 236.679 255.45 236.497 255.55C236.096 255.773 236.092 256.348 236.489 256.577L241.312 259.364ZM323.508 211.917C323.688 212.021 323.908 212.023 324.09 211.922C324.491 211.699 324.495 211.125 324.098 210.895L319.276 208.109C319.096 208.005 318.875 208.003 318.694 208.104C318.293 208.326 318.288 208.901 318.685 209.131L323.508 211.917ZM248.462 255.287C248.642 255.391 248.863 255.393 249.044 255.292C249.445 255.07 249.45 254.495 249.053 254.265L244.23 251.479C244.05 251.375 243.829 251.373 243.648 251.474C243.247 251.697 243.242 252.271 243.639 252.501L248.462 255.287ZM252.071 253.216C252.25 253.32 252.471 253.321 252.653 253.221C253.053 252.998 253.058 252.423 252.661 252.194L247.838 249.407C247.659 249.303 247.438 249.302 247.256 249.402C246.855 249.625 246.851 250.2 247.248 250.429L252.071 253.216ZM309.207 220.204C309.387 220.307 309.608 220.309 309.789 220.209C310.19 219.986 310.195 219.411 309.798 219.182L304.975 216.395C304.795 216.291 304.574 216.289 304.393 216.39C303.992 216.613 303.987 217.188 304.384 217.417L309.207 220.204ZM298.515 226.352C298.694 226.455 298.915 226.457 299.097 226.357C299.498 226.134 299.502 225.559 299.105 225.33L294.283 222.543C294.103 222.439 293.882 222.437 293.701 222.538C293.3 222.761 293.295 223.336 293.692 223.565L298.515 226.352ZM255.612 251.144C255.792 251.248 256.013 251.25 256.194 251.149C256.595 250.926 256.6 250.352 256.203 250.122L251.38 247.336C251.2 247.232 250.98 247.23 250.798 247.331C250.397 247.553 250.392 248.128 250.79 248.358L255.612 251.144ZM234.451 263.674L229.338 266.628C228.941 266.858 228.946 267.432 229.347 267.655C229.528 267.756 229.749 267.754 229.929 267.65L234.462 265.031C234.987 264.728 234.98 263.969 234.451 263.674C234.98 263.38 234.987 262.621 234.462 262.318L229.929 259.698C229.749 259.595 229.528 259.593 229.347 259.694C228.946 259.916 228.941 260.491 229.338 260.72L234.451 263.674ZM294.906 228.423C295.086 228.527 295.307 228.529 295.488 228.428C295.889 228.205 295.894 227.631 295.497 227.401L290.674 224.615C290.494 224.511 290.273 224.509 290.092 224.61C289.691 224.832 289.686 225.407 290.083 225.637L294.906 228.423ZM302.057 224.347C302.236 224.451 302.457 224.452 302.639 224.352C303.039 224.129 303.044 223.554 302.647 223.325L297.824 220.538C297.645 220.434 297.424 220.433 297.242 220.533C296.842 220.756 296.837 221.331 297.234 221.56L302.057 224.347ZM287.756 232.566C287.935 232.67 288.156 232.672 288.338 232.571C288.739 232.349 288.743 231.774 288.346 231.544L283.523 228.758C283.344 228.654 283.123 228.652 282.942 228.753C282.541 228.976 282.536 229.55 282.933 229.78L287.756 232.566ZM312.816 218.132C312.995 218.236 313.216 218.238 313.398 218.137C313.798 217.914 313.803 217.339 313.406 217.11L308.583 214.323C308.404 214.22 308.183 214.218 308.001 214.318C307.601 214.541 307.596 215.116 307.993 215.345L312.816 218.132ZM291.364 230.495C291.544 230.599 291.765 230.6 291.946 230.5C292.347 230.277 292.352 229.702 291.955 229.473L287.132 226.686C286.952 226.582 286.732 226.581 286.55 226.681C286.149 226.904 286.144 227.479 286.542 227.708L291.364 230.495ZM262.763 247.001C262.942 247.105 263.163 247.107 263.345 247.006C263.746 246.783 263.75 246.208 263.353 245.979L258.53 243.192C258.351 243.089 258.13 243.087 257.949 243.187C257.548 243.41 257.543 243.985 257.94 244.214L262.763 247.001ZM266.305 244.929C266.484 245.033 266.705 245.035 266.887 244.934C267.287 244.712 267.292 244.137 266.895 243.907L262.072 241.121C261.893 241.017 261.672 241.015 261.49 241.116C261.089 241.339 261.085 241.913 261.482 242.143L266.305 244.929ZM269.913 242.858C270.093 242.961 270.314 242.963 270.495 242.863C270.896 242.64 270.901 242.065 270.504 241.836L265.681 239.049C265.501 238.945 265.28 238.943 265.099 239.044C264.698 239.267 264.693 239.842 265.09 240.071L269.913 242.858ZM330.658 207.841C330.838 207.945 331.059 207.946 331.24 207.846C331.641 207.623 331.646 207.048 331.249 206.819L326.426 204.032C326.246 203.928 326.025 203.926 325.844 204.027C325.443 204.25 325.438 204.825 325.835 205.054L330.658 207.841ZM280.605 236.71C280.785 236.813 281.006 236.815 281.187 236.715C281.588 236.492 281.593 235.917 281.196 235.688L276.373 232.901C276.193 232.797 275.973 232.795 275.791 232.896C275.39 233.119 275.385 233.694 275.783 233.923L280.605 236.71ZM273.455 240.853C273.635 240.957 273.856 240.959 274.037 240.858C274.438 240.635 274.443 240.06 274.046 239.831L269.223 237.044C269.043 236.941 268.822 236.939 268.641 237.039C268.24 237.262 268.235 237.837 268.632 238.066L273.455 240.853ZM334.267 205.769C334.447 205.873 334.667 205.875 334.849 205.774C335.25 205.551 335.255 204.977 334.857 204.747L330.035 201.961C329.855 201.857 329.634 201.855 329.453 201.956C329.052 202.178 329.047 202.753 329.444 202.983L334.267 205.769ZM327.117 209.846C327.296 209.949 327.517 209.951 327.698 209.85C328.099 209.628 328.104 209.053 327.707 208.823L322.884 206.037C322.705 205.933 322.484 205.931 322.302 206.032C321.901 206.255 321.897 206.83 322.294 207.059L327.117 209.846ZM277.064 238.781C277.243 238.885 277.464 238.887 277.646 238.786C278.046 238.563 278.051 237.989 277.654 237.759L272.831 234.973C272.652 234.869 272.431 234.867 272.249 234.968C271.849 235.191 271.844 235.765 272.241 235.995L277.064 238.781ZM259.154 249.073C259.334 249.176 259.555 249.178 259.736 249.077C260.137 248.855 260.142 248.28 259.745 248.05L254.922 245.264C254.742 245.16 254.521 245.158 254.34 245.259C253.939 245.482 253.934 246.057 254.331 246.286L259.154 249.073ZM284.214 234.638C284.394 234.742 284.615 234.744 284.796 234.643C285.197 234.42 285.202 233.845 284.805 233.616L279.982 230.829C279.802 230.726 279.581 230.724 279.4 230.825C278.999 231.047 278.994 231.622 279.391 231.852L284.214 234.638ZM305.665 222.275C305.845 222.379 306.066 222.381 306.247 222.28C306.648 222.057 306.653 221.483 306.256 221.253L301.433 218.467C301.253 218.363 301.032 218.361 300.851 218.462C300.45 218.684 300.445 219.259 300.842 219.489L305.665 222.275ZM415.191 247.006C415.372 247.107 415.593 247.105 415.773 247.001L420.596 244.214C420.993 243.985 420.988 243.41 420.587 243.187C420.406 243.087 420.185 243.089 420.005 243.192L415.182 245.979C414.785 246.208 414.79 246.783 415.191 247.006ZM444.018 263.674C443.51 263.973 443.513 264.707 444.023 265.002L448.608 267.651C448.787 267.754 449.007 267.756 449.187 267.656C449.588 267.433 449.591 266.859 449.193 266.632L444.018 263.674L449.193 260.717C449.591 260.49 449.588 259.915 449.187 259.693C449.007 259.593 448.787 259.594 448.608 259.698L444.023 262.347C443.513 262.641 443.51 263.376 444.018 263.674ZM390.198 232.571C390.379 232.672 390.6 232.67 390.78 232.566L395.602 229.78C396 229.55 395.995 228.976 395.594 228.753C395.413 228.652 395.192 228.654 395.012 228.758L390.189 231.544C389.792 231.774 389.797 232.349 390.198 232.571ZM440.184 261.44C440.365 261.541 440.586 261.539 440.766 261.435L445.589 258.649C445.986 258.419 445.981 257.845 445.58 257.622C445.399 257.521 445.178 257.523 444.998 257.627L440.175 260.413C439.778 260.643 439.783 261.218 440.184 261.44ZM436.642 259.369C436.823 259.469 437.044 259.468 437.224 259.364L442.047 256.577C442.444 256.348 442.439 255.773 442.038 255.55C441.857 255.45 441.636 255.451 441.456 255.555L436.633 258.342C436.236 258.571 436.241 259.146 436.642 259.369ZM422.341 251.149C422.522 251.25 422.743 251.248 422.923 251.144L427.746 248.358C428.143 248.128 428.138 247.553 427.737 247.331C427.556 247.23 427.335 247.232 427.155 247.336L422.333 250.122C421.935 250.352 421.94 250.926 422.341 251.149ZM425.883 253.221C426.064 253.321 426.285 253.32 426.465 253.216L431.288 250.429C431.685 250.2 431.68 249.625 431.279 249.402C431.098 249.302 430.877 249.303 430.697 249.407L425.874 252.194C425.477 252.423 425.482 252.998 425.883 253.221ZM433.033 257.364C433.215 257.465 433.436 257.463 433.615 257.359L438.438 254.572C438.835 254.343 438.83 253.768 438.429 253.545C438.248 253.445 438.027 253.447 437.848 253.55L433.025 256.337C432.628 256.566 432.632 257.141 433.033 257.364ZM418.732 249.077C418.914 249.178 419.135 249.176 419.314 249.073L424.137 246.286C424.534 246.057 424.53 245.482 424.129 245.259C423.947 245.158 423.726 245.16 423.547 245.264L418.724 248.05C418.327 248.28 418.332 248.855 418.732 249.077ZM429.492 255.292C429.673 255.393 429.894 255.391 430.073 255.287L434.896 252.501C435.293 252.271 435.289 251.697 434.888 251.474C434.706 251.373 434.485 251.375 434.306 251.479L429.483 254.265C429.086 254.495 429.091 255.07 429.492 255.292ZM411.582 244.934C411.763 245.035 411.984 245.033 412.164 244.929L416.987 242.143C417.384 241.913 417.379 241.339 416.978 241.116C416.797 241.015 416.576 241.017 416.396 241.121L411.573 243.907C411.176 244.137 411.181 244.712 411.582 244.934ZM368.746 220.209C368.928 220.309 369.149 220.307 369.328 220.204L374.151 217.417C374.548 217.188 374.544 216.613 374.143 216.39C373.961 216.289 373.74 216.291 373.561 216.395L368.738 219.182C368.341 219.411 368.346 219.986 368.746 220.209ZM372.288 222.28C372.47 222.381 372.691 222.379 372.87 222.275L377.693 219.489C378.09 219.259 378.085 218.684 377.684 218.462C377.503 218.361 377.282 218.363 377.103 218.467L372.28 221.253C371.883 221.483 371.887 222.057 372.288 222.28ZM357.987 213.994C358.169 214.094 358.39 214.093 358.569 213.989L363.392 211.202C363.789 210.973 363.784 210.398 363.384 210.175C363.202 210.075 362.981 210.076 362.802 210.18L357.979 212.967C357.582 213.196 357.587 213.771 357.987 213.994ZM361.596 216.065C361.777 216.166 361.998 216.164 362.178 216.06L367.001 213.274C367.398 213.044 367.393 212.47 366.992 212.247C366.811 212.146 366.59 212.148 366.41 212.252L361.587 215.038C361.19 215.268 361.195 215.843 361.596 216.065ZM365.138 218.137C365.319 218.238 365.54 218.236 365.72 218.132L370.543 215.345C370.94 215.116 370.935 214.541 370.534 214.318C370.353 214.218 370.132 214.22 369.952 214.323L365.129 217.11C364.732 217.339 364.737 217.914 365.138 218.137ZM386.589 230.5C386.77 230.6 386.991 230.599 387.171 230.495L391.994 227.708C392.391 227.479 392.386 226.904 391.985 226.681C391.804 226.581 391.583 226.582 391.403 226.686L386.58 229.473C386.183 229.702 386.188 230.277 386.589 230.5ZM383.047 228.428C383.229 228.529 383.45 228.527 383.629 228.423L388.452 225.637C388.849 225.407 388.844 224.832 388.443 224.61C388.262 224.509 388.041 224.511 387.862 224.615L383.039 227.401C382.642 227.631 382.646 228.205 383.047 228.428ZM379.439 226.357C379.62 226.457 379.841 226.455 380.021 226.352L384.843 223.565C385.241 223.336 385.236 222.761 384.835 222.538C384.653 222.437 384.433 222.439 384.253 222.543L379.43 225.33C379.033 225.559 379.038 226.134 379.439 226.357ZM375.897 224.352C376.078 224.452 376.299 224.451 376.479 224.347L381.302 221.56C381.699 221.331 381.694 220.756 381.293 220.533C381.112 220.433 380.891 220.434 380.711 220.538L375.888 223.325C375.491 223.554 375.496 224.129 375.897 224.352ZM404.432 240.858C404.613 240.959 404.834 240.957 405.014 240.853L409.836 238.066C410.234 237.837 410.229 237.262 409.828 237.039C409.646 236.939 409.426 236.941 409.246 237.044L404.423 239.831C404.026 240.06 404.031 240.635 404.432 240.858ZM354.446 211.922C354.627 212.023 354.848 212.021 355.028 211.917L359.85 209.131C360.248 208.901 360.243 208.326 359.842 208.104C359.66 208.003 359.44 208.005 359.26 208.109L354.437 210.895C354.04 211.125 354.045 211.699 354.446 211.922ZM397.281 236.715C397.463 236.815 397.684 236.813 397.863 236.71L402.686 233.923C403.083 233.694 403.078 233.119 402.677 232.896C402.496 232.795 402.275 232.797 402.096 232.901L397.273 235.688C396.876 235.917 396.88 236.492 397.281 236.715ZM408.04 242.863C408.222 242.963 408.443 242.961 408.622 242.858L413.445 240.071C413.842 239.842 413.837 239.267 413.436 239.044C413.255 238.943 413.034 238.945 412.855 239.049L408.032 241.836C407.635 242.065 407.639 242.64 408.04 242.863ZM393.74 234.643C393.921 234.744 394.142 234.742 394.321 234.638L399.144 231.852C399.541 231.622 399.537 231.047 399.136 230.825C398.954 230.724 398.733 230.726 398.554 230.829L393.731 233.616C393.334 233.845 393.339 234.42 393.74 234.643ZM400.89 238.786C401.071 238.887 401.292 238.885 401.472 238.781L406.295 235.995C406.692 235.765 406.687 235.191 406.286 234.968C406.105 234.867 405.884 234.869 405.704 234.973L400.881 237.759C400.484 237.989 400.489 238.563 400.89 238.786ZM339.234 203.13L333.509 199.822C333.33 199.718 333.109 199.716 332.928 199.817C332.527 200.04 332.522 200.615 332.919 200.844L336.84 203.11C337.579 203.537 338.488 203.544 339.234 203.13C339.932 203.581 340.823 203.603 341.542 203.188L345.482 200.911C345.879 200.682 345.875 200.106 345.473 199.883C345.292 199.783 345.072 199.784 344.893 199.887L339.234 203.13ZM350.837 209.85C351.018 209.951 351.239 209.949 351.419 209.846L356.242 207.059C356.639 206.83 356.634 206.255 356.233 206.032C356.052 205.931 355.831 205.933 355.651 206.037L350.828 208.823C350.431 209.053 350.436 209.628 350.837 209.85ZM347.295 207.846C347.477 207.946 347.698 207.945 347.877 207.841L352.7 205.054C353.097 204.825 353.092 204.25 352.691 204.027C352.51 203.926 352.289 203.928 352.11 204.032L347.287 206.819C346.89 207.048 346.894 207.623 347.295 207.846ZM343.687 205.774C343.868 205.875 344.089 205.873 344.269 205.769L349.091 202.983C349.489 202.753 349.484 202.178 349.083 201.956C348.901 201.855 348.681 201.857 348.501 201.961L343.678 204.747C343.281 204.977 343.286 205.551 343.687 205.774Z" fill="url(#paint4_linear_7_4423)" fill-opacity="0.6"/>
</g>
<path d="M394.433 257.753L394.366 271.92L339.435 303.863V289.696L394.433 257.753Z" fill="url(#paint5_linear_7_4423)"/>
<path d="M339.435 289.696V303.863L284.103 271.92V257.753L339.435 289.696Z" fill="url(#paint6_linear_7_4423)"/>
<path d="M394.433 257.753L339.435 289.696L284.103 257.753L339.101 225.81L394.433 257.753Z" fill="url(#paint7_linear_7_4423)"/>
<path d="M285.305 257.753L339.1 226.479L393.296 257.753L339.435 289.028L285.305 257.753Z" fill="url(#paint8_linear_7_4423)"/>
<path d="M304.885 257.753L339.167 237.839L373.65 257.753L339.368 277.667L304.885 257.753Z" stroke="#0194FE" stroke-miterlimit="10"/>
<path d="M306.823 256.417L308.227 255.615L302.947 252.541L301.544 253.343L306.823 256.417ZM346.919 279.539L348.322 278.737L343.043 275.663L341.64 276.531L346.919 279.539ZM352.666 276.264L354.069 275.462L348.79 272.388L347.387 273.19L352.666 276.264ZM358.413 272.923L359.817 272.121L354.537 269.047L353.134 269.849L358.413 272.923ZM312.57 253.075L313.974 252.273L308.694 249.199L307.291 250.001L312.57 253.075ZM314.442 269.648L319.721 266.574L318.317 265.772L313.038 268.846L314.442 269.648ZM331.616 279.539L336.895 276.465L335.492 275.663L330.213 278.737L331.616 279.539ZM325.869 276.264L331.148 273.19L329.745 272.388L324.465 275.462L325.869 276.264ZM308.694 266.307L313.974 263.233L312.57 262.431L307.291 265.505L308.694 266.307ZM302.947 263.032L308.227 259.958L306.823 259.157L301.544 262.231L302.947 263.032ZM320.122 272.923L325.401 269.849L323.998 269.047L318.718 272.121L320.122 272.923ZM318.251 249.801L319.654 248.999L314.375 245.925L312.971 246.727L318.251 249.801ZM369.84 266.307L371.244 265.505L365.965 262.431L364.561 263.233L369.84 266.307ZM354.537 246.46L359.817 243.386L358.413 242.584L353.134 245.658L354.537 246.46ZM366.031 253.075L371.311 250.001L369.907 249.199L364.628 252.273L366.031 253.075ZM360.284 249.801L365.564 246.727L364.16 245.925L358.881 248.999L360.284 249.801ZM348.79 243.185L354.069 240.111L352.666 239.309L347.387 242.383L348.79 243.185ZM343.043 239.844L348.322 236.77L346.919 235.968L341.64 239.042L343.043 239.844ZM375.588 263.032L376.991 262.231L371.712 259.157L370.308 259.958L375.588 263.032ZM329.745 243.185L331.148 242.383L325.869 239.309L324.465 240.111L329.745 243.185ZM323.998 246.46L325.401 245.658L320.122 242.584L318.718 243.386L323.998 246.46ZM364.093 269.648L365.497 268.846L360.217 265.772L358.814 266.574L364.093 269.648ZM335.492 239.844L336.895 239.042L331.616 235.968L330.213 236.77L335.492 239.844ZM371.712 256.417L376.991 253.343L375.588 252.541L370.308 255.615L371.712 256.417Z" fill="#0194FE"/>
<g opacity="0.52">
<path opacity="0.4" d="M217.744 85.4751V270.784L339.635 341.152L460.724 270.784V85.4751H217.744Z" fill="url(#paint9_linear_7_4423)"/>
<path opacity="0.4" d="M251.759 136.864V270.316L339.568 320.971L426.71 270.316V136.864H251.759Z" fill="url(#paint10_linear_7_4423)"/>
<path opacity="0.4" d="M284.971 86.5444V257.486L339.435 288.894L393.564 257.486V86.5444H284.971Z" fill="url(#paint11_linear_7_4423)"/>
</g>
<path fill-rule="evenodd" clip-rule="evenodd" d="M287.875 173.143L339.06 207.293L347.17 202.61L349.037 200.793L297.361 167.666L287.875 173.143Z" fill="url(#paint12_linear_7_4423)"/>
<path fill-rule="evenodd" clip-rule="evenodd" d="M311.62 148.472L288.018 161.642L287.941 173.346L349.491 138.881L349.489 138.395L339.933 132.728L311.62 148.472Z" fill="url(#paint13_linear_7_4423)"/>
<path fill-rule="evenodd" clip-rule="evenodd" d="M349.035 200.793L353.489 193.408L305.892 162.995L297.345 167.955L349.035 200.793Z" fill="url(#paint14_linear_7_4423)"/>
<path fill-rule="evenodd" clip-rule="evenodd" d="M349.479 138.344L287.874 173.171L297.153 179.118L349.479 149.451L349.479 138.344Z" fill="url(#paint15_linear_7_4423)"/>
<path fill-rule="evenodd" clip-rule="evenodd" d="M330.445 201.607L340.778 208.6L391.526 172.937L382.157 167.528L330.445 201.607Z" fill="url(#paint16_linear_7_4423)"/>
<path fill-rule="evenodd" clip-rule="evenodd" d="M367.925 148.429L391.359 161.506L391.436 173.125L330.327 138.907L330.329 138.424L339.815 132.798L367.925 148.429Z" fill="url(#paint17_linear_7_4423)"/>
<path fill-rule="evenodd" clip-rule="evenodd" d="M330.546 138.49L391.504 172.951L382.292 178.855L330.546 149.518L330.546 138.49Z" fill="url(#paint18_linear_7_4423)"/>
<path fill-rule="evenodd" clip-rule="evenodd" d="M348.958 137.836L349.077 189.155L340.035 195.048L339.89 132.605L339.89 132.604L348.958 137.836Z" fill="url(#paint19_linear_7_4423)"/>
<path fill-rule="evenodd" clip-rule="evenodd" d="M330.634 201.472L340.06 195.328L339.915 132.731L330.487 138.037L330.634 201.472Z" fill="url(#paint20_linear_7_4423)"/>
<path d="M332.175 200.454L330.702 190.044L364.163 168.4L373.274 173.498L332.175 200.454Z" fill="url(#paint21_linear_7_4423)"/>
<path d="M300.819 142.6L339.819 120.4L380.619 143.8" stroke="url(#paint22_linear_7_4423)" stroke-width="1.04058"/>
<path d="M380.618 194.8L341.618 217L300.818 193.6" stroke="url(#paint23_linear_7_4423)" stroke-width="1.04058"/>
<defs>
<filter id="filter0_f_7_4423" x="0.973999" y="0.260437" width="676.569" height="587.424" filterUnits="userSpaceOnUse" color-interpolation-filters="sRGB">
<feFlood flood-opacity="0" result="BackgroundImageFix"/>
<feBlend mode="normal" in="SourceGraphic" in2="BackgroundImageFix" result="shape"/>
<feGaussianBlur stdDeviation="113.5" result="effect1_foregroundBlur_7_4423"/>
</filter>
<filter id="filter1_b_7_4423" x="139.195" y="105.736" width="400.145" height="315.877" filterUnits="userSpaceOnUse" color-interpolation-filters="sRGB">
<feFlood flood-opacity="0" result="BackgroundImageFix"/>
<feGaussianBlur in="BackgroundImageFix" stdDeviation="50"/>
<feComposite in2="SourceAlpha" operator="in" result="effect1_backgroundBlur_7_4423"/>
<feBlend mode="normal" in="SourceGraphic" in2="effect1_backgroundBlur_7_4423" result="shape"/>
</filter>
<filter id="filter2_b_7_4423" x="129.043" y="99.7429" width="420.446" height="327.796" filterUnits="userSpaceOnUse" color-interpolation-filters="sRGB">
<feFlood flood-opacity="0" result="BackgroundImageFix"/>
<feGaussianBlur in="BackgroundImageFix" stdDeviation="50"/>
<feComposite in2="SourceAlpha" operator="in" result="effect1_backgroundBlur_7_4423"/>
<feBlend mode="normal" in="SourceGraphic" in2="effect1_backgroundBlur_7_4423" result="shape"/>
</filter>
<linearGradient id="paint0_linear_7_4423" x1="560.81" y1="388.955" x2="556.618" y2="274.764" gradientUnits="userSpaceOnUse">
<stop offset="0.120359" stop-color="#01C3FD" stop-opacity="0"/>
<stop offset="0.311574" stop-color="#01C3FD" stop-opacity="0.38"/>
<stop offset="0.879956" stop-color="#00C3FD" stop-opacity="0.69"/>
</linearGradient>
<linearGradient id="paint1_linear_7_4423" x1="328.205" y1="301.527" x2="489.589" y2="284.477" gradientUnits="userSpaceOnUse">
<stop offset="0.232734" stop-color="#0A205F"/>
<stop offset="0.644324" stop-color="#3168DA"/>
</linearGradient>
<linearGradient id="paint2_linear_7_4423" x1="206.245" y1="301.527" x2="368.586" y2="284.271" gradientUnits="userSpaceOnUse">
<stop offset="0.232734" stop-color="#0A205F"/>
<stop offset="0.644324" stop-color="#3168DA"/>
</linearGradient>
<linearGradient id="paint3_linear_7_4423" x1="160.953" y1="173.757" x2="273.104" y2="414.433" gradientUnits="userSpaceOnUse">
<stop stop-color="#010D14"/>
<stop offset="0.597767" stop-color="#01124A"/>
<stop offset="0.879453" stop-color="#050F14"/>
</linearGradient>
<linearGradient id="paint4_linear_7_4423" x1="141.782" y1="164.338" x2="265.414" y2="430.404" gradientUnits="userSpaceOnUse">
<stop stop-color="#010D14"/>
<stop offset="0.155482" stop-color="#070214"/>
<stop offset="0.772926" stop-color="#050F14"/>
</linearGradient>
<linearGradient id="paint5_linear_7_4423" x1="392.089" y1="341.005" x2="346.839" y2="94.199" gradientUnits="userSpaceOnUse">
<stop offset="0.176173" stop-color="#0C213F"/>
<stop offset="0.644324"/>
</linearGradient>
<linearGradient id="paint6_linear_7_4423" x1="278.882" y1="280.785" x2="352.944" y2="274.912" gradientUnits="userSpaceOnUse">
<stop offset="0.232734" stop-color="#0A205F"/>
<stop offset="0.644324" stop-color="#3168DA"/>
</linearGradient>
<linearGradient id="paint7_linear_7_4423" x1="284.117" y1="257.767" x2="394.425" y2="257.767" gradientUnits="userSpaceOnUse">
<stop stop-color="#0194FE"/>
<stop offset="1" stop-color="#290060"/>
</linearGradient>
<linearGradient id="paint8_linear_7_4423" x1="275.117" y1="257.722" x2="418.702" y2="241.34" gradientUnits="userSpaceOnUse">
<stop offset="0.232734" stop-color="#0A205F"/>
<stop offset="0.644324" stop-color="#3168DA"/>
</linearGradient>
<linearGradient id="paint9_linear_7_4423" x1="348.274" y1="408.442" x2="359.693" y2="59.4087" gradientUnits="userSpaceOnUse">
<stop stop-color="#0194FE"/>
<stop offset="0.852811" stop-color="#0194FE" stop-opacity="0"/>
</linearGradient>
<linearGradient id="paint10_linear_7_4423" x1="345.743" y1="369.424" x2="353.966" y2="118.095" gradientUnits="userSpaceOnUse">
<stop stop-color="#0194FE"/>
<stop offset="0.852811" stop-color="#0194FE" stop-opacity="0"/>
</linearGradient>
<linearGradient id="paint11_linear_7_4423" x1="343.307" y1="342.149" x2="359.275" y2="66.5442" gradientUnits="userSpaceOnUse">
<stop stop-color="#0194FE"/>
<stop offset="0.852811" stop-color="#0194FE" stop-opacity="0"/>
</linearGradient>
<linearGradient id="paint12_linear_7_4423" x1="337.941" y1="202.76" x2="302.192" y2="177.39" gradientUnits="userSpaceOnUse">
<stop stop-color="#02064A"/>
<stop offset="1" stop-color="#0134B9"/>
</linearGradient>
<linearGradient id="paint13_linear_7_4423" x1="292.39" y1="164.128" x2="335.354" y2="141.629" gradientUnits="userSpaceOnUse">
<stop stop-color="#0285E3"/>
<stop offset="1" stop-color="#01C3FD"/>
</linearGradient>
<linearGradient id="paint14_linear_7_4423" x1="336.211" y1="190.075" x2="307.958" y2="168.741" gradientUnits="userSpaceOnUse">
<stop stop-color="#4077E2"/>
<stop offset="1" stop-color="#185DEE"/>
</linearGradient>
<linearGradient id="paint15_linear_7_4423" x1="295.851" y1="175.083" x2="334.136" y2="157.712" gradientUnits="userSpaceOnUse">
<stop stop-color="#0136BD"/>
<stop offset="1" stop-color="#02064A"/>
</linearGradient>
<linearGradient id="paint16_linear_7_4423" x1="379.097" y1="176.285" x2="310.586" y2="213.937" gradientUnits="userSpaceOnUse">
<stop stop-color="#012897"/>
<stop offset="1" stop-color="#004DF4"/>
</linearGradient>
<linearGradient id="paint17_linear_7_4423" x1="387.528" y1="165.281" x2="346.301" y2="143.336" gradientUnits="userSpaceOnUse">
<stop stop-color="#01C3FD"/>
<stop offset="1" stop-color="#0285E3"/>
</linearGradient>
<linearGradient id="paint18_linear_7_4423" x1="348.896" y1="142.793" x2="346.362" y2="213.172" gradientUnits="userSpaceOnUse">
<stop stop-color="#02064A"/>
<stop offset="1" stop-color="#004DF4"/>
</linearGradient>
<linearGradient id="paint19_linear_7_4423" x1="345.437" y1="142.217" x2="346.014" y2="189.498" gradientUnits="userSpaceOnUse">
<stop stop-color="#0285E3"/>
<stop offset="0.494792" stop-color="#0194FE"/>
<stop offset="1" stop-color="#01C3FD"/>
</linearGradient>
<linearGradient id="paint20_linear_7_4423" x1="338.518" y1="135.874" x2="338.518" y2="183.155" gradientUnits="userSpaceOnUse">
<stop stop-color="#233B8D"/>
<stop offset="1" stop-color="#1A5FED"/>
</linearGradient>
<linearGradient id="paint21_linear_7_4423" x1="312.57" y1="210.256" x2="388.682" y2="157.209" gradientUnits="userSpaceOnUse">
<stop stop-color="#004DF4"/>
<stop offset="1" stop-color="#5786DB"/>
</linearGradient>
<linearGradient id="paint22_linear_7_4423" x1="340.719" y1="120.4" x2="340.719" y2="143.8" gradientUnits="userSpaceOnUse">
<stop stop-color="white"/>
<stop offset="1" stop-color="white" stop-opacity="0"/>
</linearGradient>
<linearGradient id="paint23_linear_7_4423" x1="340.718" y1="217" x2="340.718" y2="193.6" gradientUnits="userSpaceOnUse">
<stop stop-color="white"/>
<stop offset="1" stop-color="white" stop-opacity="0"/>
</linearGradient>
</defs>
</svg>
