<svg width="672" height="660" viewBox="0 0 672 660" fill="none" xmlns="http://www.w3.org/2000/svg">
<g opacity="0.1">
<path opacity="0.1" d="M479.49 399.941L446.38 419.164L413.068 399.941L446.179 380.719L479.49 399.941Z" fill="#0071BC"/>
</g>
<g opacity="0.1">
<path opacity="0.1" d="M437.322 425.202L417.999 436.474L398.475 425.202L417.798 414.031L437.322 425.202Z" fill="#0071BC"/>
</g>
<g opacity="0.1">
<path opacity="0.1" d="M334.67 469.987L304.579 487.397L274.286 469.987L304.378 452.475L334.67 469.987Z" fill="#0071BC"/>
</g>
<g opacity="0.1">
<path opacity="0.1" d="M222.054 428.926L202.631 440.197L183.207 428.926L202.53 417.654L222.054 428.926Z" fill="#0071BC"/>
</g>
<g filter="url(#filter0_f_7_4586)">
<path d="M439.382 359.025C446.038 362.863 446.043 372.467 439.391 376.312L348.127 429.321C340.851 433.547 331.871 433.56 324.582 429.356L232.623 376.312C225.958 372.461 225.948 362.844 232.604 358.978L323.823 306C331.098 301.775 340.077 301.761 347.365 305.963L439.382 359.025Z" fill="url(#paint0_linear_7_4586)"/>
</g>
<path d="M519.142 315.768L519.042 323.919L336.683 429.893V421.741L519.142 315.768Z" fill="url(#paint1_linear_7_4586)"/>
<path d="M336.683 421.741V429.893L153.116 323.919V315.768L336.683 421.741Z" fill="url(#paint2_linear_7_4586)"/>
<path d="M519.142 315.767L336.683 421.741L153.116 315.767L335.475 209.794L519.142 315.767Z" fill="#00241A"/>
<g filter="url(#filter1_b_7_4586)">
<path d="M486.837 315.768L336.582 403.022L185.422 315.768L335.676 228.513L486.837 315.768Z" fill="url(#paint3_linear_7_4586)" fill-opacity="0.3"/>
</g>
<g filter="url(#filter2_b_7_4586)">
<path d="M420.079 368.351C420.35 368.507 420.683 368.51 420.956 368.358C421.559 368.023 421.567 367.157 420.969 366.812L413.706 362.615C413.435 362.459 413.102 362.456 412.829 362.608C412.225 362.943 412.218 363.809 412.816 364.154L420.079 368.351ZM441.616 355.972C441.887 356.129 442.22 356.131 442.493 355.98C443.096 355.644 443.104 354.779 442.506 354.433L435.242 350.237C434.972 350.08 434.639 350.077 434.366 350.229C433.762 350.565 433.755 351.43 434.353 351.776L441.616 355.972ZM446.95 352.852C447.221 353.009 447.553 353.012 447.827 352.86C448.43 352.524 448.438 351.659 447.84 351.313L440.576 347.117C440.306 346.96 439.973 346.958 439.7 347.109C439.096 347.445 439.089 348.31 439.687 348.656L446.95 352.852ZM425.514 365.231C425.784 365.387 426.117 365.39 426.39 365.238C426.994 364.903 427.001 364.037 426.403 363.692L419.14 359.495C418.87 359.339 418.537 359.336 418.264 359.488C417.66 359.823 417.653 360.689 418.251 361.035L425.514 365.231ZM452.385 349.733C452.655 349.889 452.988 349.892 453.261 349.74C453.865 349.405 453.872 348.539 453.274 348.193L446.011 343.997C445.74 343.841 445.408 343.838 445.135 343.99C444.531 344.325 444.524 345.191 445.122 345.536L452.385 349.733ZM430.848 362.212C431.118 362.368 431.451 362.371 431.724 362.219C432.328 361.884 432.335 361.018 431.737 360.673L424.474 356.476C424.203 356.32 423.871 356.317 423.598 356.469C422.994 356.804 422.987 357.67 423.585 358.015L430.848 362.212ZM436.182 359.092C436.452 359.248 436.785 359.251 437.058 359.099C437.662 358.764 437.669 357.898 437.071 357.553L429.808 353.356C429.537 353.2 429.205 353.197 428.932 353.349C428.328 353.684 428.321 354.55 428.919 354.896L436.182 359.092ZM473.922 337.354C474.192 337.51 474.525 337.513 474.798 337.361C475.402 337.026 475.409 336.16 474.811 335.815L467.548 331.618C467.277 331.462 466.944 331.459 466.671 331.611C466.068 331.946 466.06 332.812 466.658 333.157L473.922 337.354ZM479.255 334.234C479.526 334.39 479.859 334.393 480.132 334.242C480.736 333.906 480.743 333.04 480.145 332.695L472.882 328.498C472.611 328.342 472.278 328.339 472.005 328.491C471.402 328.826 471.394 329.692 471.992 330.038L479.255 334.234ZM457.719 346.613C457.989 346.769 458.322 346.772 458.595 346.62C459.199 346.285 459.206 345.419 458.608 345.074L451.345 340.877C451.074 340.721 450.741 340.718 450.468 340.87C449.865 341.205 449.857 342.071 450.455 342.416L457.719 346.613ZM484.69 331.114C484.961 331.271 485.293 331.273 485.566 331.122C486.17 330.786 486.177 329.921 485.579 329.575L478.316 325.379C478.046 325.222 477.713 325.219 477.44 325.371C476.836 325.707 476.829 326.572 477.427 326.918L484.69 331.114ZM468.487 340.373C468.758 340.529 469.09 340.532 469.363 340.381C469.967 340.045 469.974 339.179 469.376 338.834L462.113 334.637C461.843 334.481 461.51 334.478 461.237 334.63C460.633 334.965 460.626 335.831 461.224 336.177L468.487 340.373ZM463.153 343.493C463.424 343.649 463.756 343.652 464.029 343.5C464.633 343.165 464.64 342.299 464.042 341.954L456.779 337.757C456.509 337.601 456.176 337.598 455.903 337.75C455.299 338.085 455.292 338.951 455.89 339.296L463.153 343.493ZM360.903 402.568C361.174 402.725 361.507 402.727 361.78 402.576C362.383 402.24 362.391 401.375 361.793 401.029L354.529 396.833C354.259 396.676 353.926 396.674 353.653 396.825C353.049 397.161 353.042 398.026 353.64 398.372L360.903 402.568ZM366.237 399.449C366.508 399.605 366.84 399.608 367.114 399.456C367.717 399.121 367.725 398.255 367.127 397.909L359.863 393.713C359.593 393.557 359.26 393.554 358.987 393.705C358.383 394.041 358.376 394.907 358.974 395.252L366.237 399.449ZM495.458 324.875C495.729 325.031 496.062 325.034 496.335 324.882C496.938 324.547 496.946 323.681 496.348 323.335L489.085 319.139C488.814 318.983 488.481 318.98 488.208 319.132C487.604 319.467 487.597 320.333 488.195 320.678L495.458 324.875ZM414.746 371.471C415.016 371.627 415.349 371.63 415.622 371.478C416.226 371.143 416.233 370.277 415.635 369.932L408.372 365.735C408.101 365.579 407.768 365.576 407.495 365.728C406.892 366.063 406.884 366.929 407.482 367.274L414.746 371.471ZM371.672 396.329C371.942 396.485 372.275 396.488 372.548 396.336C373.152 396.001 373.159 395.135 372.561 394.79L365.298 390.593C365.027 390.437 364.695 390.434 364.422 390.586C363.818 390.921 363.811 391.787 364.409 392.132L371.672 396.329ZM355.469 405.688C355.739 405.844 356.072 405.847 356.345 405.696C356.949 405.36 356.956 404.495 356.358 404.149L349.095 399.952C348.824 399.796 348.492 399.793 348.219 399.945C347.615 400.28 347.608 401.146 348.206 401.492L355.469 405.688ZM350.135 408.808C350.405 408.964 350.738 408.967 351.011 408.815C351.615 408.48 351.622 407.614 351.024 407.269L343.761 403.072C343.491 402.916 343.158 402.913 342.885 403.065C342.281 403.4 342.274 404.266 342.872 404.612L350.135 408.808ZM377.006 393.209C377.276 393.365 377.609 393.368 377.882 393.216C378.486 392.881 378.493 392.015 377.895 391.67L370.632 387.473C370.361 387.317 370.029 387.314 369.755 387.466C369.152 387.801 369.145 388.667 369.742 389.012L377.006 393.209ZM403.977 377.71C404.248 377.867 404.58 377.87 404.853 377.718C405.457 377.382 405.464 376.517 404.866 376.171L397.603 371.975C397.333 371.818 397 371.816 396.727 371.967C396.123 372.303 396.116 373.168 396.714 373.514L403.977 377.71ZM382.44 390.089C382.711 390.245 383.044 390.248 383.317 390.096C383.92 389.761 383.928 388.895 383.33 388.55L376.066 384.353C375.796 384.197 375.463 384.194 375.19 384.346C374.586 384.681 374.579 385.547 375.177 385.893L382.44 390.089ZM398.543 380.83C398.813 380.987 399.146 380.989 399.419 380.838C400.023 380.502 400.03 379.637 399.432 379.291L392.169 375.094C391.898 374.938 391.565 374.935 391.292 375.087C390.689 375.423 390.681 376.288 391.279 376.634L398.543 380.83ZM409.311 374.591C409.581 374.747 409.914 374.75 410.187 374.598C410.791 374.263 410.798 373.397 410.2 373.051L402.937 368.855C402.667 368.699 402.334 368.696 402.061 368.847C401.457 369.183 401.45 370.049 402.048 370.394L409.311 374.591ZM387.774 387.07C388.045 387.226 388.377 387.229 388.65 387.077C389.254 386.742 389.261 385.876 388.663 385.531L381.4 381.334C381.13 381.178 380.797 381.175 380.524 381.327C379.92 381.662 379.913 382.528 380.511 382.873L387.774 387.07ZM393.209 383.95C393.479 384.106 393.812 384.109 394.085 383.957C394.689 383.622 394.696 382.756 394.098 382.411L386.835 378.214C386.564 378.058 386.232 378.055 385.958 378.207C385.355 378.542 385.347 379.408 385.945 379.754L393.209 383.95ZM490.024 327.994C490.294 328.151 490.627 328.154 490.9 328.002C491.504 327.666 491.511 326.801 490.913 326.455L483.65 322.259C483.379 322.102 483.047 322.1 482.774 322.251C482.17 322.587 482.163 323.452 482.761 323.798L490.024 327.994ZM286.401 378.106C286.128 377.955 285.795 377.957 285.524 378.114L278.261 382.31C277.663 382.656 277.67 383.521 278.274 383.857C278.547 384.009 278.88 384.006 279.15 383.849L286.414 379.653C287.012 379.307 287.004 378.442 286.401 378.106ZM280.966 374.986C280.693 374.835 280.36 374.838 280.09 374.994L272.827 379.19C272.229 379.536 272.236 380.402 272.84 380.737C273.113 380.889 273.445 380.886 273.716 380.73L280.979 376.533C281.577 376.188 281.57 375.322 280.966 374.986ZM335.32 406.34C334.727 406.029 334.017 406.043 333.437 406.378L326.669 410.288C326.071 410.634 326.078 411.499 326.682 411.835C326.955 411.986 327.288 411.984 327.558 411.827L331.607 409.488C334.436 407.853 337.923 407.853 340.753 409.488L344.801 411.827C345.072 411.984 345.404 411.986 345.677 411.835C346.281 411.499 346.288 410.634 345.69 410.288L338.87 406.347C338.327 406.034 337.657 406.036 337.116 406.354C336.596 406.66 335.956 406.675 335.422 406.394L335.32 406.34ZM275.632 371.867C275.359 371.715 275.026 371.718 274.756 371.874L267.493 376.071C266.895 376.416 266.902 377.282 267.506 377.617C267.779 377.769 268.112 377.766 268.382 377.61L275.645 373.413C276.243 373.068 276.236 372.202 275.632 371.867ZM297.169 384.346C296.896 384.194 296.563 384.197 296.293 384.353L289.03 388.55C288.432 388.895 288.439 389.761 289.043 390.096C289.316 390.248 289.648 390.245 289.919 390.089L297.182 385.893C297.78 385.547 297.773 384.681 297.169 384.346ZM264.864 365.728C264.591 365.576 264.258 365.579 263.988 365.735L256.724 369.932C256.126 370.277 256.134 371.143 256.737 371.478C257.01 371.63 257.343 371.627 257.614 371.471L264.877 367.274C265.475 366.929 265.468 366.063 264.864 365.728ZM270.198 368.847C269.925 368.696 269.592 368.699 269.321 368.855L262.058 373.051C261.46 373.397 261.467 374.263 262.071 374.598C262.344 374.75 262.677 374.747 262.948 374.591L270.211 370.394C270.809 370.049 270.801 369.183 270.198 368.847ZM313.271 393.705C312.998 393.554 312.666 393.557 312.395 393.713L305.132 397.909C304.534 398.255 304.541 399.121 305.145 399.456C305.418 399.608 305.751 399.605 306.021 399.449L313.284 395.252C313.882 394.907 313.875 394.041 313.271 393.705ZM324.04 399.844C323.767 399.693 323.434 399.696 323.164 399.852L315.9 404.048C315.302 404.394 315.31 405.26 315.913 405.595C316.186 405.747 316.519 405.744 316.79 405.588L324.053 401.391C324.651 401.046 324.644 400.18 324.04 399.844ZM329.474 402.964C329.201 402.813 328.869 402.815 328.598 402.972L321.335 407.168C320.737 407.514 320.744 408.379 321.348 408.715C321.621 408.866 321.954 408.864 322.224 408.707L329.487 404.511C330.085 404.165 330.078 403.3 329.474 402.964ZM302.503 387.466C302.23 387.314 301.897 387.317 301.627 387.473L294.363 391.67C293.765 392.015 293.773 392.881 294.376 393.216C294.65 393.368 294.982 393.365 295.253 393.209L302.516 389.012C303.114 388.667 303.107 387.801 302.503 387.466ZM318.706 396.725C318.433 396.573 318.1 396.576 317.83 396.732L310.566 400.929C309.968 401.274 309.976 402.14 310.579 402.475C310.853 402.627 311.185 402.624 311.456 402.468L318.719 398.271C319.317 397.926 319.31 397.06 318.706 396.725ZM307.938 390.586C307.664 390.434 307.332 390.437 307.061 390.593L299.798 394.79C299.2 395.135 299.207 396.001 299.811 396.336C300.084 396.488 300.417 396.485 300.687 396.329L307.951 392.132C308.549 391.787 308.541 390.921 307.938 390.586ZM259.429 362.608C259.156 362.456 258.824 362.459 258.553 362.615L251.29 366.812C250.692 367.157 250.699 368.023 251.303 368.358C251.576 368.51 251.909 368.507 252.179 368.351L259.442 364.154C260.04 363.809 260.033 362.943 259.429 362.608ZM291.735 381.226C291.462 381.074 291.129 381.077 290.858 381.234L283.595 385.43C282.997 385.776 283.004 386.641 283.608 386.977C283.881 387.128 284.214 387.126 284.484 386.969L291.748 382.773C292.346 382.427 292.338 381.562 291.735 381.226ZM216.356 337.75C216.083 337.598 215.75 337.601 215.479 337.757L208.216 341.954C207.618 342.299 207.625 343.165 208.229 343.5C208.502 343.652 208.835 343.649 209.105 343.493L216.369 339.296C216.967 338.951 216.959 338.085 216.356 337.75ZM211.022 334.63C210.749 334.478 210.416 334.481 210.145 334.637L202.882 338.834C202.284 339.179 202.291 340.045 202.895 340.381C203.168 340.532 203.501 340.529 203.771 340.373L211.035 336.177C211.633 335.831 211.625 334.965 211.022 334.63ZM254.095 359.488C253.822 359.336 253.49 359.339 253.219 359.495L245.956 363.692C245.358 364.037 245.365 364.903 245.969 365.238C246.242 365.39 246.575 365.387 246.845 365.231L254.108 361.035C254.706 360.689 254.699 359.823 254.095 359.488ZM205.688 331.51C205.415 331.358 205.082 331.361 204.811 331.518L197.548 335.714C196.95 336.06 196.958 336.925 197.561 337.261C197.834 337.412 198.167 337.41 198.438 337.253L205.701 333.057C206.299 332.711 206.292 331.846 205.688 331.51ZM184.151 319.132C183.878 318.98 183.545 318.983 183.275 319.139L176.011 323.335C175.413 323.681 175.421 324.547 176.024 324.882C176.298 325.034 176.63 325.031 176.901 324.875L184.164 320.678C184.762 320.333 184.755 319.467 184.151 319.132ZM189.485 322.151C189.212 321.999 188.879 322.002 188.609 322.158L181.345 326.355C180.747 326.7 180.755 327.566 181.358 327.901C181.631 328.053 181.964 328.05 182.235 327.894L189.498 323.697C190.096 323.352 190.089 322.486 189.485 322.151ZM194.919 325.271C194.646 325.119 194.314 325.122 194.043 325.278L186.78 329.474C186.182 329.82 186.189 330.686 186.793 331.021C187.066 331.173 187.399 331.17 187.669 331.014L194.932 326.817C195.53 326.472 195.523 325.606 194.919 325.271ZM243.327 353.248C243.054 353.097 242.721 353.099 242.451 353.256L235.187 357.452C234.589 357.798 234.597 358.663 235.2 358.999C235.474 359.151 235.806 359.148 236.077 358.991L243.34 354.795C243.938 354.449 243.931 353.584 243.327 353.248ZM237.892 350.129C237.619 349.977 237.287 349.98 237.016 350.136L229.753 354.332C229.155 354.678 229.162 355.544 229.766 355.879C230.039 356.031 230.372 356.028 230.642 355.872L237.905 351.675C238.503 351.33 238.496 350.464 237.892 350.129ZM221.79 340.87C221.517 340.718 221.184 340.721 220.914 340.877L213.651 345.074C213.053 345.419 213.06 346.285 213.664 346.62C213.937 346.772 214.269 346.769 214.54 346.613L221.803 342.416C222.401 342.071 222.394 341.205 221.79 340.87ZM248.661 356.368C248.388 356.216 248.055 356.219 247.785 356.376L240.521 360.572C239.923 360.918 239.931 361.783 240.534 362.119C240.807 362.27 241.14 362.268 241.411 362.111L248.674 357.915C249.272 357.569 249.265 356.704 248.661 356.368ZM227.124 343.99C226.851 343.838 226.518 343.841 226.248 343.997L218.984 348.193C218.387 348.539 218.394 349.405 218.997 349.74C219.271 349.892 219.603 349.889 219.874 349.733L227.137 345.536C227.735 345.191 227.728 344.325 227.124 343.99ZM232.559 347.009C232.285 346.857 231.953 346.86 231.682 347.016L224.419 351.213C223.821 351.558 223.828 352.424 224.432 352.759C224.705 352.911 225.038 352.908 225.308 352.752L232.572 348.555C233.17 348.21 233.162 347.344 232.559 347.009ZM200.253 328.39C199.98 328.239 199.647 328.241 199.377 328.398L192.114 332.594C191.516 332.94 191.523 333.805 192.127 334.141C192.4 334.293 192.733 334.29 193.003 334.134L200.266 329.937C200.864 329.591 200.857 328.726 200.253 328.39ZM183.275 312.395C183.545 312.552 183.878 312.554 184.151 312.403C184.755 312.067 184.762 311.202 184.164 310.856L176.901 306.66C176.63 306.503 176.298 306.501 176.024 306.652C175.421 306.988 175.413 307.853 176.011 308.199L183.275 312.395ZM194.043 306.256C194.314 306.413 194.646 306.415 194.919 306.264C195.523 305.928 195.53 305.063 194.932 304.717L187.669 300.521C187.399 300.364 187.066 300.362 186.793 300.513C186.189 300.849 186.182 301.714 186.78 302.06L194.043 306.256ZM307.061 240.941C307.332 241.098 307.664 241.1 307.938 240.949C308.541 240.613 308.549 239.748 307.951 239.402L300.687 235.206C300.417 235.049 300.084 235.046 299.811 235.198C299.207 235.534 299.2 236.399 299.798 236.745L307.061 240.941ZM301.627 244.061C301.897 244.217 302.23 244.22 302.503 244.068C303.107 243.733 303.114 242.867 302.516 242.522L295.253 238.325C294.982 238.169 294.65 238.166 294.376 238.318C293.773 238.653 293.766 239.519 294.363 239.865L301.627 244.061ZM188.609 309.276C188.879 309.432 189.212 309.435 189.485 309.283C190.089 308.948 190.096 308.082 189.498 307.736L182.235 303.54C181.964 303.384 181.631 303.381 181.358 303.532C180.755 303.868 180.747 304.734 181.345 305.079L188.609 309.276ZM312.395 237.821C312.666 237.978 312.998 237.981 313.271 237.829C313.875 237.493 313.882 236.628 313.284 236.282L306.021 232.086C305.751 231.929 305.418 231.927 305.145 232.078C304.541 232.414 304.534 233.279 305.132 233.625L312.395 237.821ZM199.377 303.137C199.647 303.293 199.98 303.296 200.253 303.144C200.857 302.809 200.864 301.943 200.266 301.597L193.003 297.401C192.733 297.244 192.4 297.242 192.127 297.393C191.523 297.729 191.516 298.594 192.114 298.94L199.377 303.137ZM204.811 300.017C205.082 300.173 205.415 300.176 205.688 300.024C206.292 299.689 206.299 298.823 205.701 298.477L198.438 294.281C198.167 294.125 197.834 294.122 197.561 294.274C196.958 294.609 196.95 295.475 197.548 295.82L204.811 300.017ZM290.858 250.301C291.129 250.457 291.462 250.46 291.735 250.308C292.338 249.973 292.346 249.107 291.748 248.762L284.484 244.565C284.214 244.409 283.881 244.406 283.608 244.558C283.004 244.893 282.997 245.759 283.595 246.104L290.858 250.301ZM274.756 259.56C275.026 259.716 275.359 259.719 275.632 259.567C276.236 259.232 276.243 258.366 275.645 258.02L268.382 253.824C268.112 253.668 267.779 253.665 267.506 253.817C266.902 254.152 266.895 255.018 267.493 255.363L274.756 259.56ZM210.145 296.897C210.416 297.053 210.749 297.056 211.022 296.904C211.625 296.569 211.633 295.703 211.035 295.358L203.771 291.161C203.501 291.005 203.168 291.002 202.895 291.154C202.291 291.489 202.284 292.355 202.882 292.7L210.145 296.897ZM178.276 315.767L170.577 320.216C169.979 320.561 169.986 321.427 170.59 321.762C170.863 321.914 171.196 321.911 171.466 321.755L178.293 317.81C179.083 317.354 179.074 316.21 178.276 315.767C179.074 315.324 179.083 314.18 178.293 313.724L171.466 309.779C171.196 309.623 170.863 309.62 170.59 309.772C169.986 310.107 169.979 310.973 170.577 311.319L178.276 315.767ZM269.321 262.679C269.592 262.836 269.925 262.839 270.198 262.687C270.801 262.351 270.809 261.486 270.211 261.14L262.948 256.944C262.677 256.787 262.344 256.785 262.071 256.936C261.467 257.272 261.46 258.137 262.058 258.483L269.321 262.679ZM280.09 256.54C280.36 256.697 280.693 256.7 280.966 256.548C281.57 256.212 281.577 255.347 280.979 255.001L273.716 250.805C273.445 250.648 273.113 250.646 272.84 250.797C272.236 251.133 272.229 251.998 272.827 252.344L280.09 256.54ZM258.553 268.919C258.824 269.075 259.156 269.078 259.429 268.926C260.033 268.591 260.04 267.725 259.442 267.38L252.179 263.183C251.909 263.027 251.576 263.024 251.303 263.176C250.699 263.511 250.692 264.377 251.29 264.723L258.553 268.919ZM296.293 247.181C296.563 247.337 296.896 247.34 297.169 247.188C297.773 246.853 297.78 245.987 297.182 245.642L289.919 241.445C289.648 241.289 289.316 241.286 289.043 241.438C288.439 241.773 288.432 242.639 289.03 242.984L296.293 247.181ZM263.988 265.799C264.258 265.956 264.591 265.958 264.864 265.807C265.468 265.471 265.475 264.606 264.877 264.26L257.614 260.064C257.343 259.907 257.01 259.904 256.737 260.056C256.134 260.392 256.126 261.257 256.724 261.603L263.988 265.799ZM220.914 290.657C221.184 290.814 221.517 290.816 221.79 290.665C222.394 290.329 222.401 289.464 221.803 289.118L214.54 284.921C214.269 284.765 213.937 284.762 213.664 284.914C213.06 285.25 213.053 286.115 213.651 286.461L220.914 290.657ZM226.248 287.537C226.518 287.694 226.851 287.697 227.124 287.545C227.728 287.209 227.735 286.344 227.137 285.998L219.874 281.802C219.603 281.645 219.271 281.643 218.997 281.794C218.394 282.13 218.387 282.995 218.984 283.341L226.248 287.537ZM231.682 284.418C231.953 284.574 232.285 284.577 232.559 284.425C233.162 284.09 233.17 283.224 232.572 282.878L225.308 278.682C225.038 278.526 224.705 278.523 224.432 278.674C223.828 279.01 223.821 279.876 224.419 280.221L231.682 284.418ZM323.164 231.682C323.434 231.839 323.767 231.842 324.04 231.69C324.644 231.354 324.651 230.489 324.053 230.143L316.79 225.947C316.519 225.79 316.186 225.788 315.913 225.939C315.31 226.275 315.302 227.14 315.9 227.486L323.164 231.682ZM247.785 275.159C248.055 275.315 248.388 275.318 248.661 275.166C249.265 274.831 249.272 273.965 248.674 273.62L241.411 269.423C241.14 269.267 240.807 269.264 240.534 269.416C239.931 269.751 239.923 270.617 240.521 270.962L247.785 275.159ZM237.016 281.398C237.287 281.555 237.619 281.557 237.892 281.406C238.496 281.07 238.503 280.205 237.905 279.859L230.642 275.663C230.372 275.506 230.039 275.504 229.766 275.655C229.162 275.991 229.155 276.856 229.753 277.202L237.016 281.398ZM328.598 228.563C328.869 228.719 329.201 228.722 329.474 228.57C330.078 228.235 330.085 227.369 329.487 227.023L322.224 222.827C321.954 222.671 321.621 222.668 321.348 222.82C320.744 223.155 320.737 224.021 321.335 224.366L328.598 228.563ZM317.83 234.702C318.1 234.858 318.433 234.861 318.706 234.709C319.31 234.374 319.317 233.508 318.719 233.162L311.456 228.966C311.185 228.81 310.853 228.807 310.579 228.959C309.976 229.294 309.968 230.16 310.566 230.505L317.83 234.702ZM242.451 278.279C242.721 278.435 243.054 278.438 243.327 278.286C243.931 277.951 243.938 277.085 243.34 276.739L236.077 272.543C235.806 272.387 235.474 272.384 235.2 272.535C234.597 272.871 234.589 273.737 235.187 274.082L242.451 278.279ZM215.479 293.777C215.75 293.933 216.083 293.936 216.356 293.784C216.959 293.449 216.967 292.583 216.369 292.238L209.105 288.041C208.835 287.885 208.502 287.882 208.229 288.034C207.625 288.369 207.618 289.235 208.216 289.581L215.479 293.777ZM253.219 272.039C253.49 272.195 253.822 272.198 254.095 272.046C254.699 271.711 254.706 270.845 254.108 270.5L246.845 266.303C246.575 266.147 246.242 266.144 245.969 266.296C245.365 266.631 245.358 267.497 245.956 267.842L253.219 272.039ZM285.524 253.421C285.795 253.577 286.128 253.58 286.401 253.428C287.004 253.093 287.012 252.227 286.414 251.881L279.15 247.685C278.88 247.529 278.547 247.526 278.274 247.677C277.67 248.013 277.663 248.879 278.261 249.224L285.524 253.421ZM450.468 290.665C450.741 290.816 451.074 290.814 451.345 290.657L458.608 286.461C459.206 286.115 459.199 285.25 458.595 284.914C458.322 284.762 457.989 284.765 457.719 284.921L450.455 289.118C449.857 289.464 449.865 290.329 450.468 290.665ZM493.882 315.767C493.118 316.217 493.122 317.323 493.89 317.767L500.794 321.756C501.064 321.912 501.395 321.914 501.667 321.763C502.27 321.428 502.275 320.563 501.676 320.221L493.882 315.767L501.676 311.313C502.275 310.971 502.27 310.106 501.667 309.771C501.395 309.62 501.064 309.623 500.794 309.778L493.89 313.768C493.122 314.211 493.118 315.318 493.882 315.767ZM412.829 268.926C413.102 269.078 413.435 269.075 413.706 268.919L420.969 264.723C421.567 264.377 421.559 263.511 420.956 263.176C420.683 263.024 420.35 263.027 420.079 263.183L412.816 267.38C412.218 267.725 412.225 268.591 412.829 268.926ZM488.108 312.403C488.381 312.554 488.713 312.552 488.984 312.395L496.247 308.199C496.845 307.853 496.838 306.988 496.234 306.652C495.961 306.501 495.628 306.503 495.358 306.66L488.095 310.856C487.497 311.202 487.504 312.067 488.108 312.403ZM482.774 309.283C483.047 309.435 483.379 309.432 483.65 309.276L490.913 305.079C491.511 304.734 491.504 303.868 490.9 303.532C490.627 303.381 490.294 303.384 490.024 303.54L482.761 307.736C482.163 308.082 482.17 308.948 482.774 309.283ZM461.237 296.904C461.51 297.056 461.843 297.053 462.113 296.897L469.376 292.7C469.974 292.355 469.967 291.489 469.363 291.154C469.09 291.002 468.758 291.005 468.487 291.161L461.224 295.358C460.626 295.703 460.633 296.569 461.237 296.904ZM466.571 300.024C466.844 300.176 467.177 300.173 467.447 300.017L474.71 295.82C475.308 295.475 475.301 294.609 474.697 294.274C474.424 294.122 474.091 294.125 473.821 294.281L466.558 298.478C465.96 298.823 465.967 299.689 466.571 300.024ZM477.339 306.264C477.612 306.415 477.945 306.413 478.215 306.256L485.479 302.06C486.077 301.714 486.069 300.849 485.466 300.513C485.193 300.362 484.86 300.364 484.589 300.521L477.326 304.717C476.728 305.063 476.735 305.928 477.339 306.264ZM455.802 293.784C456.075 293.936 456.408 293.933 456.679 293.777L463.942 289.581C464.54 289.235 464.533 288.369 463.929 288.034C463.656 287.882 463.323 287.885 463.053 288.041L455.789 292.238C455.191 292.583 455.199 293.449 455.802 293.784ZM472.005 303.144C472.278 303.296 472.611 303.293 472.882 303.137L480.145 298.94C480.743 298.595 480.736 297.729 480.132 297.393C479.859 297.242 479.526 297.244 479.255 297.401L471.992 301.597C471.394 301.943 471.402 302.809 472.005 303.144ZM445.034 287.545C445.307 287.697 445.64 287.694 445.91 287.537L453.173 283.341C453.771 282.995 453.764 282.13 453.16 281.794C452.887 281.643 452.555 281.645 452.284 281.802L445.021 285.998C444.423 286.344 444.43 287.209 445.034 287.545ZM380.524 250.308C380.797 250.46 381.13 250.457 381.4 250.301L388.663 246.104C389.261 245.759 389.254 244.893 388.65 244.558C388.377 244.406 388.045 244.409 387.774 244.565L380.511 248.762C379.913 249.107 379.92 249.973 380.524 250.308ZM385.858 253.428C386.131 253.58 386.464 253.577 386.734 253.421L393.997 249.224C394.595 248.879 394.588 248.013 393.984 247.677C393.711 247.526 393.379 247.529 393.108 247.685L385.845 251.881C385.247 252.227 385.254 253.093 385.858 253.428ZM364.321 240.949C364.594 241.1 364.927 241.098 365.197 240.941L372.46 236.745C373.059 236.399 373.051 235.534 372.447 235.198C372.174 235.046 371.842 235.049 371.571 235.206L364.308 239.402C363.71 239.748 363.717 240.613 364.321 240.949ZM369.755 244.068C370.029 244.22 370.361 244.217 370.632 244.061L377.895 239.865C378.493 239.519 378.486 238.653 377.882 238.318C377.609 238.166 377.276 238.169 377.006 238.325L369.742 242.522C369.145 242.867 369.152 243.733 369.755 244.068ZM375.089 247.188C375.362 247.34 375.695 247.337 375.966 247.181L383.229 242.984C383.827 242.639 383.82 241.773 383.216 241.438C382.943 241.286 382.61 241.289 382.34 241.445L375.076 245.642C374.478 245.987 374.486 246.853 375.089 247.188ZM407.395 265.807C407.668 265.958 408.001 265.956 408.271 265.799L415.534 261.603C416.132 261.257 416.125 260.392 415.521 260.056C415.248 259.904 414.915 259.907 414.645 260.064L407.382 264.26C406.784 264.606 406.791 265.471 407.395 265.807ZM402.061 262.687C402.334 262.839 402.667 262.836 402.937 262.679L410.2 258.483C410.798 258.137 410.791 257.272 410.187 256.936C409.914 256.785 409.581 256.787 409.311 256.944L402.048 261.14C401.45 261.486 401.457 262.351 402.061 262.687ZM396.626 259.567C396.899 259.719 397.232 259.716 397.503 259.56L404.766 255.363C405.364 255.018 405.357 254.152 404.753 253.817C404.48 253.665 404.147 253.668 403.876 253.824L396.613 258.02C396.015 258.366 396.023 259.232 396.626 259.567ZM391.292 256.548C391.565 256.7 391.898 256.697 392.169 256.54L399.432 252.344C400.03 251.998 400.023 251.133 399.419 250.797C399.146 250.646 398.813 250.648 398.543 250.805L391.279 255.001C390.681 255.347 390.689 256.212 391.292 256.548ZM434.265 281.406C434.539 281.557 434.871 281.555 435.142 281.398L442.405 277.202C443.003 276.856 442.996 275.991 442.392 275.655C442.119 275.504 441.786 275.506 441.516 275.663L434.252 279.859C433.654 280.205 433.662 281.07 434.265 281.406ZM358.987 237.829C359.26 237.981 359.593 237.978 359.863 237.821L367.127 233.625C367.725 233.279 367.717 232.414 367.114 232.078C366.84 231.927 366.508 231.929 366.237 232.086L358.974 236.282C358.376 236.628 358.383 237.493 358.987 237.829ZM423.497 275.166C423.77 275.318 424.103 275.315 424.373 275.159L431.637 270.962C432.235 270.617 432.227 269.751 431.624 269.416C431.35 269.264 431.018 269.267 430.747 269.423L423.484 273.62C422.886 273.965 422.893 274.831 423.497 275.166ZM439.7 284.425C439.973 284.577 440.306 284.574 440.576 284.418L447.84 280.221C448.438 279.876 448.43 279.01 447.827 278.674C447.553 278.523 447.221 278.526 446.95 278.682L439.687 282.878C439.089 283.224 439.096 284.09 439.7 284.425ZM418.163 272.046C418.436 272.198 418.769 272.195 419.039 272.039L426.303 267.842C426.901 267.497 426.893 266.631 426.29 266.296C426.017 266.144 425.684 266.147 425.413 266.303L418.15 270.5C417.552 270.845 417.559 271.711 418.163 272.046ZM428.932 278.286C429.205 278.438 429.537 278.435 429.808 278.279L437.071 274.082C437.669 273.737 437.662 272.871 437.058 272.535C436.785 272.384 436.452 272.387 436.182 272.543L428.919 276.739C428.321 277.085 428.328 277.951 428.932 278.286ZM336.079 224.588L327.457 219.606C327.187 219.45 326.854 219.447 326.581 219.599C325.977 219.934 325.97 220.8 326.568 221.146L332.473 224.557C333.586 225.201 334.955 225.212 336.079 224.588C337.129 225.267 338.471 225.301 339.554 224.675L345.488 221.247C346.086 220.901 346.079 220.035 345.475 219.699C345.202 219.548 344.871 219.55 344.6 219.705L336.079 224.588ZM353.553 234.709C353.826 234.861 354.158 234.858 354.429 234.702L361.692 230.505C362.29 230.16 362.283 229.294 361.679 228.959C361.406 228.807 361.073 228.81 360.803 228.966L353.54 233.162C352.942 233.508 352.949 234.374 353.553 234.709ZM348.219 231.69C348.492 231.842 348.824 231.839 349.095 231.682L356.358 227.486C356.956 227.14 356.949 226.275 356.345 225.939C356.072 225.788 355.739 225.79 355.469 225.947L348.206 230.143C347.608 230.489 347.615 231.354 348.219 231.69ZM342.784 228.57C343.057 228.722 343.39 228.719 343.66 228.563L350.924 224.366C351.522 224.021 351.514 223.155 350.911 222.82C350.638 222.668 350.305 222.671 350.034 222.827L342.771 227.023C342.173 227.369 342.18 228.235 342.784 228.57Z" fill="url(#paint4_linear_7_4586)" fill-opacity="0.6"/>
</g>
<path d="M419.207 306.849L419.107 328.185L336.381 376.291V354.955L419.207 306.849Z" fill="url(#paint5_linear_7_4586)"/>
<path d="M336.381 354.955V376.291L253.051 328.185V306.849L336.381 354.955Z" fill="url(#paint6_linear_7_4586)"/>
<path d="M419.207 306.849L336.381 354.955L253.051 306.849L335.878 258.744L419.207 306.849Z" fill="#07A6EA" fill-opacity="0.39"/>
<path d="M254.863 306.849L335.878 259.75L417.496 306.849L336.381 353.949L254.863 306.849Z" fill="url(#paint7_radial_7_4586)"/>
<path d="M284.35 306.85L335.978 276.859L387.908 306.85L336.28 336.84L284.35 306.85Z" stroke="#26BAD8" stroke-opacity="0.46" stroke-miterlimit="10"/>
<path d="M287.269 304.837L289.382 303.629L281.432 299L279.318 300.207L287.269 304.837ZM347.652 339.658L349.766 338.45L341.815 333.821L339.702 335.129L347.652 339.658ZM356.307 334.727L358.421 333.519L350.47 328.89L348.357 330.097L356.307 334.727ZM364.962 329.695L367.076 328.487L359.125 323.858L357.012 325.065L364.962 329.695ZM295.924 299.805L298.037 298.597L290.087 293.968L287.973 295.175L295.924 299.805ZM298.742 324.763L306.692 320.134L304.579 318.926L296.628 323.556L298.742 324.763ZM324.606 339.658L332.557 335.029L330.443 333.821L322.493 338.45L324.606 339.658ZM315.951 334.727L323.902 330.097L321.788 328.89L313.838 333.519L315.951 334.727ZM290.087 319.731L298.037 315.102L295.924 313.894L287.973 318.524L290.087 319.731ZM281.432 314.8L289.382 310.171L287.269 308.963L279.318 313.592L281.432 314.8ZM307.296 329.695L315.247 325.065L313.133 323.858L305.183 328.487L307.296 329.695ZM304.478 294.873L306.592 293.666L298.641 289.036L296.528 290.244L304.478 294.873ZM382.172 319.731L384.285 318.524L376.335 313.894L374.221 315.102L382.172 319.731ZM359.125 289.841L367.076 285.212L364.962 284.004L357.012 288.634L359.125 289.841ZM376.435 299.805L384.386 295.175L382.272 293.968L374.322 298.597L376.435 299.805ZM367.78 294.873L375.731 290.244L373.617 289.036L365.667 293.666L367.78 294.873ZM350.47 284.91L358.421 280.281L356.307 279.073L348.357 283.702L350.47 284.91ZM341.815 279.878L349.766 275.249L347.652 274.041L339.702 278.67L341.815 279.878ZM390.827 314.8L392.94 313.592L384.99 308.963L382.876 310.171L390.827 314.8ZM321.788 284.91L323.902 283.702L315.951 279.073L313.838 280.281L321.788 284.91ZM313.133 289.841L315.247 288.634L307.296 284.004L305.183 285.212L313.133 289.841ZM373.517 324.763L375.63 323.556L367.68 318.926L365.566 320.134L373.517 324.763ZM330.443 279.878L332.557 278.67L324.606 274.041L322.493 275.249L330.443 279.878ZM384.99 304.837L392.94 300.207L390.827 299L382.876 303.629L384.99 304.837Z" fill="#07A6EA" fill-opacity="0.39"/>
<g opacity="0.52">
<path opacity="0.4" d="M153.116 47.4013V326.475L336.683 432.448L519.042 326.475V47.4013H153.116Z" fill="url(#paint8_linear_7_4586)"/>
<path opacity="0.4" d="M204.342 124.793V325.77L336.582 402.055L467.816 325.77V124.793H204.342Z" fill="url(#paint9_linear_7_4586)"/>
<path opacity="0.4" d="M254.36 49.0116V306.447L336.381 353.748L417.899 306.447V49.0116H254.36Z" fill="url(#paint10_linear_7_4586)"/>
</g>
<path fill-rule="evenodd" clip-rule="evenodd" d="M263.292 225.866L334.64 273.469L345.947 266.941L348.548 264.409L276.515 218.232L263.292 225.866Z" fill="url(#paint11_linear_7_4586)"/>
<path fill-rule="evenodd" clip-rule="evenodd" d="M296.392 191.477L263.491 209.835L263.384 226.149L349.181 178.106L349.178 177.429L335.858 169.529L296.392 191.477Z" fill="url(#paint12_linear_7_4586)"/>
<path fill-rule="evenodd" clip-rule="evenodd" d="M348.546 264.408L354.754 254.113L288.407 211.721L276.493 218.634L348.546 264.408Z" fill="url(#paint13_linear_7_4586)"/>
<path fill-rule="evenodd" clip-rule="evenodd" d="M349.165 177.358L263.29 225.905L276.225 234.195L349.165 192.841L349.165 177.358Z" fill="url(#paint14_linear_7_4586)"/>
<path fill-rule="evenodd" clip-rule="evenodd" d="M322.632 265.543L337.036 275.291L407.775 225.579L394.716 218.039L322.632 265.543Z" fill="url(#paint15_linear_7_4586)"/>
<path fill-rule="evenodd" clip-rule="evenodd" d="M374.877 191.417L407.543 209.644L407.65 225.841L322.468 178.143L322.47 177.469L335.694 169.627L374.877 191.417Z" fill="url(#paint16_linear_7_4586)"/>
<path fill-rule="evenodd" clip-rule="evenodd" d="M322.774 177.562L407.745 225.599L394.904 233.829L322.774 192.935L322.774 177.562Z" fill="url(#paint17_linear_7_4586)"/>
<path fill-rule="evenodd" clip-rule="evenodd" d="M348.438 176.651L348.605 248.186L336.001 256.401L335.798 169.358L335.798 169.358L348.438 176.651Z" fill="url(#paint18_linear_7_4586)"/>
<path fill-rule="evenodd" clip-rule="evenodd" d="M322.896 265.355L336.036 256.791L335.833 169.534L322.69 176.931L322.896 265.355Z" fill="url(#paint19_linear_7_4586)"/>
<path d="M322.99 266L322.99 249.425L369.633 219.255L382.334 226.362L322.99 266Z" fill="url(#paint20_linear_7_4586)"/>
<path d="M281.335 183.291L335.699 152.345L392.572 184.964" stroke="url(#paint21_linear_7_4586)" stroke-width="1.04058"/>
<path d="M392.571 256.054L338.207 287L281.334 254.382" stroke="url(#paint22_linear_7_4586)" stroke-width="1.04058"/>
<defs>
<filter id="filter0_f_7_4586" x="0.618286" y="75.8213" width="670.759" height="583.678" filterUnits="userSpaceOnUse" color-interpolation-filters="sRGB">
<feFlood flood-opacity="0" result="BackgroundImageFix"/>
<feBlend mode="normal" in="SourceGraphic" in2="BackgroundImageFix" result="shape"/>
<feGaussianBlur stdDeviation="113.5" result="effect1_foregroundBlur_7_4586"/>
</filter>
<filter id="filter1_b_7_4586" x="85.4215" y="128.513" width="501.415" height="374.509" filterUnits="userSpaceOnUse" color-interpolation-filters="sRGB">
<feFlood flood-opacity="0" result="BackgroundImageFix"/>
<feGaussianBlur in="BackgroundImageFix" stdDeviation="50"/>
<feComposite in2="SourceAlpha" operator="in" result="effect1_backgroundBlur_7_4586"/>
<feBlend mode="normal" in="SourceGraphic" in2="effect1_backgroundBlur_7_4586" result="shape"/>
</filter>
<filter id="filter2_b_7_4586" x="70.1327" y="119.487" width="531.989" height="392.459" filterUnits="userSpaceOnUse" color-interpolation-filters="sRGB">
<feFlood flood-opacity="0" result="BackgroundImageFix"/>
<feGaussianBlur in="BackgroundImageFix" stdDeviation="50"/>
<feComposite in2="SourceAlpha" operator="in" result="effect1_backgroundBlur_7_4586"/>
<feBlend mode="normal" in="SourceGraphic" in2="effect1_backgroundBlur_7_4586" result="shape"/>
</filter>
<linearGradient id="paint0_linear_7_4586" x1="551.769" y1="460.11" x2="547.691" y2="348.964" gradientUnits="userSpaceOnUse">
<stop offset="0.120359" stop-color="#01C3FD" stop-opacity="0"/>
<stop offset="0.380783" stop-color="#07EAD3" stop-opacity="0.55"/>
<stop offset="0.879956" stop-color="#9AE8FF" stop-opacity="0.65"/>
</linearGradient>
<linearGradient id="paint1_linear_7_4586" x1="511.368" y1="521.821" x2="426.592" y2="-97.976" gradientUnits="userSpaceOnUse">
<stop offset="0.154697" stop-color="#02373A"/>
<stop offset="0.487951" stop-color="#9AE8FF"/>
</linearGradient>
<linearGradient id="paint2_linear_7_4586" x1="328.862" y1="521.821" x2="244.578" y2="-98.1129" gradientUnits="userSpaceOnUse">
<stop offset="0.154697" stop-color="#02373A"/>
<stop offset="0.487951" stop-color="#9AE8FF"/>
</linearGradient>
<linearGradient id="paint3_linear_7_4586" x1="67.5888" y1="180.353" x2="236.488" y2="542.808" gradientUnits="userSpaceOnUse">
<stop stop-color="#010D14"/>
<stop offset="0.597767" stop-color="#01124A"/>
<stop offset="0.879453" stop-color="#050F14"/>
</linearGradient>
<linearGradient id="paint4_linear_7_4586" x1="38.7174" y1="166.167" x2="224.907" y2="566.86" gradientUnits="userSpaceOnUse">
<stop stop-color="#010D14"/>
<stop offset="0.155482" stop-color="#070214"/>
<stop offset="0.772926" stop-color="#050F14"/>
</linearGradient>
<linearGradient id="paint5_linear_7_4586" x1="415.678" y1="432.226" x2="347.533" y2="60.5389" gradientUnits="userSpaceOnUse">
<stop offset="0.176173" stop-color="#02373A"/>
<stop offset="0.644324"/>
</linearGradient>
<linearGradient id="paint6_linear_7_4586" x1="332.831" y1="432.226" x2="265.07" y2="60.3933" gradientUnits="userSpaceOnUse">
<stop offset="0.154697" stop-color="#02373A"/>
<stop offset="0.487951" stop-color="#9AE8FF"/>
</linearGradient>
<radialGradient id="paint7_radial_7_4586" cx="0" cy="0" r="1" gradientUnits="userSpaceOnUse" gradientTransform="translate(276.282 306.841) rotate(163.361) scale(199.013 39.2832)">
<stop offset="0.0761907" stop-color="#055257"/>
<stop offset="0.571787" stop-color="#01191B"/>
</radialGradient>
<linearGradient id="paint8_linear_7_4586" x1="349.692" y1="533.786" x2="366.889" y2="8.14562" gradientUnits="userSpaceOnUse">
<stop stop-color="#07EAD3" stop-opacity="0.51"/>
<stop offset="0.852811" stop-color="#0194FE" stop-opacity="0"/>
</linearGradient>
<linearGradient id="paint9_linear_7_4586" x1="345.881" y1="475.025" x2="358.265" y2="96.526" gradientUnits="userSpaceOnUse">
<stop stop-color="#07EAD3"/>
<stop offset="0.852811" stop-color="#0194FE" stop-opacity="0"/>
</linearGradient>
<linearGradient id="paint10_linear_7_4586" x1="342.213" y1="433.949" x2="366.26" y2="18.8915" gradientUnits="userSpaceOnUse">
<stop stop-color="#07EAD3"/>
<stop offset="0.852811" stop-color="#0194FE" stop-opacity="0"/>
</linearGradient>
<linearGradient id="paint11_linear_7_4586" x1="333.081" y1="267.15" x2="283.25" y2="231.786" gradientUnits="userSpaceOnUse">
<stop stop-color="#07585F"/>
<stop offset="1" stop-color="#489DAE"/>
</linearGradient>
<linearGradient id="paint12_linear_7_4586" x1="269.586" y1="213.3" x2="329.476" y2="181.937" gradientUnits="userSpaceOnUse">
<stop stop-color="#03424C"/>
<stop offset="1" stop-color="#056F7B"/>
</linearGradient>
<linearGradient id="paint13_linear_7_4586" x1="330.67" y1="249.468" x2="291.286" y2="219.729" gradientUnits="userSpaceOnUse">
<stop stop-color="#034049"/>
<stop offset="1" stop-color="#358694"/>
</linearGradient>
<linearGradient id="paint14_linear_7_4586" x1="274.411" y1="228.571" x2="327.777" y2="204.356" gradientUnits="userSpaceOnUse">
<stop stop-color="#2A7D8A"/>
<stop offset="1" stop-color="#03434C"/>
</linearGradient>
<linearGradient id="paint15_linear_7_4586" x1="390.45" y1="230.247" x2="294.951" y2="282.731" gradientUnits="userSpaceOnUse">
<stop stop-color="#03424B"/>
<stop offset="0.0001" stop-color="#04454A"/>
<stop offset="1" stop-color="#044850"/>
</linearGradient>
<linearGradient id="paint16_linear_7_4586" x1="402.203" y1="214.907" x2="344.735" y2="184.317" gradientUnits="userSpaceOnUse">
<stop stop-color="#03434B"/>
<stop offset="1" stop-color="#2A7D8A"/>
</linearGradient>
<linearGradient id="paint17_linear_7_4586" x1="348.352" y1="183.561" x2="344.82" y2="281.664" gradientUnits="userSpaceOnUse">
<stop stop-color="#03434B"/>
<stop offset="1" stop-color="#056F7B"/>
</linearGradient>
<linearGradient id="paint18_linear_7_4586" x1="343.531" y1="182.757" x2="344.334" y2="248.665" gradientUnits="userSpaceOnUse">
<stop stop-color="#055D67"/>
<stop offset="1" stop-color="#033F47"/>
</linearGradient>
<linearGradient id="paint19_linear_7_4586" x1="333.885" y1="173.916" x2="333.885" y2="239.823" gradientUnits="userSpaceOnUse">
<stop stop-color="#03434C"/>
<stop offset="1" stop-color="#056F7B"/>
</linearGradient>
<linearGradient id="paint20_linear_7_4586" x1="297.717" y1="277.6" x2="403.811" y2="203.655" gradientUnits="userSpaceOnUse">
<stop stop-color="#044C53"/>
<stop offset="1" stop-color="#499EAF"/>
</linearGradient>
<linearGradient id="paint21_linear_7_4586" x1="336.954" y1="152.345" x2="336.954" y2="184.964" gradientUnits="userSpaceOnUse">
<stop stop-color="white"/>
<stop offset="1" stop-color="white" stop-opacity="0"/>
</linearGradient>
<linearGradient id="paint22_linear_7_4586" x1="336.953" y1="287" x2="336.953" y2="254.382" gradientUnits="userSpaceOnUse">
<stop stop-color="white"/>
<stop offset="1" stop-color="white" stop-opacity="0"/>
</linearGradient>
</defs>
</svg>
