<svg width="127" height="127" viewBox="0 0 127 127" fill="none" xmlns="http://www.w3.org/2000/svg">
<path opacity="0.39" d="M63.5004 127C98.5704 127 127 98.5701 127 63.5C127 28.4299 98.5704 0 63.5004 0C28.4303 0 0.000366211 28.4299 0.000366211 63.5C0.000366211 98.5701 28.4303 127 63.5004 127Z" fill="url(#paint0_radial_7_3934)"/>
<path fill-rule="evenodd" clip-rule="evenodd" d="M28.1398 67.7621L62.2634 90.5291L67.6703 87.4074L68.9149 86.1957L34.4638 64.111L28.1398 67.7621Z" fill="url(#paint1_linear_7_3934)"/>
<path fill-rule="evenodd" clip-rule="evenodd" d="M43.9705 51.3149L28.2354 60.0948L28.184 67.8972L69.2174 44.9204L69.2162 44.5966L62.8454 40.8184L43.9705 51.3149Z" fill="url(#paint2_linear_7_3934)"/>
<path fill-rule="evenodd" clip-rule="evenodd" d="M68.9138 86.1956L71.8831 81.2719L40.1515 60.9971L34.4532 64.3032L68.9138 86.1956Z" fill="url(#paint3_linear_7_3934)"/>
<path fill-rule="evenodd" clip-rule="evenodd" d="M69.2097 44.5625L28.1393 67.7806L34.3251 71.7451L69.2097 51.9674L69.2097 44.5625Z" fill="url(#paint4_linear_7_3934)"/>
<path fill-rule="evenodd" clip-rule="evenodd" d="M56.5204 86.738L63.4091 91.3999L97.2408 67.6248L90.995 64.0187L56.5204 86.738Z" fill="url(#paint5_linear_7_3934)"/>
<path fill-rule="evenodd" clip-rule="evenodd" d="M81.5068 51.2864L97.1298 60.0038L97.1808 67.7503L56.4415 44.9382L56.4427 44.6159L62.7672 40.8652L81.5068 51.2864Z" fill="url(#paint6_linear_7_3934)"/>
<path fill-rule="evenodd" clip-rule="evenodd" d="M56.5877 44.66L97.2263 67.6339L91.0847 71.5701L56.5877 52.012L56.5877 44.66Z" fill="url(#paint7_linear_7_3934)"/>
<path fill-rule="evenodd" clip-rule="evenodd" d="M68.8622 44.2243L68.9418 78.4368L62.9136 82.3655L62.8167 40.7366L62.817 40.7365L68.8622 44.2243Z" fill="url(#paint8_linear_7_3934)"/>
<path fill-rule="evenodd" clip-rule="evenodd" d="M56.6466 86.6479L62.9307 82.5524L62.8336 40.8209L56.5481 44.3584L56.6466 86.6479Z" fill="url(#paint9_linear_7_3934)"/>
<path d="M57.6736 85.9692L56.6915 79.0295L78.9988 64.5999L85.073 67.9989L57.6736 85.9692Z" fill="url(#paint10_linear_7_3934)"/>
<path d="M36.7695 47.3999L62.7696 32.5999L89.9696 48.1999" stroke="url(#paint11_linear_7_3934)" stroke-width="1.04058"/>
<path d="M89.9691 82.2L63.9691 97L36.769 81.4" stroke="url(#paint12_linear_7_3934)" stroke-width="1.04058"/>
<defs>
<radialGradient id="paint0_radial_7_3934" cx="0" cy="0" r="1" gradientUnits="userSpaceOnUse" gradientTransform="translate(63.5147 63.4868) scale(78.9038)">
<stop stop-color="#11639D"/>
<stop offset="0.99" stop-color="white" stop-opacity="0"/>
</radialGradient>
<linearGradient id="paint1_linear_7_3934" x1="61.5176" y1="87.507" x2="37.6848" y2="70.5934" gradientUnits="userSpaceOnUse">
<stop stop-color="#02064A"/>
<stop offset="1" stop-color="#0134B9"/>
</linearGradient>
<linearGradient id="paint2_linear_7_3934" x1="31.1504" y1="61.752" x2="59.7933" y2="46.7526" gradientUnits="userSpaceOnUse">
<stop stop-color="#0285E3"/>
<stop offset="1" stop-color="#01C3FD"/>
</linearGradient>
<linearGradient id="paint3_linear_7_3934" x1="60.3642" y1="79.0501" x2="41.5286" y2="64.8273" gradientUnits="userSpaceOnUse">
<stop stop-color="#4077E2"/>
<stop offset="1" stop-color="#185DEE"/>
</linearGradient>
<linearGradient id="paint4_linear_7_3934" x1="33.4577" y1="69.0554" x2="58.9806" y2="57.4746" gradientUnits="userSpaceOnUse">
<stop stop-color="#0136BD"/>
<stop offset="1" stop-color="#02064A"/>
</linearGradient>
<linearGradient id="paint5_linear_7_3934" x1="88.9551" y1="69.857" x2="43.2814" y2="94.9582" gradientUnits="userSpaceOnUse">
<stop stop-color="#012897"/>
<stop offset="1" stop-color="#004DF4"/>
</linearGradient>
<linearGradient id="paint6_linear_7_3934" x1="94.5757" y1="62.5207" x2="67.091" y2="47.8907" gradientUnits="userSpaceOnUse">
<stop stop-color="#01C3FD"/>
<stop offset="1" stop-color="#0285E3"/>
</linearGradient>
<linearGradient id="paint7_linear_7_3934" x1="68.8209" y1="47.5289" x2="67.1315" y2="94.4481" gradientUnits="userSpaceOnUse">
<stop stop-color="#02064A"/>
<stop offset="1" stop-color="#004DF4"/>
</linearGradient>
<linearGradient id="paint8_linear_7_3934" x1="66.5151" y1="47.1447" x2="66.8995" y2="78.6655" gradientUnits="userSpaceOnUse">
<stop stop-color="#0285E3"/>
<stop offset="0.494792" stop-color="#0194FE"/>
<stop offset="1" stop-color="#01C3FD"/>
</linearGradient>
<linearGradient id="paint9_linear_7_3934" x1="61.9022" y1="42.9164" x2="61.9022" y2="74.4371" gradientUnits="userSpaceOnUse">
<stop stop-color="#233B8D"/>
<stop offset="1" stop-color="#1A5FED"/>
</linearGradient>
<linearGradient id="paint10_linear_7_3934" x1="44.604" y1="92.504" x2="95.3448" y2="57.1392" gradientUnits="userSpaceOnUse">
<stop stop-color="#004DF4"/>
<stop offset="1" stop-color="#5786DB"/>
</linearGradient>
<linearGradient id="paint11_linear_7_3934" x1="63.3696" y1="32.5999" x2="63.3696" y2="48.1999" gradientUnits="userSpaceOnUse">
<stop stop-color="white"/>
<stop offset="1" stop-color="white" stop-opacity="0"/>
</linearGradient>
<linearGradient id="paint12_linear_7_3934" x1="63.3691" y1="97" x2="63.3691" y2="81.4" gradientUnits="userSpaceOnUse">
<stop stop-color="white"/>
<stop offset="1" stop-color="white" stop-opacity="0"/>
</linearGradient>
</defs>
</svg>
