<svg width="584" height="562" viewBox="0 0 584 562" fill="none" xmlns="http://www.w3.org/2000/svg">
<g opacity="0.8">
<path opacity="0.8" d="M21.0162 372.607H-13.7729V562H21.0162V372.607Z" fill="url(#paint0_linear_7_3684)"/>
<path opacity="0.8" d="M72.3873 286.874H37.5981V561.61H72.3873V286.874Z" fill="url(#paint1_linear_7_3684)"/>
<path opacity="0.8" d="M123.433 222.184H88.6438V562H123.433V222.184Z" fill="url(#paint2_linear_7_3684)"/>
<path opacity="0.8" d="M174.479 40.9753H139.69V561.61H174.479V40.9753Z" fill="url(#paint3_linear_7_3684)"/>
<path opacity="0.8" d="M225.525 294.668H190.736V561.61H225.525V294.668Z" fill="url(#paint4_linear_7_3684)"/>
<path opacity="0.8" d="M276.896 206.597H242.107V562H276.896V206.597Z" fill="url(#paint5_linear_7_3684)"/>
<path opacity="0.8" d="M327.942 416.643H293.153V561.61H327.942V416.643Z" fill="url(#paint6_linear_7_3684)"/>
<path opacity="0.8" d="M378.988 340.652H344.198V561.61H378.988V340.652Z" fill="url(#paint7_linear_7_3684)"/>
<path opacity="0.8" d="M430.359 238.941H395.569V561.61H430.359V238.941Z" fill="url(#paint8_linear_7_3684)"/>
<path opacity="0.8" d="M481.405 40.9753H446.615V561.61H481.405V40.9753Z" fill="url(#paint9_linear_7_3684)"/>
<path opacity="0.8" d="M532.451 276.742H497.661V562H532.451V276.742Z" fill="url(#paint10_linear_7_3684)"/>
<path opacity="0.8" d="M583.822 199.972H549.032V561.61H583.822V199.972Z" fill="url(#paint11_linear_7_3684)"/>
</g>
<defs>
<linearGradient id="paint0_linear_7_3684" x1="3.6421" y1="2.56123" x2="3.6421" y2="583.134" gradientUnits="userSpaceOnUse">
<stop stop-color="white"/>
<stop offset="1" stop-color="white" stop-opacity="0.2"/>
</linearGradient>
<linearGradient id="paint1_linear_7_3684" x1="54.7856" y1="2.56252" x2="54.7856" y2="583.136" gradientUnits="userSpaceOnUse">
<stop stop-color="white"/>
<stop offset="1" stop-color="white" stop-opacity="0.2"/>
</linearGradient>
<linearGradient id="paint2_linear_7_3684" x1="105.932" y1="2.56141" x2="105.932" y2="583.136" gradientUnits="userSpaceOnUse">
<stop stop-color="white"/>
<stop offset="1" stop-color="white" stop-opacity="0.2"/>
</linearGradient>
<linearGradient id="paint3_linear_7_3684" x1="157.077" y1="2.56138" x2="157.077" y2="583.134" gradientUnits="userSpaceOnUse">
<stop stop-color="white"/>
<stop offset="1" stop-color="white" stop-opacity="0.2"/>
</linearGradient>
<linearGradient id="paint4_linear_7_3684" x1="208.22" y1="2.5616" x2="208.22" y2="583.134" gradientUnits="userSpaceOnUse">
<stop stop-color="white"/>
<stop offset="1" stop-color="white" stop-opacity="0.2"/>
</linearGradient>
<linearGradient id="paint5_linear_7_3684" x1="259.367" y1="2.56159" x2="259.367" y2="583.136" gradientUnits="userSpaceOnUse">
<stop stop-color="white"/>
<stop offset="1" stop-color="white" stop-opacity="0.2"/>
</linearGradient>
<linearGradient id="paint6_linear_7_3684" x1="310.512" y1="2.56163" x2="310.512" y2="583.163" gradientUnits="userSpaceOnUse">
<stop stop-color="white"/>
<stop offset="1" stop-color="white" stop-opacity="0.2"/>
</linearGradient>
<linearGradient id="paint7_linear_7_3684" x1="361.657" y1="2.56166" x2="361.657" y2="583.135" gradientUnits="userSpaceOnUse">
<stop stop-color="white"/>
<stop offset="1" stop-color="white" stop-opacity="0.2"/>
</linearGradient>
<linearGradient id="paint8_linear_7_3684" x1="412.802" y1="2.56153" x2="412.802" y2="583.136" gradientUnits="userSpaceOnUse">
<stop stop-color="white"/>
<stop offset="1" stop-color="white" stop-opacity="0.2"/>
</linearGradient>
<linearGradient id="paint9_linear_7_3684" x1="463.947" y1="2.56138" x2="463.947" y2="583.134" gradientUnits="userSpaceOnUse">
<stop stop-color="white"/>
<stop offset="1" stop-color="white" stop-opacity="0.2"/>
</linearGradient>
<linearGradient id="paint10_linear_7_3684" x1="515.092" y1="2.56155" x2="515.092" y2="583.136" gradientUnits="userSpaceOnUse">
<stop stop-color="white"/>
<stop offset="1" stop-color="white" stop-opacity="0.2"/>
</linearGradient>
<linearGradient id="paint11_linear_7_3684" x1="566.237" y1="2.56135" x2="566.237" y2="583.133" gradientUnits="userSpaceOnUse">
<stop stop-color="white"/>
<stop offset="1" stop-color="white" stop-opacity="0.2"/>
</linearGradient>
</defs>
</svg>
