<svg width="584" height="938" viewBox="0 0 584 938" fill="none" xmlns="http://www.w3.org/2000/svg">
<g opacity="0.3">
<path opacity="0.3" d="M73.3628 325.397H15.8143V938H73.3628V325.397Z" fill="url(#paint0_linear_7_3654)"/>
<path opacity="0.3" d="M158.222 591.949H100.674V937.61H158.222V591.949Z" fill="url(#paint1_linear_7_3654)"/>
<path opacity="0.3" d="M243.407 734.188H185.859V937.61H243.407V734.188Z" fill="url(#paint2_linear_7_3654)"/>
<path opacity="0.3" d="M328.267 453.217H270.719V938H328.267V453.217Z" fill="url(#paint3_linear_7_3654)"/>
<path opacity="0.3" d="M413.452 162.504H355.904V937.61H413.452V162.504Z" fill="url(#paint4_linear_7_3654)"/>
<path opacity="0.3" d="M498.311 621.566H440.763V937.61H498.311V621.566Z" fill="url(#paint5_linear_7_3654)"/>
<path opacity="0.3" d="M583.496 479.326H525.948V937.999H583.496V479.326Z" fill="url(#paint6_linear_7_3654)"/>
</g>
<defs>
<linearGradient id="paint0_linear_7_3654" x1="44.5648" y1="4.27897" x2="44.5648" y2="973.45" gradientUnits="userSpaceOnUse">
<stop stop-color="white"/>
<stop offset="1" stop-color="white" stop-opacity="0.2"/>
</linearGradient>
<linearGradient id="paint1_linear_7_3654" x1="129.598" y1="4.28665" x2="129.598" y2="973.448" gradientUnits="userSpaceOnUse">
<stop stop-color="white"/>
<stop offset="1" stop-color="white" stop-opacity="0.2"/>
</linearGradient>
<linearGradient id="paint2_linear_7_3654" x1="214.631" y1="4.29298" x2="214.631" y2="973.448" gradientUnits="userSpaceOnUse">
<stop stop-color="white"/>
<stop offset="1" stop-color="white" stop-opacity="0.2"/>
</linearGradient>
<linearGradient id="paint3_linear_7_3654" x1="299.658" y1="4.28093" x2="299.658" y2="973.484" gradientUnits="userSpaceOnUse">
<stop stop-color="white"/>
<stop offset="1" stop-color="white" stop-opacity="0.2"/>
</linearGradient>
<linearGradient id="paint4_linear_7_3654" x1="384.688" y1="4.27893" x2="384.688" y2="973.451" gradientUnits="userSpaceOnUse">
<stop stop-color="white"/>
<stop offset="1" stop-color="white" stop-opacity="0.2"/>
</linearGradient>
<linearGradient id="paint5_linear_7_3654" x1="469.718" y1="4.2841" x2="469.718" y2="973.448" gradientUnits="userSpaceOnUse">
<stop stop-color="white"/>
<stop offset="1" stop-color="white" stop-opacity="0.2"/>
</linearGradient>
<linearGradient id="paint6_linear_7_3654" x1="554.744" y1="4.28505" x2="554.744" y2="973.449" gradientUnits="userSpaceOnUse">
<stop stop-color="white"/>
<stop offset="1" stop-color="white" stop-opacity="0.2"/>
</linearGradient>
</defs>
</svg>
